%TF.GenerationSoftware,KiCad,Pcbnew,8.0.5*%
%TF.CreationDate,2024-11-10T03:16:46-05:00*%
%TF.ProjectId,swarm-pcb,73776172-6d2d-4706-9362-2e6b69636164,rev?*%
%TF.SameCoordinates,Original*%
%TF.FileFunction,Soldermask,Top*%
%TF.FilePolarity,Negative*%
%FSLAX46Y46*%
G04 Gerber Fmt 4.6, Leading zero omitted, Abs format (unit mm)*
G04 Created by KiCad (PCBNEW 8.0.5) date 2024-11-10 03:16:46*
%MOMM*%
%LPD*%
G01*
G04 APERTURE LIST*
G04 Aperture macros list*
%AMRoundRect*
0 Rectangle with rounded corners*
0 $1 Rounding radius*
0 $2 $3 $4 $5 $6 $7 $8 $9 X,Y pos of 4 corners*
0 Add a 4 corners polygon primitive as box body*
4,1,4,$2,$3,$4,$5,$6,$7,$8,$9,$2,$3,0*
0 Add four circle primitives for the rounded corners*
1,1,$1+$1,$2,$3*
1,1,$1+$1,$4,$5*
1,1,$1+$1,$6,$7*
1,1,$1+$1,$8,$9*
0 Add four rect primitives between the rounded corners*
20,1,$1+$1,$2,$3,$4,$5,0*
20,1,$1+$1,$4,$5,$6,$7,0*
20,1,$1+$1,$6,$7,$8,$9,0*
20,1,$1+$1,$8,$9,$2,$3,0*%
%AMRotRect*
0 Rectangle, with rotation*
0 The origin of the aperture is its center*
0 $1 length*
0 $2 width*
0 $3 Rotation angle, in degrees counterclockwise*
0 Add horizontal line*
21,1,$1,$2,0,0,$3*%
%AMFreePoly0*
4,1,19,0.500000,-0.750000,0.000000,-0.750000,0.000000,-0.744911,-0.071157,-0.744911,-0.207708,-0.704816,-0.327430,-0.627875,-0.420627,-0.520320,-0.479746,-0.390866,-0.500000,-0.250000,-0.500000,0.250000,-0.479746,0.390866,-0.420627,0.520320,-0.327430,0.627875,-0.207708,0.704816,-0.071157,0.744911,0.000000,0.744911,0.000000,0.750000,0.500000,0.750000,0.500000,-0.750000,0.500000,-0.750000,
$1*%
%AMFreePoly1*
4,1,19,0.000000,0.744911,0.071157,0.744911,0.207708,0.704816,0.327430,0.627875,0.420627,0.520320,0.479746,0.390866,0.500000,0.250000,0.500000,-0.250000,0.479746,-0.390866,0.420627,-0.520320,0.327430,-0.627875,0.207708,-0.704816,0.071157,-0.744911,0.000000,-0.744911,0.000000,-0.750000,-0.500000,-0.750000,-0.500000,0.750000,0.000000,0.750000,0.000000,0.744911,0.000000,0.744911,
$1*%
G04 Aperture macros list end*
%ADD10R,0.489002X0.434011*%
%ADD11R,0.489002X0.294006*%
%ADD12RoundRect,0.135000X0.135000X0.185000X-0.135000X0.185000X-0.135000X-0.185000X0.135000X-0.185000X0*%
%ADD13R,1.200000X1.800000*%
%ADD14R,0.600000X1.550013*%
%ADD15RoundRect,0.200000X-0.335876X-0.053033X-0.053033X-0.335876X0.335876X0.053033X0.053033X0.335876X0*%
%ADD16RoundRect,0.200000X0.335876X0.053033X0.053033X0.335876X-0.335876X-0.053033X-0.053033X-0.335876X0*%
%ADD17RotRect,1.400000X1.400000X315.000000*%
%ADD18RoundRect,0.225000X0.250000X-0.225000X0.250000X0.225000X-0.250000X0.225000X-0.250000X-0.225000X0*%
%ADD19RoundRect,0.200000X0.200000X0.275000X-0.200000X0.275000X-0.200000X-0.275000X0.200000X-0.275000X0*%
%ADD20RoundRect,0.147500X0.172500X-0.147500X0.172500X0.147500X-0.172500X0.147500X-0.172500X-0.147500X0*%
%ADD21RoundRect,0.225000X-0.250000X0.225000X-0.250000X-0.225000X0.250000X-0.225000X0.250000X0.225000X0*%
%ADD22RoundRect,0.218750X-0.218750X-0.256250X0.218750X-0.256250X0.218750X0.256250X-0.218750X0.256250X0*%
%ADD23C,2.000000*%
%ADD24RoundRect,0.135000X-0.035355X0.226274X-0.226274X0.035355X0.035355X-0.226274X0.226274X-0.035355X0*%
%ADD25R,0.600000X1.100000*%
%ADD26RoundRect,0.140000X-0.170000X0.140000X-0.170000X-0.140000X0.170000X-0.140000X0.170000X0.140000X0*%
%ADD27RoundRect,0.140000X0.219203X0.021213X0.021213X0.219203X-0.219203X-0.021213X-0.021213X-0.219203X0*%
%ADD28RoundRect,0.147500X0.017678X-0.226274X0.226274X-0.017678X-0.017678X0.226274X-0.226274X0.017678X0*%
%ADD29RoundRect,0.225000X-0.225000X-0.250000X0.225000X-0.250000X0.225000X0.250000X-0.225000X0.250000X0*%
%ADD30RoundRect,0.147500X0.147500X0.172500X-0.147500X0.172500X-0.147500X-0.172500X0.147500X-0.172500X0*%
%ADD31RotRect,0.250013X0.650013X150.000000*%
%ADD32RotRect,2.000000X1.200000X150.000000*%
%ADD33R,1.000000X1.700000*%
%ADD34R,1.000000X1.750013*%
%ADD35RoundRect,0.225000X0.017678X-0.335876X0.335876X-0.017678X-0.017678X0.335876X-0.335876X0.017678X0*%
%ADD36RoundRect,0.225000X-0.335876X-0.017678X-0.017678X-0.335876X0.335876X0.017678X0.017678X0.335876X0*%
%ADD37RoundRect,0.135000X0.185000X-0.135000X0.185000X0.135000X-0.185000X0.135000X-0.185000X-0.135000X0*%
%ADD38R,1.700000X1.000000*%
%ADD39RoundRect,0.050000X0.212132X0.282843X-0.282843X-0.212132X-0.212132X-0.282843X0.282843X0.212132X0*%
%ADD40RoundRect,0.050000X-0.212132X0.282843X-0.282843X0.212132X0.212132X-0.282843X0.282843X-0.212132X0*%
%ADD41RotRect,4.000000X4.000000X225.000000*%
%ADD42RoundRect,0.225000X0.225000X0.250000X-0.225000X0.250000X-0.225000X-0.250000X0.225000X-0.250000X0*%
%ADD43RotRect,0.400000X0.600000X225.000000*%
%ADD44FreePoly0,270.000000*%
%ADD45FreePoly1,270.000000*%
%ADD46RoundRect,0.085000X-0.265000X-0.085000X0.265000X-0.085000X0.265000X0.085000X-0.265000X0.085000X0*%
%ADD47R,1.724003X1.870003*%
%ADD48R,0.250013X0.650013*%
%ADD49R,0.650013X0.250013*%
%ADD50RoundRect,0.135000X-0.226274X-0.035355X-0.035355X-0.226274X0.226274X0.035355X0.035355X0.226274X0*%
%ADD51RoundRect,0.140000X0.021213X-0.219203X0.219203X-0.021213X-0.021213X0.219203X-0.219203X0.021213X0*%
%ADD52RoundRect,0.140000X-0.219203X-0.021213X-0.021213X-0.219203X0.219203X0.021213X0.021213X0.219203X0*%
%ADD53RoundRect,0.135000X-0.135000X-0.185000X0.135000X-0.185000X0.135000X0.185000X-0.135000X0.185000X0*%
%ADD54RotRect,0.875006X0.775006X225.000000*%
%ADD55RoundRect,0.250000X-0.475000X0.250000X-0.475000X-0.250000X0.475000X-0.250000X0.475000X0.250000X0*%
%ADD56C,0.750013*%
%ADD57O,2.000000X1.200000*%
%ADD58O,1.800000X1.200000*%
%ADD59R,1.300000X0.300000*%
%ADD60RoundRect,0.135000X0.226274X0.035355X0.035355X0.226274X-0.226274X-0.035355X-0.035355X-0.226274X0*%
%ADD61FreePoly0,180.000000*%
%ADD62FreePoly1,180.000000*%
%ADD63RoundRect,0.140000X-0.140000X-0.170000X0.140000X-0.170000X0.140000X0.170000X-0.140000X0.170000X0*%
%ADD64RoundRect,0.140000X0.140000X0.170000X-0.140000X0.170000X-0.140000X-0.170000X0.140000X-0.170000X0*%
%ADD65RoundRect,0.225000X-0.017678X0.335876X-0.335876X0.017678X0.017678X-0.335876X0.335876X-0.017678X0*%
%ADD66RoundRect,0.140000X-0.021213X0.219203X-0.219203X0.021213X0.021213X-0.219203X0.219203X-0.021213X0*%
%ADD67RoundRect,0.112500X-0.112500X0.187500X-0.112500X-0.187500X0.112500X-0.187500X0.112500X0.187500X0*%
%ADD68RoundRect,0.200000X-0.200000X-0.275000X0.200000X-0.275000X0.200000X0.275000X-0.200000X0.275000X0*%
G04 APERTURE END LIST*
D10*
%TO.C,Q301*%
X74162954Y-139550000D03*
D11*
X75222136Y-139149949D03*
X75222136Y-139950051D03*
%TD*%
D12*
%TO.C,R106*%
X101640001Y-125000000D03*
X102659999Y-125000000D03*
%TD*%
%TO.C,R105*%
X104940001Y-125000000D03*
X105959999Y-125000000D03*
%TD*%
D13*
%TO.C,U205*%
X89700025Y-145150064D03*
X93299975Y-145150064D03*
D14*
X91002032Y-142649936D03*
X92002032Y-142649936D03*
%TD*%
D13*
%TO.C,U206*%
X84100025Y-145150064D03*
X87699975Y-145150064D03*
D14*
X85402032Y-142649936D03*
X86402032Y-142649936D03*
%TD*%
D13*
%TO.C,U303*%
X74200000Y-144350000D03*
X77799950Y-144350000D03*
D14*
X75502007Y-141849872D03*
X76502007Y-141849872D03*
%TD*%
D15*
%TO.C,R204*%
X82666637Y-118366637D03*
X83833363Y-119533363D03*
%TD*%
D16*
%TO.C,R205*%
X85133363Y-118233363D03*
X83966637Y-117066637D03*
%TD*%
D17*
%TO.C,U204*%
X85197038Y-118347039D03*
X83939802Y-119604275D03*
X82592764Y-118257236D03*
X83850000Y-117000000D03*
%TD*%
D18*
%TO.C,C307*%
X83300000Y-131875000D03*
X83300000Y-130325000D03*
%TD*%
D19*
%TO.C,R306*%
X82025000Y-127325000D03*
X80375000Y-127325000D03*
%TD*%
D20*
%TO.C,L103*%
X103750000Y-124985000D03*
X103750000Y-124015000D03*
%TD*%
D21*
%TO.C,C112*%
X86550191Y-109650025D03*
X86550191Y-111200025D03*
%TD*%
D22*
%TO.C,D201*%
X70162500Y-119650000D03*
X71737500Y-119650000D03*
%TD*%
D23*
%TO.C,TP307*%
X75150000Y-132250000D03*
%TD*%
D24*
%TO.C,R202*%
X94036822Y-120682944D03*
X94758070Y-119961696D03*
%TD*%
D25*
%TO.C,U302*%
X70714058Y-136999898D03*
X72613982Y-136999898D03*
X72613982Y-139600102D03*
X71664020Y-139600102D03*
X70714058Y-139600102D03*
%TD*%
D26*
%TO.C,C201*%
X75250000Y-119020000D03*
X75250000Y-119980000D03*
%TD*%
D27*
%TO.C,C109*%
X90339411Y-123189411D03*
X89660589Y-122510589D03*
%TD*%
D28*
%TO.C,R103*%
X84457053Y-113142947D03*
X85142947Y-112457053D03*
%TD*%
D29*
%TO.C,C113*%
X98575000Y-117450000D03*
X100125000Y-117450000D03*
%TD*%
D30*
%TO.C,R302*%
X72885000Y-135800000D03*
X71915000Y-135800000D03*
%TD*%
D23*
%TO.C,TP209*%
X75450000Y-111250000D03*
%TD*%
D31*
%TO.C,U201*%
X90700000Y-135100001D03*
X90266877Y-134849937D03*
X89833974Y-134600001D03*
X89400852Y-134349937D03*
X88967949Y-134100001D03*
X87556468Y-136544757D03*
X87989371Y-136794694D03*
X88422494Y-137044757D03*
X88855396Y-137294694D03*
X89288519Y-137544757D03*
D32*
X89128234Y-135822379D03*
%TD*%
D23*
%TO.C,TP210*%
X72399999Y-111250000D03*
%TD*%
D33*
%TO.C,U105*%
X101250382Y-108950050D03*
X101250407Y-115550000D03*
X97549975Y-108950050D03*
X97550000Y-115550000D03*
%TD*%
D34*
%TO.C,U102*%
X107100000Y-125000000D03*
X110256210Y-125000000D03*
%TD*%
D35*
%TO.C,C102*%
X100158614Y-122820423D03*
X101254630Y-121724407D03*
%TD*%
D36*
%TO.C,C110*%
X101151992Y-128051992D03*
X102248008Y-129148008D03*
%TD*%
D37*
%TO.C,R102*%
X75100000Y-124310000D03*
X75100000Y-123290000D03*
%TD*%
D23*
%TO.C,TP202*%
X100200000Y-136250000D03*
%TD*%
D12*
%TO.C,R101*%
X75910000Y-128100000D03*
X74890000Y-128100000D03*
%TD*%
D18*
%TO.C,C306*%
X84800000Y-131850000D03*
X84800000Y-130300000D03*
%TD*%
D38*
%TO.C,U104*%
X94900166Y-112175216D03*
X88300216Y-112175241D03*
X94900166Y-108474809D03*
X88300216Y-108474834D03*
%TD*%
D36*
%TO.C,C115*%
X100901992Y-130151992D03*
X101998008Y-131248008D03*
%TD*%
%TO.C,C118*%
X97401992Y-132851992D03*
X98498008Y-133948008D03*
%TD*%
D39*
%TO.C,U103*%
X97977996Y-126398959D03*
X97695153Y-126116117D03*
X97412311Y-125833274D03*
X97129468Y-125550431D03*
X96846625Y-125267588D03*
X96563782Y-124984746D03*
X96280940Y-124701903D03*
X95998097Y-124419060D03*
X95715254Y-124136218D03*
X95432412Y-123853375D03*
X95149569Y-123570532D03*
X94866726Y-123287689D03*
X94583883Y-123004847D03*
X94301041Y-122722004D03*
D40*
X93098959Y-122722004D03*
X92816117Y-123004847D03*
X92533274Y-123287689D03*
X92250431Y-123570532D03*
X91967588Y-123853375D03*
X91684746Y-124136218D03*
X91401903Y-124419060D03*
X91119060Y-124701903D03*
X90836218Y-124984746D03*
X90553375Y-125267588D03*
X90270532Y-125550431D03*
X89987689Y-125833274D03*
X89704847Y-126116117D03*
X89422004Y-126398959D03*
D39*
X89422004Y-127601041D03*
X89704847Y-127883883D03*
X89987689Y-128166726D03*
X90270532Y-128449569D03*
X90553375Y-128732412D03*
X90836218Y-129015254D03*
X91119060Y-129298097D03*
X91401903Y-129580940D03*
X91684746Y-129863782D03*
X91967588Y-130146625D03*
X92250431Y-130429468D03*
X92533274Y-130712311D03*
X92816117Y-130995153D03*
X93098959Y-131277996D03*
D40*
X94301041Y-131277996D03*
X94583883Y-130995153D03*
X94866726Y-130712311D03*
X95149569Y-130429468D03*
X95432412Y-130146625D03*
X95715254Y-129863782D03*
X95998097Y-129580940D03*
X96280940Y-129298097D03*
X96563782Y-129015254D03*
X96846625Y-128732412D03*
X97129468Y-128449569D03*
X97412311Y-128166726D03*
X97695153Y-127883883D03*
X97977996Y-127601041D03*
D41*
X93700000Y-127000000D03*
%TD*%
D23*
%TO.C,TP214*%
X81850000Y-121250000D03*
%TD*%
D42*
%TO.C,C204*%
X82725000Y-136450000D03*
X81175000Y-136450000D03*
%TD*%
D43*
%TO.C,U203*%
X95322129Y-119337886D03*
X96312114Y-120327871D03*
X96877871Y-119762114D03*
X95887886Y-118772129D03*
%TD*%
D23*
%TO.C,TP102*%
X102050000Y-133800000D03*
%TD*%
D44*
%TO.C,JP202*%
X79100064Y-119499935D03*
D45*
X79100064Y-120799935D03*
%TD*%
D18*
%TO.C,C303*%
X74450000Y-137075000D03*
X74450000Y-135525000D03*
%TD*%
D46*
%TO.C,U301*%
X80350000Y-131100000D03*
X80350000Y-131600000D03*
X80350000Y-132100000D03*
X81850000Y-132100000D03*
X81850000Y-131600000D03*
X81850000Y-131100000D03*
%TD*%
D47*
%TO.C,L301*%
X80871908Y-134125000D03*
X83328092Y-134125000D03*
%TD*%
D23*
%TO.C,TP201*%
X100200000Y-139300000D03*
%TD*%
%TO.C,TP212*%
X78500000Y-111250000D03*
%TD*%
%TO.C,TP304*%
X68150000Y-141250000D03*
%TD*%
%TO.C,TP301*%
X87350000Y-130600000D03*
%TD*%
D28*
%TO.C,L101*%
X97706622Y-124072415D03*
X98392516Y-123386521D03*
%TD*%
D48*
%TO.C,U202*%
X79450128Y-114899872D03*
X78950000Y-114899872D03*
X78450128Y-114899872D03*
X77950000Y-114899872D03*
D49*
X77700064Y-115649936D03*
X77700064Y-116149809D03*
X77700064Y-116649936D03*
D48*
X77950000Y-117400000D03*
X78450128Y-117400000D03*
X78950000Y-117400000D03*
X79450128Y-117400000D03*
D49*
X79700064Y-116649936D03*
X79700064Y-116149809D03*
X79700064Y-115649936D03*
%TD*%
D23*
%TO.C,TP305*%
X68250000Y-138050000D03*
%TD*%
D50*
%TO.C,R104*%
X98628752Y-129128752D03*
X99350000Y-129850000D03*
%TD*%
D51*
%TO.C,C106*%
X98417265Y-124775986D03*
X99096087Y-124097164D03*
%TD*%
D52*
%TO.C,C108*%
X99510589Y-128260589D03*
X100189411Y-128939411D03*
%TD*%
D23*
%TO.C,TP213*%
X70300000Y-113450000D03*
%TD*%
D51*
%TO.C,C104*%
X98310158Y-120868879D03*
X98988980Y-120190057D03*
%TD*%
D53*
%TO.C,R206*%
X70390000Y-118350000D03*
X71410000Y-118350000D03*
%TD*%
D54*
%TO.C,X101*%
X98853809Y-132106147D03*
X99543853Y-132796191D03*
X100446191Y-131893853D03*
X99756147Y-131203809D03*
%TD*%
D24*
%TO.C,R203*%
X94339376Y-118810624D03*
X95060624Y-118089376D03*
%TD*%
D55*
%TO.C,C202*%
X76800000Y-119300000D03*
X76800000Y-121200000D03*
%TD*%
D56*
%TO.C,U101*%
X72354121Y-123300076D03*
X72354121Y-129099924D03*
D57*
X72854248Y-121874879D03*
X72854248Y-130525121D03*
D58*
X68674416Y-130525121D03*
X68674416Y-121874879D03*
D59*
X73622600Y-122849987D03*
X73622600Y-123650089D03*
X73622600Y-124950064D03*
X73622600Y-125950064D03*
X73622600Y-126449936D03*
X73622600Y-127449682D03*
X73622600Y-128750165D03*
X73622600Y-129550013D03*
X73622600Y-129250038D03*
X73622600Y-128449936D03*
X73622600Y-127950064D03*
X73622600Y-126950064D03*
X73622600Y-125449936D03*
X73622600Y-124449936D03*
X73622600Y-123950064D03*
X73622600Y-123149962D03*
%TD*%
D30*
%TO.C,R304*%
X70985000Y-135800000D03*
X70015000Y-135800000D03*
%TD*%
D52*
%TO.C,C103*%
X95910589Y-133060589D03*
X96589411Y-133739411D03*
%TD*%
D23*
%TO.C,TP206*%
X90350000Y-139250000D03*
%TD*%
%TO.C,TP211*%
X81550000Y-111300000D03*
%TD*%
D18*
%TO.C,C304*%
X79000000Y-132375000D03*
X79000000Y-130825000D03*
%TD*%
D60*
%TO.C,R201*%
X95239376Y-120739376D03*
X95960624Y-121460624D03*
%TD*%
D61*
%TO.C,JP201*%
X85800001Y-136450000D03*
D62*
X84500001Y-136450000D03*
%TD*%
D23*
%TO.C,TP208*%
X84300000Y-139250000D03*
%TD*%
%TO.C,TP303*%
X71100000Y-141900000D03*
%TD*%
D63*
%TO.C,C305*%
X80620000Y-130025000D03*
X81580000Y-130025000D03*
%TD*%
D23*
%TO.C,TP203*%
X100200000Y-145400000D03*
%TD*%
%TO.C,TP207*%
X87350000Y-139250000D03*
%TD*%
D64*
%TO.C,C203*%
X76580000Y-115600000D03*
X75620000Y-115600000D03*
%TD*%
D35*
%TO.C,C101*%
X99158614Y-121720423D03*
X100254630Y-120624407D03*
%TD*%
D23*
%TO.C,TP205*%
X93400000Y-139250000D03*
%TD*%
D65*
%TO.C,C105*%
X86748008Y-126551992D03*
X85651992Y-127648008D03*
%TD*%
D23*
%TO.C,TP302*%
X77900000Y-134650000D03*
%TD*%
D26*
%TO.C,C114*%
X75200000Y-129020000D03*
X75200000Y-129980000D03*
%TD*%
D23*
%TO.C,TP306*%
X78150000Y-128500000D03*
%TD*%
D66*
%TO.C,C107*%
X87402081Y-127594974D03*
X86723259Y-128273796D03*
%TD*%
D23*
%TO.C,TP204*%
X100200000Y-142350001D03*
%TD*%
D67*
%TO.C,D301*%
X77000000Y-138000000D03*
X77000000Y-140100000D03*
%TD*%
D68*
%TO.C,R305*%
X80375000Y-128800001D03*
X82025000Y-128800001D03*
%TD*%
D23*
%TO.C,TP103*%
X95200000Y-115550000D03*
%TD*%
%TO.C,TP101*%
X70500000Y-132700000D03*
%TD*%
%TO.C,TP104*%
X84200000Y-109400000D03*
%TD*%
M02*
