M48
METRIC,TZ
T1C0.300
T2C0.800
T3C1.000
%
G90
G05
T1
X67206Y-111046
X67206Y-113046
X67206Y-115046
X67206Y-117046
X67206Y-119046
X67206Y-121046
X67206Y-123046
X67206Y-125046
X67206Y-127046
X67206Y-129046
X67206Y-131046
X67206Y-133046
X67206Y-135046
X67206Y-143046
X67206Y-145046
X69206Y-109046
X69206Y-111046
X69206Y-115046
X69206Y-117046
X69206Y-119046
X69206Y-123046
X69206Y-125046
X69206Y-135046
X69206Y-143046
X69206Y-145046
X71206Y-109046
X71206Y-115046
X71206Y-117046
X71206Y-127046
X71206Y-131046
X71206Y-135046
X71206Y-145046
X72050Y-125450
X72050Y-126300
X72250Y-126950
X73206Y-109046
X73206Y-133046
X73206Y-141046
X73206Y-143046
X73206Y-145046
X75206Y-109046
X75206Y-113046
X75206Y-143046
X75206Y-145046
X75250Y-116650
X75400Y-117600
X75400Y-126650
X76350Y-116800
X76450Y-126400
X76550Y-124000
X77050Y-118000
X77206Y-109046
X77206Y-131046
X77206Y-139046
X77206Y-141046
X77206Y-143046
X77550Y-126250
X77700Y-124100
X78050Y-122100
X78800Y-124100
X78900Y-126200
X79150Y-122100
X79206Y-109046
X79206Y-127046
X79206Y-137046
X79206Y-139046
X79206Y-141046
X79206Y-143046
X79206Y-145046
X79850Y-124150
X80350Y-126200
X80400Y-113800
X80450Y-114907
X80650Y-116150
X80950Y-117000
X81206Y-109046
X81206Y-123046
X81206Y-127046
X81206Y-139046
X81206Y-141046
X81206Y-143046
X81206Y-145046
X81550Y-114100
X81650Y-126150
X81850Y-116000
X82150Y-124000
X82700Y-114250
X83206Y-111046
X83206Y-123046
X83206Y-141046
X83206Y-143046
X83250Y-113050
X83450Y-124050
X83600Y-128650
X84550Y-124050
X85000Y-126300
X85100Y-120500
X85206Y-123046
X85206Y-129046
X85206Y-133046
X85206Y-135046
X85206Y-145046
X85250Y-121900
X85700Y-125900
X86700Y-118950
X86900Y-124200
X87206Y-113046
X87206Y-115046
X87206Y-129046
X87206Y-133046
X87206Y-135046
X87206Y-141046
X87206Y-143046
X87450Y-119300
X87900Y-125850
X88200Y-124200
X88450Y-132700
X88700Y-122400
X88750Y-121450
X89206Y-111046
X89206Y-113046
X89206Y-115046
X89206Y-117046
X89206Y-141046
X89206Y-143046
X89550Y-132350
X90200Y-133450
X90750Y-136700
X90900Y-130950
X90950Y-132450
X91206Y-109046
X91206Y-111046
X91206Y-113046
X91206Y-115046
X91206Y-117046
X91206Y-119046
X91206Y-145046
X91523Y-122377
X91600Y-127000
X91600Y-131850
X92150Y-121400
X92650Y-125850
X92650Y-127000
X92650Y-128200
X93100Y-132700
X93206Y-109046
X93206Y-111046
X93206Y-113046
X93206Y-115046
X93206Y-117046
X93206Y-119046
X93206Y-121046
X93206Y-137046
X93206Y-141046
X93206Y-143046
X93700Y-124700
X93700Y-125850
X93700Y-127000
X93700Y-128200
X93700Y-129400
X94650Y-132700
X94850Y-125850
X94900Y-127000
X94900Y-128150
X95206Y-111046
X95206Y-113046
X95206Y-117046
X95206Y-139046
X95206Y-141046
X95206Y-143046
X95206Y-145046
X96000Y-127000
X96230Y-130844
X96400Y-131550
X96500Y-130350
X96600Y-132200
X96807Y-131143
X96900Y-129900
X97000Y-118650
X97007Y-131793
X97050Y-130600
X97200Y-134250
X97206Y-111046
X97206Y-113046
X97206Y-117046
X97206Y-141046
X97206Y-143046
X97206Y-145046
X97400Y-134800
X97450Y-131250
X97600Y-130600
X97650Y-122600
X97850Y-131650
X97900Y-121550
X97950Y-134900
X98050Y-129650
X98100Y-131100
X98400Y-130100
X98400Y-135450
X98800Y-130500
X98800Y-135000
X99206Y-109046
X99206Y-111046
X99206Y-113046
X99250Y-134600
X99566Y-133825
X99800Y-134350
X100150Y-133550
X100300Y-127200
X100400Y-133050
X100850Y-132700
X101206Y-111046
X101206Y-113046
X101206Y-117046
X101206Y-119046
X101206Y-123046
X101206Y-135046
X101206Y-141046
X101400Y-132250
X101421Y-126867
X101800Y-127300
X102200Y-127700
X102500Y-132150
X102650Y-128050
X102650Y-130250
X103050Y-129850
X103100Y-128450
X103100Y-130650
X103206Y-109046
X103206Y-111046
X103206Y-113046
X103206Y-115046
X103206Y-117046
X103206Y-119046
X103206Y-121046
X103206Y-123046
X103206Y-127046
X103206Y-135046
X103206Y-137046
X103206Y-139046
X103206Y-141046
X103206Y-143046
X103206Y-145046
X103450Y-129400
X103500Y-131100
X103500Y-131700
X103550Y-128850
T3
X68150Y-141250
X68250Y-138050
X70300Y-113450
X70500Y-132700
X71100Y-141900
X72400Y-111250
X75150Y-132250
X75450Y-111250
X77900Y-134650
X78150Y-128500
X78500Y-111250
X81550Y-111300
X81850Y-121250
X84200Y-109400
X84300Y-139250
X87350Y-130600
X87350Y-139250
X90350Y-139250
X93400Y-139250
X95200Y-115550
X100200Y-136250
X100200Y-139300
X100200Y-142350
X100200Y-145400
X102050Y-133800
T2
G00X68974Y-121875
M15
G01X68374Y-121875
M16
G05
G00X68974Y-130525
M15
G01X68374Y-130525
M16
G05
G00X73254Y-121875
M15
G01X72454Y-121875
M16
G05
G00X73254Y-130525
M15
G01X72454Y-130525
M16
G05
M30
