%TF.GenerationSoftware,KiCad,Pcbnew,8.0.5*%
%TF.CreationDate,2024-11-10T02:34:48-05:00*%
%TF.ProjectId,swarm-pcb,73776172-6d2d-4706-9362-2e6b69636164,rev?*%
%TF.SameCoordinates,Original*%
%TF.FileFunction,Legend,Top*%
%TF.FilePolarity,Positive*%
%FSLAX46Y46*%
G04 Gerber Fmt 4.6, Leading zero omitted, Abs format (unit mm)*
G04 Created by KiCad (PCBNEW 8.0.5) date 2024-11-10 02:34:48*
%MOMM*%
%LPD*%
G01*
G04 APERTURE LIST*
%ADD10C,0.059995*%
%ADD11C,0.152400*%
%ADD12C,0.120000*%
%ADD13C,0.254000*%
%ADD14C,0.100000*%
%ADD15C,0.000000*%
%ADD16C,0.150013*%
%ADD17C,0.254001*%
%ADD18C,0.151994*%
%ADD19C,0.200000*%
%ADD20C,0.350000*%
%ADD21O,1.600025X0.800000*%
%ADD22O,1.599975X0.800000*%
%ADD23O,1.400000X0.800000*%
G04 APERTURE END LIST*
D10*
%TO.C,Q301*%
X75322466Y-140149949D02*
G75*
G02*
X75262522Y-140149949I-29972J0D01*
G01*
X75262522Y-140149949D02*
G75*
G02*
X75322466Y-140149949I29972J0D01*
G01*
D11*
X75168745Y-140226200D02*
X74216345Y-140226200D01*
X75168745Y-139525591D02*
X75168745Y-139574409D01*
X75168745Y-138873800D02*
X74216345Y-138873800D01*
X74216345Y-140226200D02*
X74216345Y-139925591D01*
X74216345Y-138873800D02*
X74216345Y-139174409D01*
D12*
%TO.C,R106*%
X102303641Y-124620000D02*
X101996359Y-124620000D01*
X102303641Y-125380000D02*
X101996359Y-125380000D01*
%TO.C,R105*%
X105603641Y-124620000D02*
X105296359Y-124620000D01*
X105603641Y-125380000D02*
X105296359Y-125380000D01*
D10*
%TO.C,U205*%
X93529997Y-142159995D02*
G75*
G02*
X93470003Y-142159995I-29997J0D01*
G01*
X93470003Y-142159995D02*
G75*
G02*
X93529997Y-142159995I29997J0D01*
G01*
D13*
X92972644Y-142059995D02*
G75*
G02*
X92667336Y-142059995I-152654J0D01*
G01*
X92667336Y-142059995D02*
G75*
G02*
X92972644Y-142059995I152654J0D01*
G01*
X93500000Y-142648412D02*
X93500000Y-144018796D01*
X92533172Y-142648412D02*
X93500000Y-142648412D01*
X90500000Y-145900000D02*
X92500000Y-145900000D01*
X89500000Y-142648412D02*
X90470892Y-142648412D01*
X89500000Y-142648412D02*
X89500000Y-144018796D01*
D10*
%TO.C,U206*%
X87929997Y-142159995D02*
G75*
G02*
X87870003Y-142159995I-29997J0D01*
G01*
X87870003Y-142159995D02*
G75*
G02*
X87929997Y-142159995I29997J0D01*
G01*
D13*
X87372644Y-142059995D02*
G75*
G02*
X87067336Y-142059995I-152654J0D01*
G01*
X87067336Y-142059995D02*
G75*
G02*
X87372644Y-142059995I152654J0D01*
G01*
X87900000Y-142648412D02*
X87900000Y-144018796D01*
X86933172Y-142648412D02*
X87900000Y-142648412D01*
X84900000Y-145900000D02*
X86900000Y-145900000D01*
X83900000Y-142648412D02*
X84870892Y-142648412D01*
X83900000Y-142648412D02*
X83900000Y-144018796D01*
D10*
%TO.C,U303*%
X78029972Y-141359931D02*
G75*
G02*
X77969978Y-141359931I-29997J0D01*
G01*
X77969978Y-141359931D02*
G75*
G02*
X78029972Y-141359931I29997J0D01*
G01*
D13*
X77472619Y-141259931D02*
G75*
G02*
X77167311Y-141259931I-152654J0D01*
G01*
X77167311Y-141259931D02*
G75*
G02*
X77472619Y-141259931I152654J0D01*
G01*
X77999975Y-141848348D02*
X77999975Y-143218732D01*
X77033147Y-141848348D02*
X77999975Y-141848348D01*
X74999975Y-145099936D02*
X76999975Y-145099936D01*
X73999975Y-141848348D02*
X74970867Y-141848348D01*
X73999975Y-141848348D02*
X73999975Y-143218732D01*
D14*
%TO.C,U204*%
X86611252Y-118324411D02*
X83782825Y-121152838D01*
X80954398Y-118324411D01*
X83782825Y-115495984D01*
X86611252Y-118324411D01*
D15*
%TO.C,kibuzzard-672F708E*%
G36*
X79038984Y-122862732D02*
G01*
X79099356Y-122906939D01*
X79140558Y-122972318D01*
X79154292Y-123050572D01*
X79140701Y-123129399D01*
X79099928Y-123194206D01*
X79039413Y-123237554D01*
X78966595Y-123252003D01*
X78896066Y-123237124D01*
X78835551Y-123192489D01*
X78793920Y-123127253D01*
X78780043Y-123050572D01*
X78793777Y-122972318D01*
X78834979Y-122906938D01*
X78895637Y-122862732D01*
X78967740Y-122847997D01*
X79038984Y-122862732D01*
G37*
G36*
X80804064Y-122545621D02*
G01*
X80853263Y-122552919D01*
X80901509Y-122565004D01*
X80948339Y-122581760D01*
X80993300Y-122603025D01*
X81035961Y-122628595D01*
X81075910Y-122658223D01*
X81112763Y-122691625D01*
X81146164Y-122728477D01*
X81175792Y-122768426D01*
X81201362Y-122811087D01*
X81222627Y-122856048D01*
X81239383Y-122902879D01*
X81251468Y-122951123D01*
X81258766Y-123000323D01*
X81261206Y-123050000D01*
X81258766Y-123099677D01*
X81251468Y-123148876D01*
X81239383Y-123197121D01*
X81222627Y-123243951D01*
X81201362Y-123288913D01*
X81175793Y-123331574D01*
X81146164Y-123371523D01*
X81112763Y-123408375D01*
X81075910Y-123441777D01*
X81035961Y-123471405D01*
X80993300Y-123496975D01*
X80948339Y-123518240D01*
X80901509Y-123534996D01*
X80853263Y-123547081D01*
X80804064Y-123554379D01*
X80754387Y-123556819D01*
X80754292Y-123556819D01*
X80228970Y-123556819D01*
X79527396Y-123556819D01*
X78972318Y-123556820D01*
X77897640Y-123556819D01*
X76722246Y-123556819D01*
X76449857Y-123556819D01*
X76345708Y-123556819D01*
X76345613Y-123556819D01*
X76295936Y-123554379D01*
X76246737Y-123547081D01*
X76198491Y-123534996D01*
X76151661Y-123518240D01*
X76106700Y-123496975D01*
X76064039Y-123471405D01*
X76024090Y-123441777D01*
X75987237Y-123408375D01*
X75953836Y-123371523D01*
X75924208Y-123331574D01*
X75898638Y-123288913D01*
X75877373Y-123243952D01*
X75860617Y-123197121D01*
X75848532Y-123148877D01*
X75841234Y-123099677D01*
X75838794Y-123050000D01*
X75841234Y-123000323D01*
X75848532Y-122951124D01*
X75860617Y-122902879D01*
X75877373Y-122856049D01*
X75898638Y-122811087D01*
X75924207Y-122768426D01*
X75936494Y-122751860D01*
X76345708Y-122751860D01*
X76345708Y-123343562D01*
X76347425Y-123383047D01*
X76358298Y-123414521D01*
X76390343Y-123440844D01*
X76449857Y-123448856D01*
X76510515Y-123440844D01*
X76542561Y-123415093D01*
X76553434Y-123384192D01*
X76555150Y-123344707D01*
X76555150Y-122753004D01*
X76555100Y-122751860D01*
X76619242Y-122751860D01*
X76619242Y-123342418D01*
X76621531Y-123382475D01*
X76632403Y-123413948D01*
X76663305Y-123439700D01*
X76722246Y-123447711D01*
X76782904Y-123439700D01*
X76814950Y-123413948D01*
X76825823Y-123383047D01*
X76827539Y-123344707D01*
X76827540Y-123018526D01*
X76960300Y-123199356D01*
X76998069Y-123234549D01*
X77049571Y-123246280D01*
X77081044Y-123242847D01*
X77105079Y-123232546D01*
X77119957Y-123221102D01*
X77130830Y-123208512D01*
X77137697Y-123199356D01*
X77271603Y-123017382D01*
X77271602Y-123342418D01*
X77273319Y-123381903D01*
X77284192Y-123413376D01*
X77316238Y-123439700D01*
X77375751Y-123447711D01*
X77435837Y-123439700D01*
X77467310Y-123414521D01*
X77478755Y-123383619D01*
X77481044Y-123344707D01*
X77481044Y-122754149D01*
X77480913Y-122751860D01*
X77545136Y-122751860D01*
X77545137Y-123072318D01*
X77550858Y-123141559D01*
X77568026Y-123209657D01*
X77595923Y-123274607D01*
X77633834Y-123334406D01*
X77683190Y-123386052D01*
X77745422Y-123426538D01*
X77817811Y-123452718D01*
X77897640Y-123461445D01*
X77977611Y-123452861D01*
X78050429Y-123427110D01*
X78113233Y-123387196D01*
X78163162Y-123336123D01*
X78201645Y-123276753D01*
X78230114Y-123211946D01*
X78247711Y-123143848D01*
X78253577Y-123074607D01*
X78253577Y-123055150D01*
X78570601Y-123055150D01*
X78577969Y-123136195D01*
X78600072Y-123211087D01*
X78636910Y-123279828D01*
X78688484Y-123342418D01*
X78750429Y-123394493D01*
X78818383Y-123431688D01*
X78892345Y-123454006D01*
X78972318Y-123461445D01*
X79050107Y-123453898D01*
X79122103Y-123431259D01*
X79188305Y-123393526D01*
X79248712Y-123340701D01*
X79299035Y-123277289D01*
X79334979Y-123207797D01*
X79356545Y-123132225D01*
X79363734Y-123050572D01*
X79356438Y-122967489D01*
X79334549Y-122891059D01*
X79298069Y-122821280D01*
X79246995Y-122758155D01*
X79239594Y-122751860D01*
X79423248Y-122751860D01*
X79423248Y-123343562D01*
X79424964Y-123383047D01*
X79435837Y-123414521D01*
X79467883Y-123440844D01*
X79527396Y-123448856D01*
X79588054Y-123440844D01*
X79620100Y-123415093D01*
X79630973Y-123384192D01*
X79632690Y-123344707D01*
X79632690Y-123343562D01*
X80124821Y-123343562D01*
X80126538Y-123383047D01*
X80137411Y-123414521D01*
X80169456Y-123440844D01*
X80228970Y-123448856D01*
X80289628Y-123440844D01*
X80321674Y-123415093D01*
X80332547Y-123384192D01*
X80334263Y-123344707D01*
X80334263Y-123137554D01*
X80543705Y-123137553D01*
X80580901Y-123135837D01*
X80608941Y-123126681D01*
X80631259Y-123100358D01*
X80637554Y-123050572D01*
X80631259Y-122997926D01*
X80609514Y-122970458D01*
X80582046Y-122960730D01*
X80544850Y-122959013D01*
X80334263Y-122959013D01*
X80334263Y-122857153D01*
X80648999Y-122857153D01*
X80688484Y-122855436D01*
X80719957Y-122844564D01*
X80746280Y-122813090D01*
X80754292Y-122753004D01*
X80746280Y-122692346D01*
X80720529Y-122660300D01*
X80689628Y-122649428D01*
X80651288Y-122647711D01*
X80232404Y-122647711D01*
X80148283Y-122670029D01*
X80124822Y-122751860D01*
X80124821Y-123343562D01*
X79632690Y-123343562D01*
X79632690Y-123137553D01*
X79842132Y-123137554D01*
X79879328Y-123135837D01*
X79907368Y-123126681D01*
X79929685Y-123100358D01*
X79935980Y-123050572D01*
X79929685Y-122997926D01*
X79907940Y-122970458D01*
X79880472Y-122960730D01*
X79843276Y-122959013D01*
X79632690Y-122959013D01*
X79632690Y-122857153D01*
X79947425Y-122857153D01*
X79986910Y-122855436D01*
X80018383Y-122844564D01*
X80044707Y-122813090D01*
X80052718Y-122753004D01*
X80044707Y-122692346D01*
X80018956Y-122660300D01*
X79988054Y-122649428D01*
X79949714Y-122647711D01*
X79530830Y-122647711D01*
X79446710Y-122670029D01*
X79423248Y-122751860D01*
X79239594Y-122751860D01*
X79185479Y-122705830D01*
X79117668Y-122668455D01*
X79043562Y-122646030D01*
X78963162Y-122638555D01*
X78884406Y-122646137D01*
X78811803Y-122668884D01*
X78745351Y-122706795D01*
X78685050Y-122759871D01*
X78634979Y-122823820D01*
X78599213Y-122894349D01*
X78577754Y-122971459D01*
X78570601Y-123055150D01*
X78253577Y-123055150D01*
X78253577Y-122753004D01*
X78251860Y-122713519D01*
X78240987Y-122681474D01*
X78208941Y-122654578D01*
X78149428Y-122646567D01*
X78089914Y-122654578D01*
X78057868Y-122679185D01*
X78046423Y-122708941D01*
X78044134Y-122746137D01*
X78044135Y-123071173D01*
X78034405Y-123144421D01*
X78005222Y-123201645D01*
X77959728Y-123238556D01*
X77901073Y-123250858D01*
X77852146Y-123243276D01*
X77812947Y-123220529D01*
X77767167Y-123153004D01*
X77755722Y-123072318D01*
X77755722Y-122753004D01*
X77753434Y-122712375D01*
X77741989Y-122680329D01*
X77710515Y-122654578D01*
X77650429Y-122646568D01*
X77589771Y-122654578D01*
X77557725Y-122680901D01*
X77546853Y-122712375D01*
X77545136Y-122751860D01*
X77480913Y-122751860D01*
X77478755Y-122714092D01*
X77467883Y-122682618D01*
X77436409Y-122656867D01*
X77376896Y-122648856D01*
X77316238Y-122655722D01*
X77281903Y-122682046D01*
X77049571Y-122980758D01*
X76816094Y-122680901D01*
X76808655Y-122672890D01*
X76800072Y-122664307D01*
X76790343Y-122658584D01*
X76775465Y-122653433D01*
X76754864Y-122650572D01*
X76724535Y-122648856D01*
X76663877Y-122656867D01*
X76631831Y-122682619D01*
X76620959Y-122713519D01*
X76619242Y-122751860D01*
X76555100Y-122751860D01*
X76553434Y-122713519D01*
X76542561Y-122682046D01*
X76510515Y-122655722D01*
X76451001Y-122647711D01*
X76390343Y-122655722D01*
X76358298Y-122682046D01*
X76347425Y-122713519D01*
X76345708Y-122751860D01*
X75936494Y-122751860D01*
X75953836Y-122728477D01*
X75987237Y-122691625D01*
X76024090Y-122658223D01*
X76064039Y-122628595D01*
X76106700Y-122603025D01*
X76151661Y-122581760D01*
X76198491Y-122565004D01*
X76246737Y-122552919D01*
X76295936Y-122545621D01*
X76345613Y-122543181D01*
X76345708Y-122543181D01*
X80754292Y-122543181D01*
X80754387Y-122543181D01*
X80804064Y-122545621D01*
G37*
%TO.C,kibuzzard-672F7060*%
G36*
X103942060Y-113935193D02*
G01*
X103971245Y-113960944D01*
X103980687Y-113987554D01*
X103982404Y-114011588D01*
X103982403Y-114257082D01*
X103409013Y-114257082D01*
X103409014Y-114049356D01*
X103422747Y-113978112D01*
X103475966Y-113960086D01*
X103529185Y-113972103D01*
X103541201Y-114013305D01*
X103541202Y-114033906D01*
X103569528Y-114138627D01*
X103668240Y-114169528D01*
X103770385Y-114140343D01*
X103800429Y-114042489D01*
X103800429Y-114020172D01*
X103816738Y-113948069D01*
X103887983Y-113925752D01*
X103942060Y-113935193D01*
G37*
G36*
X103819099Y-111460300D02*
G01*
X103916309Y-111521459D01*
X103981330Y-111612232D01*
X104003004Y-111721459D01*
X103980687Y-111827253D01*
X103913734Y-111918026D01*
X103815880Y-111980472D01*
X103700858Y-112001288D01*
X103583476Y-111980688D01*
X103485408Y-111918884D01*
X103419099Y-111827897D01*
X103396996Y-111719742D01*
X103419099Y-111612876D01*
X103485408Y-111522318D01*
X103583477Y-111460515D01*
X103700858Y-111439914D01*
X103819099Y-111460300D01*
G37*
G36*
X103819099Y-112698069D02*
G01*
X103916309Y-112759227D01*
X103981330Y-112850000D01*
X104003004Y-112959227D01*
X103980687Y-113065021D01*
X103913734Y-113155794D01*
X103815880Y-113218240D01*
X103700858Y-113239056D01*
X103583476Y-113218455D01*
X103485408Y-113156652D01*
X103419099Y-113065665D01*
X103396996Y-112957511D01*
X103419099Y-112850644D01*
X103485408Y-112760085D01*
X103583476Y-112698284D01*
X103700858Y-112677682D01*
X103819099Y-112698069D01*
G37*
G36*
X104460229Y-111712877D02*
G01*
X104460229Y-112950644D01*
X104460229Y-114415021D01*
X104460229Y-114571245D01*
X104460229Y-114571388D01*
X104456567Y-114645903D01*
X104445621Y-114719701D01*
X104427494Y-114792071D01*
X104402360Y-114862315D01*
X104370462Y-114929757D01*
X104332108Y-114993748D01*
X104287665Y-115053672D01*
X104237563Y-115108951D01*
X104182284Y-115159053D01*
X104122361Y-115203495D01*
X104058369Y-115241850D01*
X103990927Y-115273748D01*
X103920683Y-115298882D01*
X103848314Y-115317009D01*
X103774515Y-115327956D01*
X103700000Y-115331617D01*
X103625485Y-115327956D01*
X103551686Y-115317009D01*
X103479317Y-115298882D01*
X103409073Y-115273748D01*
X103341631Y-115241850D01*
X103277639Y-115203495D01*
X103217716Y-115159053D01*
X103162437Y-115108951D01*
X103112335Y-115053672D01*
X103067892Y-114993748D01*
X103029538Y-114929757D01*
X102997640Y-114862315D01*
X102972506Y-114792071D01*
X102954379Y-114719701D01*
X102943433Y-114645903D01*
X102939771Y-114571388D01*
X102939771Y-114571245D01*
X102939771Y-114011588D01*
X103094850Y-114011588D01*
X103094850Y-114413305D01*
X103106867Y-114504292D01*
X103146352Y-114552361D01*
X103193562Y-114568670D01*
X103251073Y-114571245D01*
X104136910Y-114571245D01*
X104196996Y-114568670D01*
X104245064Y-114552361D01*
X104284549Y-114504292D01*
X104296567Y-114415021D01*
X104296567Y-113994421D01*
X104283978Y-113895136D01*
X104246209Y-113805579D01*
X104183262Y-113725751D01*
X104102194Y-113663090D01*
X104010062Y-113625036D01*
X103906867Y-113611588D01*
X103775107Y-113634335D01*
X103654506Y-113702575D01*
X103562661Y-113660086D01*
X103462232Y-113645923D01*
X103367144Y-113657749D01*
X103281021Y-113693228D01*
X103203863Y-113752361D01*
X103143300Y-113828469D01*
X103106962Y-113914878D01*
X103094850Y-114011588D01*
X102939771Y-114011588D01*
X102939771Y-112964378D01*
X103082833Y-112964378D01*
X103094206Y-113082511D01*
X103128326Y-113191416D01*
X103185193Y-113291094D01*
X103264807Y-113381545D01*
X103360729Y-113456652D01*
X103466524Y-113510300D01*
X103582189Y-113542488D01*
X103707725Y-113553219D01*
X103829292Y-113542167D01*
X103941631Y-113509013D01*
X104044741Y-113453755D01*
X104138627Y-113376395D01*
X104216737Y-113283476D01*
X104272532Y-113181545D01*
X104306009Y-113070601D01*
X104317167Y-112950644D01*
X104305848Y-112833959D01*
X104271887Y-112725966D01*
X104215290Y-112626664D01*
X104136052Y-112536052D01*
X104040933Y-112460568D01*
X103936695Y-112406652D01*
X103823337Y-112374303D01*
X103700858Y-112363519D01*
X103576234Y-112374464D01*
X103461588Y-112407296D01*
X103356921Y-112462017D01*
X103262232Y-112538627D01*
X103183745Y-112630901D01*
X103127682Y-112732618D01*
X103094046Y-112843777D01*
X103082833Y-112964378D01*
X102939771Y-112964378D01*
X102939771Y-111726609D01*
X103082833Y-111726609D01*
X103094206Y-111844742D01*
X103128326Y-111953648D01*
X103185193Y-112053327D01*
X103264807Y-112143777D01*
X103360730Y-112218884D01*
X103466524Y-112272532D01*
X103582189Y-112304721D01*
X103707725Y-112315451D01*
X103829292Y-112304399D01*
X103941631Y-112271245D01*
X104044742Y-112215987D01*
X104138627Y-112138627D01*
X104216738Y-112045707D01*
X104272532Y-111943777D01*
X104306009Y-111832833D01*
X104317167Y-111712877D01*
X104305848Y-111596191D01*
X104271887Y-111488197D01*
X104215291Y-111388895D01*
X104136052Y-111298283D01*
X104040933Y-111222801D01*
X103936695Y-111168884D01*
X103823337Y-111136534D01*
X103700858Y-111125751D01*
X103576234Y-111136695D01*
X103461588Y-111169528D01*
X103356921Y-111224249D01*
X103262232Y-111300858D01*
X103183745Y-111393133D01*
X103127682Y-111494850D01*
X103094045Y-111606009D01*
X103082833Y-111726609D01*
X102939771Y-111726609D01*
X102939771Y-110159227D01*
X103094850Y-110159227D01*
X103094850Y-110943777D01*
X103097425Y-110992704D01*
X103111159Y-111032189D01*
X103150644Y-111065665D01*
X103225322Y-111075966D01*
X103302575Y-111065665D01*
X103342918Y-111033047D01*
X103356652Y-110994421D01*
X103359227Y-110945495D01*
X103359227Y-110706867D01*
X104143777Y-110706867D01*
X104201288Y-110704292D01*
X104247639Y-110688841D01*
X104286266Y-110642489D01*
X104298283Y-110554077D01*
X104286266Y-110464807D01*
X104248498Y-110416738D01*
X104203004Y-110400429D01*
X104145494Y-110397854D01*
X103359227Y-110397854D01*
X103359227Y-110160944D01*
X103356652Y-110112017D01*
X103342918Y-110072532D01*
X103302575Y-110039056D01*
X103227039Y-110028755D01*
X103151502Y-110039056D01*
X103111159Y-110071674D01*
X103097425Y-110110300D01*
X103094850Y-110159227D01*
X102939771Y-110159227D01*
X102939771Y-110028755D01*
X102939771Y-110028612D01*
X102943433Y-109954097D01*
X102954379Y-109880299D01*
X102972506Y-109807929D01*
X102997640Y-109737685D01*
X103029538Y-109670243D01*
X103067892Y-109606252D01*
X103112335Y-109546328D01*
X103162437Y-109491049D01*
X103217716Y-109440947D01*
X103277639Y-109396505D01*
X103341631Y-109358150D01*
X103409073Y-109326252D01*
X103479317Y-109301118D01*
X103551686Y-109282991D01*
X103625485Y-109272044D01*
X103700000Y-109268383D01*
X103774515Y-109272044D01*
X103848314Y-109282991D01*
X103920683Y-109301118D01*
X103990927Y-109326252D01*
X104058369Y-109358150D01*
X104122361Y-109396505D01*
X104182284Y-109440947D01*
X104237563Y-109491049D01*
X104287665Y-109546328D01*
X104332108Y-109606252D01*
X104370462Y-109670243D01*
X104402360Y-109737685D01*
X104427494Y-109807929D01*
X104445621Y-109880299D01*
X104456567Y-109954097D01*
X104460229Y-110028612D01*
X104460229Y-110028755D01*
X104460229Y-110554077D01*
X104460229Y-111712877D01*
G37*
%TO.C,kibuzzard-672F7049*%
G36*
X88762661Y-113850215D02*
G01*
X88799571Y-113939485D01*
X88760086Y-114033906D01*
X88677682Y-114064807D01*
X88488841Y-114064807D01*
X88488841Y-113814163D01*
X88674249Y-113814163D01*
X88762661Y-113850215D01*
G37*
G36*
X93300149Y-113341723D02*
G01*
X93374113Y-113352695D01*
X93446646Y-113370863D01*
X93517049Y-113396054D01*
X93584644Y-113428024D01*
X93648779Y-113466465D01*
X93708838Y-113511008D01*
X93764242Y-113561223D01*
X93814457Y-113616627D01*
X93859000Y-113676686D01*
X93897441Y-113740821D01*
X93929411Y-113808416D01*
X93954601Y-113878819D01*
X93972770Y-113951352D01*
X93983742Y-114025316D01*
X93987411Y-114100000D01*
X93983742Y-114174684D01*
X93972770Y-114248648D01*
X93954601Y-114321181D01*
X93929411Y-114391584D01*
X93897441Y-114459179D01*
X93859000Y-114523314D01*
X93814457Y-114583373D01*
X93764242Y-114638777D01*
X93708838Y-114688992D01*
X93648779Y-114733535D01*
X93584644Y-114771976D01*
X93517049Y-114803946D01*
X93446646Y-114829137D01*
X93374113Y-114847305D01*
X93300149Y-114858277D01*
X93225465Y-114861946D01*
X93225322Y-114861946D01*
X92700000Y-114861946D01*
X91338627Y-114861946D01*
X90651931Y-114861946D01*
X89372961Y-114861946D01*
X88928326Y-114861946D01*
X88174678Y-114861946D01*
X88174535Y-114861946D01*
X88099851Y-114858277D01*
X88025887Y-114847305D01*
X87953354Y-114829137D01*
X87882951Y-114803946D01*
X87815356Y-114771976D01*
X87751221Y-114733535D01*
X87691162Y-114688992D01*
X87635758Y-114638777D01*
X87585543Y-114583373D01*
X87541000Y-114523314D01*
X87502559Y-114459179D01*
X87470589Y-114391584D01*
X87445399Y-114321181D01*
X87427230Y-114248648D01*
X87416258Y-114174684D01*
X87412589Y-114100000D01*
X87416258Y-114025316D01*
X87427230Y-113951352D01*
X87445399Y-113878819D01*
X87470589Y-113808416D01*
X87502559Y-113740821D01*
X87541000Y-113676686D01*
X87556176Y-113656223D01*
X88174678Y-113656223D01*
X88174678Y-114542060D01*
X88177253Y-114601288D01*
X88193562Y-114648498D01*
X88241631Y-114687983D01*
X88330901Y-114700000D01*
X88421888Y-114687983D01*
X88469957Y-114649356D01*
X88486266Y-114603004D01*
X88488841Y-114543777D01*
X88488841Y-114377253D01*
X88648498Y-114377253D01*
X88832189Y-114626180D01*
X88928326Y-114706009D01*
X89050215Y-114658798D01*
X89132618Y-114557511D01*
X89086266Y-114439056D01*
X88962661Y-114274249D01*
X89046590Y-114180782D01*
X89096948Y-114069766D01*
X89113734Y-113941202D01*
X89103004Y-113839270D01*
X89070815Y-113746352D01*
X89021674Y-113667167D01*
X89010575Y-113656223D01*
X89216738Y-113656223D01*
X89216738Y-114543777D01*
X89219313Y-114603004D01*
X89235622Y-114650215D01*
X89283691Y-114689700D01*
X89372961Y-114701717D01*
X90004721Y-114701717D01*
X90063949Y-114699142D01*
X90111159Y-114682833D01*
X90150644Y-114634764D01*
X90162661Y-114545494D01*
X90150644Y-114454506D01*
X90123054Y-114420172D01*
X90212446Y-114420172D01*
X90255365Y-114531760D01*
X90265665Y-114543777D01*
X90284549Y-114567811D01*
X90314592Y-114597854D01*
X90355794Y-114631330D01*
X90409013Y-114663948D01*
X90475107Y-114692275D01*
X90555794Y-114711159D01*
X90651931Y-114718884D01*
X90766094Y-114706009D01*
X90883691Y-114662232D01*
X90989270Y-114585837D01*
X91063949Y-114469957D01*
X91085837Y-114395708D01*
X91093133Y-114313734D01*
X91077039Y-114185408D01*
X91028755Y-114092275D01*
X90953433Y-114027039D01*
X90856223Y-113982403D01*
X90746352Y-113955794D01*
X90641631Y-113934335D01*
X90573820Y-113904292D01*
X90543777Y-113848498D01*
X90571245Y-113796137D01*
X90634764Y-113774678D01*
X90691416Y-113780687D01*
X90724893Y-113793562D01*
X90748927Y-113813305D01*
X90768670Y-113829614D01*
X90883691Y-113861373D01*
X90984979Y-113778112D01*
X91026180Y-113672532D01*
X91014780Y-113656223D01*
X91182403Y-113656223D01*
X91182403Y-114543777D01*
X91184979Y-114603004D01*
X91201288Y-114650215D01*
X91249356Y-114689700D01*
X91338627Y-114701717D01*
X91970386Y-114701717D01*
X92029614Y-114699142D01*
X92076824Y-114682833D01*
X92116309Y-114634764D01*
X92128326Y-114545494D01*
X92116309Y-114454506D01*
X92077682Y-114406438D01*
X92031330Y-114390129D01*
X91972103Y-114387554D01*
X91496567Y-114387554D01*
X91496567Y-114234764D01*
X91810730Y-114234764D01*
X91867382Y-114232189D01*
X91910300Y-114218455D01*
X91943777Y-114178970D01*
X91953219Y-114102575D01*
X91943777Y-114024464D01*
X91911159Y-113983262D01*
X91869957Y-113969528D01*
X91814163Y-113966953D01*
X91496567Y-113966953D01*
X91496567Y-113814163D01*
X91970386Y-113814163D01*
X92029614Y-113811588D01*
X92076824Y-113795279D01*
X92116309Y-113747210D01*
X92128326Y-113657940D01*
X92124471Y-113628755D01*
X92178112Y-113628755D01*
X92188412Y-113706009D01*
X92221030Y-113746352D01*
X92259657Y-113760086D01*
X92308584Y-113762661D01*
X92547210Y-113762661D01*
X92547210Y-114547210D01*
X92549785Y-114604721D01*
X92565236Y-114651073D01*
X92611588Y-114689700D01*
X92700000Y-114701717D01*
X92789270Y-114689700D01*
X92837339Y-114651931D01*
X92853648Y-114606438D01*
X92856223Y-114548927D01*
X92856223Y-113762661D01*
X93093133Y-113762661D01*
X93142060Y-113760086D01*
X93181545Y-113746352D01*
X93215021Y-113706009D01*
X93225322Y-113630472D01*
X93215021Y-113554936D01*
X93182403Y-113514592D01*
X93143777Y-113500858D01*
X93094850Y-113498283D01*
X92310300Y-113498283D01*
X92261373Y-113500858D01*
X92221888Y-113514592D01*
X92188412Y-113554077D01*
X92178112Y-113628755D01*
X92124471Y-113628755D01*
X92116309Y-113566953D01*
X92077682Y-113518884D01*
X92031330Y-113502575D01*
X91972103Y-113500000D01*
X91343777Y-113500000D01*
X91217597Y-113533476D01*
X91182403Y-113656223D01*
X91014780Y-113656223D01*
X90964378Y-113584120D01*
X90875298Y-113526896D01*
X90765999Y-113492561D01*
X90636481Y-113481116D01*
X90526419Y-113492656D01*
X90429709Y-113527277D01*
X90346352Y-113584979D01*
X90282451Y-113660229D01*
X90244111Y-113747496D01*
X90231330Y-113846781D01*
X90245064Y-113958369D01*
X90286266Y-114051073D01*
X90354936Y-114124893D01*
X90451073Y-114179828D01*
X90516094Y-114203219D01*
X90597854Y-114225322D01*
X90732618Y-114265665D01*
X90777253Y-114318884D01*
X90746352Y-114398712D01*
X90645064Y-114423605D01*
X90577253Y-114407296D01*
X90507725Y-114344635D01*
X90430281Y-114282070D01*
X90355889Y-114270625D01*
X90284549Y-114310300D01*
X90212446Y-114420172D01*
X90123054Y-114420172D01*
X90112017Y-114406438D01*
X90065665Y-114390129D01*
X90006438Y-114387554D01*
X89530901Y-114387554D01*
X89530901Y-114234764D01*
X89845064Y-114234764D01*
X89901717Y-114232189D01*
X89944635Y-114218455D01*
X89978112Y-114178970D01*
X89987554Y-114102575D01*
X89978112Y-114024464D01*
X89945494Y-113983262D01*
X89904292Y-113969528D01*
X89848498Y-113966953D01*
X89530901Y-113966953D01*
X89530901Y-113814163D01*
X90004721Y-113814163D01*
X90063949Y-113811588D01*
X90111159Y-113795279D01*
X90150644Y-113747210D01*
X90162661Y-113657940D01*
X90150644Y-113566953D01*
X90112017Y-113518884D01*
X90065665Y-113502575D01*
X90006438Y-113500000D01*
X89378112Y-113500000D01*
X89251931Y-113533476D01*
X89216738Y-113656223D01*
X89010575Y-113656223D01*
X88960086Y-113606438D01*
X88890987Y-113560944D01*
X88819313Y-113527468D01*
X88747425Y-113506867D01*
X88677682Y-113500000D01*
X88332618Y-113500000D01*
X88241631Y-113512017D01*
X88193562Y-113551502D01*
X88177253Y-113598712D01*
X88174678Y-113656223D01*
X87556176Y-113656223D01*
X87585543Y-113616627D01*
X87635758Y-113561223D01*
X87691162Y-113511008D01*
X87751221Y-113466465D01*
X87815356Y-113428024D01*
X87882951Y-113396054D01*
X87953354Y-113370863D01*
X88025887Y-113352695D01*
X88099851Y-113341723D01*
X88174535Y-113338054D01*
X88174678Y-113338054D01*
X93225322Y-113338054D01*
X93225465Y-113338054D01*
X93300149Y-113341723D01*
G37*
%TO.C,kibuzzard-672F6FFE*%
G36*
X86348519Y-133076451D02*
G01*
X86357196Y-133144126D01*
X86319921Y-133189435D01*
X86210893Y-133252382D01*
X86127346Y-133107672D01*
X86234391Y-133045870D01*
X86297453Y-133037213D01*
X86348519Y-133076451D01*
G37*
G36*
X88503300Y-131832388D02*
G01*
X88511976Y-131900064D01*
X88474702Y-131945373D01*
X88365674Y-132008319D01*
X88282125Y-131863609D01*
X88389171Y-131801807D01*
X88452233Y-131793150D01*
X88503300Y-131832388D01*
G37*
G36*
X85695488Y-133421761D02*
G01*
X85762815Y-133454255D01*
X85811580Y-133510679D01*
X85835989Y-133580999D01*
X85830251Y-133655180D01*
X85797792Y-133721992D01*
X85742040Y-133770204D01*
X85661756Y-133816556D01*
X85471197Y-133486499D01*
X85550491Y-133440720D01*
X85620935Y-133416238D01*
X85695488Y-133421761D01*
G37*
G36*
X86235621Y-134203935D02*
G01*
X86303992Y-134239954D01*
X86355012Y-134300858D01*
X86382656Y-134375919D01*
X86379749Y-134452431D01*
X86349016Y-134520229D01*
X86293178Y-134569151D01*
X86224658Y-134591531D01*
X86149933Y-134583133D01*
X86081261Y-134547452D01*
X86030902Y-134487982D01*
X86003670Y-134413345D01*
X86006662Y-134336125D01*
X86037090Y-134267512D01*
X86092166Y-134218699D01*
X86161233Y-134195838D01*
X86235621Y-134203935D01*
G37*
G36*
X89055562Y-131238690D02*
G01*
X89103815Y-131243044D01*
X89151798Y-131249760D01*
X89199393Y-131258824D01*
X89246487Y-131270212D01*
X89292965Y-131283896D01*
X89338715Y-131299845D01*
X89383628Y-131318020D01*
X89427594Y-131338375D01*
X89470509Y-131360865D01*
X89512269Y-131385432D01*
X89552773Y-131412019D01*
X89591924Y-131440562D01*
X89629626Y-131470991D01*
X89665791Y-131503234D01*
X89700330Y-131537211D01*
X89733159Y-131572844D01*
X89764201Y-131610045D01*
X89793381Y-131648723D01*
X89820627Y-131688786D01*
X89845874Y-131730138D01*
X89869063Y-131772680D01*
X89890136Y-131816307D01*
X89909042Y-131860917D01*
X89925738Y-131906400D01*
X89940181Y-131952648D01*
X89952338Y-131999548D01*
X89962179Y-132046988D01*
X89969680Y-132094855D01*
X89974823Y-132143031D01*
X89977596Y-132191403D01*
X89977992Y-132239852D01*
X89976012Y-132288262D01*
X89971656Y-132336515D01*
X89964940Y-132384499D01*
X89955876Y-132432093D01*
X89944489Y-132479187D01*
X89930805Y-132525665D01*
X89914856Y-132571415D01*
X89896681Y-132616328D01*
X89876325Y-132660294D01*
X89853835Y-132703209D01*
X89829268Y-132744969D01*
X89802681Y-132785473D01*
X89774139Y-132824624D01*
X89743710Y-132862326D01*
X89711467Y-132898491D01*
X89677489Y-132933029D01*
X89641857Y-132965859D01*
X89604656Y-132996901D01*
X89565978Y-133026081D01*
X89525915Y-133053327D01*
X89484562Y-133078575D01*
X89484480Y-133078622D01*
X89362567Y-133149009D01*
X88422949Y-133691498D01*
X87538834Y-134201941D01*
X86931253Y-134552729D01*
X86450541Y-134830268D01*
X86102644Y-135031126D01*
X86102562Y-135031174D01*
X86060020Y-135054362D01*
X86016393Y-135075435D01*
X85971783Y-135094341D01*
X85926300Y-135111038D01*
X85880053Y-135125481D01*
X85833152Y-135137637D01*
X85785712Y-135147478D01*
X85737845Y-135154979D01*
X85689669Y-135160122D01*
X85641298Y-135162895D01*
X85592849Y-135163292D01*
X85544438Y-135161310D01*
X85496185Y-135156956D01*
X85448202Y-135150240D01*
X85400607Y-135141176D01*
X85353513Y-135129788D01*
X85307035Y-135116104D01*
X85261285Y-135100155D01*
X85216372Y-135081980D01*
X85172406Y-135061625D01*
X85129491Y-135039135D01*
X85087731Y-135014568D01*
X85047227Y-134987981D01*
X85008076Y-134959438D01*
X84970374Y-134929009D01*
X84934209Y-134896766D01*
X84899670Y-134862789D01*
X84866841Y-134827156D01*
X84835799Y-134789955D01*
X84806619Y-134751277D01*
X84779373Y-134711214D01*
X84754126Y-134669862D01*
X84730937Y-134627320D01*
X84709864Y-134583693D01*
X84690958Y-134539083D01*
X84674262Y-134493600D01*
X84659819Y-134447352D01*
X84647662Y-134400452D01*
X84640130Y-134364141D01*
X85791898Y-134364141D01*
X85796189Y-134443104D01*
X85816159Y-134520613D01*
X85851810Y-134596668D01*
X85898713Y-134663171D01*
X85955301Y-134716978D01*
X86021574Y-134758091D01*
X86097534Y-134786509D01*
X86177217Y-134800633D01*
X86254665Y-134798868D01*
X86329877Y-134781214D01*
X86402853Y-134747671D01*
X86466449Y-134702241D01*
X86517479Y-134646637D01*
X86555945Y-134580859D01*
X86581847Y-134504907D01*
X86593721Y-134424829D01*
X86590103Y-134346675D01*
X86570995Y-134270445D01*
X86536394Y-134196137D01*
X86488535Y-134127833D01*
X86431363Y-134072587D01*
X86364881Y-134030398D01*
X86289087Y-134001266D01*
X86209650Y-133986709D01*
X86132237Y-133988247D01*
X86056847Y-134005879D01*
X85983479Y-134039607D01*
X85919068Y-134085551D01*
X85867564Y-134141551D01*
X85828970Y-134207610D01*
X85805724Y-134276502D01*
X85803287Y-134283724D01*
X85791898Y-134364141D01*
X84640130Y-134364141D01*
X84637821Y-134353012D01*
X84630320Y-134305145D01*
X84625177Y-134256969D01*
X84622404Y-134208597D01*
X84622008Y-134160148D01*
X84623988Y-134111738D01*
X84628344Y-134063485D01*
X84635060Y-134015501D01*
X84644124Y-133967907D01*
X84655511Y-133920813D01*
X84669195Y-133874335D01*
X84685144Y-133828585D01*
X84703319Y-133783672D01*
X84723675Y-133739706D01*
X84746165Y-133696791D01*
X84770732Y-133655031D01*
X84797319Y-133614527D01*
X84825861Y-133575376D01*
X84856290Y-133537674D01*
X84888533Y-133501509D01*
X84922511Y-133466971D01*
X84958143Y-133434141D01*
X84960365Y-133432287D01*
X85212593Y-133432287D01*
X85218914Y-133464982D01*
X85236596Y-133499042D01*
X85532448Y-134011473D01*
X85555241Y-134045227D01*
X85581672Y-134066971D01*
X85621231Y-134072544D01*
X85675291Y-134050584D01*
X85843787Y-133953302D01*
X85909776Y-133906654D01*
X85963035Y-133850260D01*
X85978458Y-133825089D01*
X86417982Y-133825089D01*
X86438579Y-133907687D01*
X86734429Y-134420117D01*
X86755659Y-134453453D01*
X86780811Y-134475275D01*
X86821726Y-134482048D01*
X86877272Y-134459230D01*
X86925797Y-134421962D01*
X86940674Y-134383639D01*
X86934640Y-134351441D01*
X86916384Y-134316388D01*
X86812807Y-134136987D01*
X86994189Y-134032267D01*
X87025544Y-134012182D01*
X87045250Y-133990232D01*
X87051416Y-133956277D01*
X87031974Y-133910014D01*
X87000199Y-133867569D01*
X86967633Y-133854654D01*
X86938982Y-133859962D01*
X86905911Y-133877073D01*
X86723537Y-133982367D01*
X86672607Y-133894153D01*
X86945175Y-133736786D01*
X86978512Y-133715557D01*
X87000334Y-133690403D01*
X87007393Y-133649986D01*
X86984288Y-133593943D01*
X86947021Y-133545418D01*
X86908697Y-133530542D01*
X86876499Y-133536575D01*
X86842437Y-133554259D01*
X86753233Y-133605761D01*
X86479673Y-133763701D01*
X86417982Y-133825089D01*
X85978458Y-133825089D01*
X86003562Y-133784118D01*
X86031359Y-133708229D01*
X86044889Y-133628516D01*
X86042618Y-133550907D01*
X86024545Y-133475398D01*
X85990672Y-133401993D01*
X85945093Y-133337782D01*
X85889614Y-133285895D01*
X85824234Y-133246331D01*
X85748956Y-133219092D01*
X85669897Y-133205761D01*
X85593177Y-133207931D01*
X85518798Y-133225600D01*
X85446761Y-133258766D01*
X85276282Y-133357192D01*
X85227470Y-133393963D01*
X85212593Y-133432287D01*
X84960365Y-133432287D01*
X84995344Y-133403099D01*
X85034022Y-133373919D01*
X85074085Y-133346673D01*
X85115438Y-133321425D01*
X85115520Y-133321378D01*
X85577849Y-133054452D01*
X85869313Y-133054452D01*
X85875633Y-133087145D01*
X85893316Y-133121208D01*
X86188595Y-133632644D01*
X86209825Y-133665981D01*
X86234978Y-133687802D01*
X86275892Y-133694575D01*
X86331438Y-133671758D01*
X86379963Y-133634490D01*
X86394840Y-133596165D01*
X86388806Y-133563968D01*
X86370551Y-133528916D01*
X86315042Y-133432773D01*
X86407220Y-133379554D01*
X86596249Y-133462042D01*
X86678364Y-133476084D01*
X86679798Y-133474302D01*
X87025562Y-133474302D01*
X87040131Y-133532725D01*
X87046159Y-133556901D01*
X87342011Y-134069329D01*
X87363239Y-134102667D01*
X87388391Y-134124488D01*
X87429306Y-134131261D01*
X87484853Y-134108443D01*
X87533378Y-134071175D01*
X87548254Y-134032852D01*
X87542221Y-134000654D01*
X87523964Y-133965600D01*
X87420388Y-133786201D01*
X87601770Y-133681480D01*
X87633124Y-133661394D01*
X87652830Y-133639446D01*
X87658997Y-133605490D01*
X87639554Y-133559227D01*
X87607780Y-133516782D01*
X87575214Y-133503867D01*
X87546562Y-133509176D01*
X87513490Y-133526286D01*
X87331118Y-133631580D01*
X87280188Y-133543367D01*
X87552756Y-133385999D01*
X87586093Y-133364770D01*
X87607914Y-133339617D01*
X87614974Y-133299198D01*
X87591868Y-133243157D01*
X87554602Y-133194631D01*
X87516278Y-133179755D01*
X87484081Y-133185788D01*
X87482554Y-133186580D01*
X87450018Y-133203473D01*
X87087253Y-133412914D01*
X87025562Y-133474302D01*
X86679798Y-133474302D01*
X86732999Y-133408199D01*
X86746814Y-133322253D01*
X86680566Y-133269313D01*
X86554267Y-133215364D01*
X86571569Y-133133424D01*
X86563637Y-133052543D01*
X86530473Y-132972721D01*
X86490302Y-132917447D01*
X86440744Y-132874531D01*
X86385978Y-132845194D01*
X86330176Y-132830660D01*
X86275118Y-132827428D01*
X86222579Y-132831993D01*
X86174207Y-132844061D01*
X86131651Y-132863343D01*
X85932428Y-132978366D01*
X85883903Y-133015632D01*
X85869313Y-133054452D01*
X85577849Y-133054452D01*
X86169570Y-132712822D01*
X86461034Y-132712822D01*
X86467356Y-132745513D01*
X86485040Y-132779576D01*
X86780890Y-133292005D01*
X86802119Y-133325342D01*
X86827272Y-133347162D01*
X86868187Y-133353937D01*
X86923732Y-133331117D01*
X86972258Y-133293850D01*
X86987135Y-133255527D01*
X86981100Y-133223329D01*
X86962844Y-133188275D01*
X86666994Y-132675845D01*
X86645763Y-132642509D01*
X86620612Y-132620689D01*
X86579698Y-132613914D01*
X86524152Y-132636734D01*
X86475624Y-132674001D01*
X86461034Y-132712822D01*
X86169570Y-132712822D01*
X86347620Y-132610025D01*
X86704319Y-132610025D01*
X86754001Y-132673187D01*
X87287047Y-133053959D01*
X87342205Y-133071672D01*
X87404863Y-133052015D01*
X87448182Y-133009164D01*
X87461491Y-132953244D01*
X87398255Y-132301227D01*
X87370168Y-132226257D01*
X87285709Y-132211585D01*
X87204067Y-132239560D01*
X87189814Y-132322455D01*
X87255814Y-132798431D01*
X86876607Y-132503286D01*
X86798395Y-132473113D01*
X86732643Y-132530898D01*
X86704319Y-132610025D01*
X86347620Y-132610025D01*
X87165378Y-132137892D01*
X87432805Y-132137892D01*
X87453401Y-132220491D01*
X87749253Y-132732921D01*
X87770481Y-132766258D01*
X87795634Y-132788078D01*
X87836549Y-132794852D01*
X87892095Y-132772033D01*
X88256841Y-132561447D01*
X88290179Y-132540217D01*
X88311998Y-132515065D01*
X88318771Y-132474150D01*
X88295953Y-132418604D01*
X88258686Y-132370079D01*
X88220362Y-132355203D01*
X88188164Y-132361236D01*
X88153111Y-132379492D01*
X87878560Y-132538004D01*
X87827630Y-132449791D01*
X88009012Y-132345070D01*
X88040863Y-132324700D01*
X88061063Y-132302464D01*
X88067230Y-132268507D01*
X88047216Y-132221255D01*
X88015727Y-132179304D01*
X87983162Y-132166389D01*
X87954796Y-132172193D01*
X87921725Y-132189305D01*
X87738361Y-132295171D01*
X87687431Y-132206957D01*
X87960991Y-132049017D01*
X87994327Y-132027788D01*
X88016147Y-132002635D01*
X88022921Y-131961722D01*
X88000103Y-131906175D01*
X87962835Y-131857650D01*
X87924511Y-131842773D01*
X87892314Y-131848808D01*
X87857261Y-131867062D01*
X87494496Y-132076505D01*
X87432805Y-132137892D01*
X87165378Y-132137892D01*
X87732630Y-131810389D01*
X88024093Y-131810389D01*
X88030413Y-131843081D01*
X88048097Y-131877144D01*
X88343376Y-132388582D01*
X88364605Y-132421918D01*
X88389757Y-132443739D01*
X88430671Y-132450514D01*
X88486219Y-132427694D01*
X88534744Y-132390427D01*
X88549621Y-132352104D01*
X88543586Y-132319906D01*
X88525331Y-132284852D01*
X88469822Y-132188710D01*
X88562000Y-132135491D01*
X88751029Y-132217980D01*
X88833144Y-132232021D01*
X88887780Y-132164135D01*
X88901593Y-132078189D01*
X88835346Y-132025250D01*
X88709048Y-131971301D01*
X88726349Y-131889360D01*
X88718417Y-131808479D01*
X88685254Y-131728658D01*
X88645082Y-131673384D01*
X88595525Y-131630467D01*
X88540759Y-131601131D01*
X88484956Y-131586598D01*
X88429898Y-131583365D01*
X88377359Y-131587929D01*
X88328987Y-131599998D01*
X88286432Y-131619281D01*
X88087209Y-131734302D01*
X88038683Y-131771569D01*
X88024093Y-131810389D01*
X87732630Y-131810389D01*
X88497356Y-131368874D01*
X88497438Y-131368826D01*
X88539980Y-131345638D01*
X88583607Y-131324565D01*
X88628217Y-131305659D01*
X88673700Y-131288962D01*
X88719947Y-131274519D01*
X88766848Y-131262363D01*
X88814288Y-131252522D01*
X88862155Y-131245021D01*
X88910331Y-131239878D01*
X88958702Y-131237105D01*
X89007151Y-131236708D01*
X89055562Y-131238690D01*
G37*
%TO.C,kibuzzard-672F6FBA*%
G36*
X69590987Y-144571245D02*
G01*
X69429614Y-144571245D01*
X69510300Y-144404721D01*
X69590987Y-144571245D01*
G37*
G36*
X68500000Y-144212446D02*
G01*
X68518026Y-144265665D01*
X68506009Y-144318884D01*
X68464807Y-144330901D01*
X68444206Y-144330901D01*
X68339485Y-144359227D01*
X68308584Y-144457940D01*
X68337768Y-144560086D01*
X68435622Y-144590129D01*
X68457940Y-144590129D01*
X68530043Y-144606438D01*
X68552361Y-144677682D01*
X68542918Y-144731760D01*
X68517167Y-144760944D01*
X68490558Y-144770386D01*
X68466524Y-144772103D01*
X68221030Y-144772103D01*
X68221030Y-144198712D01*
X68428755Y-144198712D01*
X68500000Y-144212446D01*
G37*
G36*
X72367623Y-143745140D02*
G01*
X72441254Y-143756062D01*
X72513461Y-143774149D01*
X72583546Y-143799226D01*
X72650836Y-143831052D01*
X72714683Y-143869320D01*
X72774471Y-143913662D01*
X72829625Y-143963651D01*
X72879614Y-144018805D01*
X72923956Y-144078593D01*
X72962224Y-144142440D01*
X72994050Y-144209730D01*
X73019127Y-144279816D01*
X73037214Y-144352022D01*
X73048136Y-144425653D01*
X73051788Y-144500000D01*
X73048136Y-144574347D01*
X73037214Y-144647978D01*
X73019127Y-144720184D01*
X72994050Y-144790270D01*
X72962224Y-144857560D01*
X72923956Y-144921407D01*
X72879614Y-144981195D01*
X72829625Y-145036349D01*
X72774471Y-145086338D01*
X72714683Y-145130680D01*
X72650836Y-145168948D01*
X72583546Y-145200774D01*
X72513461Y-145225851D01*
X72441254Y-145243938D01*
X72367623Y-145254860D01*
X72293276Y-145258512D01*
X72293133Y-145258512D01*
X71767811Y-145258512D01*
X70669099Y-145258512D01*
X69886266Y-145258512D01*
X68063090Y-145258512D01*
X67906867Y-145258512D01*
X67906724Y-145258512D01*
X67832377Y-145254860D01*
X67758746Y-145243938D01*
X67686539Y-145225851D01*
X67616454Y-145200774D01*
X67549164Y-145168948D01*
X67485317Y-145130680D01*
X67425529Y-145086338D01*
X67370375Y-145036349D01*
X67320386Y-144981195D01*
X67276044Y-144921407D01*
X67237776Y-144857560D01*
X67205950Y-144790270D01*
X67180873Y-144720184D01*
X67162786Y-144647978D01*
X67151864Y-144574347D01*
X67148212Y-144500000D01*
X67151864Y-144425653D01*
X67162786Y-144352022D01*
X67180873Y-144279816D01*
X67205950Y-144209730D01*
X67237776Y-144142440D01*
X67276044Y-144078593D01*
X67304093Y-144040773D01*
X67906867Y-144040773D01*
X67906867Y-144926609D01*
X67909442Y-144986695D01*
X67925751Y-145034764D01*
X67973820Y-145074249D01*
X68063090Y-145086266D01*
X68483691Y-145086266D01*
X68582976Y-145073677D01*
X68672532Y-145035908D01*
X68729501Y-144990987D01*
X68914592Y-144990987D01*
X69010730Y-145074249D01*
X69136051Y-145099142D01*
X69221888Y-145003863D01*
X69300858Y-144839056D01*
X69723176Y-144839056D01*
X69802146Y-145002146D01*
X69886266Y-145100858D01*
X70013305Y-145075966D01*
X70108584Y-144991845D01*
X70085408Y-144869957D01*
X69671941Y-144015021D01*
X70147210Y-144015021D01*
X70157511Y-144092275D01*
X70190129Y-144132618D01*
X70228755Y-144146352D01*
X70277682Y-144148927D01*
X70516309Y-144148927D01*
X70516309Y-144933476D01*
X70518884Y-144990987D01*
X70534335Y-145037339D01*
X70580687Y-145075966D01*
X70669099Y-145087983D01*
X70758369Y-145075966D01*
X70806438Y-145038197D01*
X70822747Y-144992704D01*
X70825322Y-144935193D01*
X70825322Y-144148927D01*
X71062232Y-144148927D01*
X71111159Y-144146352D01*
X71150644Y-144132618D01*
X71184120Y-144092275D01*
X71194421Y-144016738D01*
X71194187Y-144015021D01*
X71245923Y-144015021D01*
X71256223Y-144092275D01*
X71288841Y-144132618D01*
X71327468Y-144146352D01*
X71376395Y-144148927D01*
X71615021Y-144148927D01*
X71615021Y-144933476D01*
X71617597Y-144990987D01*
X71633047Y-145037339D01*
X71679399Y-145075966D01*
X71767811Y-145087983D01*
X71857082Y-145075966D01*
X71905150Y-145038197D01*
X71921459Y-144992704D01*
X71924034Y-144935193D01*
X71924034Y-144148927D01*
X72160944Y-144148927D01*
X72209871Y-144146352D01*
X72249356Y-144132618D01*
X72282833Y-144092275D01*
X72293133Y-144016738D01*
X72282833Y-143941202D01*
X72250215Y-143900858D01*
X72211588Y-143887124D01*
X72162661Y-143884549D01*
X71378112Y-143884549D01*
X71329185Y-143887124D01*
X71289700Y-143900858D01*
X71256223Y-143940343D01*
X71245923Y-144015021D01*
X71194187Y-144015021D01*
X71184120Y-143941202D01*
X71151502Y-143900858D01*
X71112876Y-143887124D01*
X71063948Y-143884549D01*
X70279399Y-143884549D01*
X70230472Y-143887124D01*
X70190987Y-143900858D01*
X70157511Y-143940343D01*
X70147210Y-144015021D01*
X69671941Y-144015021D01*
X69654506Y-143978970D01*
X69595708Y-143909442D01*
X69512017Y-143886266D01*
X69427897Y-143911159D01*
X69367811Y-143977253D01*
X68936910Y-144869957D01*
X68914592Y-144990987D01*
X68729501Y-144990987D01*
X68752361Y-144972961D01*
X68815021Y-144891893D01*
X68853076Y-144799762D01*
X68866524Y-144696567D01*
X68843777Y-144564807D01*
X68775536Y-144444206D01*
X68818026Y-144352361D01*
X68832189Y-144251931D01*
X68820362Y-144156843D01*
X68784883Y-144070720D01*
X68725751Y-143993562D01*
X68649642Y-143933000D01*
X68563233Y-143896662D01*
X68466524Y-143884549D01*
X68064807Y-143884549D01*
X67973820Y-143896567D01*
X67925751Y-143936052D01*
X67909442Y-143983262D01*
X67906867Y-144040773D01*
X67304093Y-144040773D01*
X67320386Y-144018805D01*
X67370375Y-143963651D01*
X67425529Y-143913662D01*
X67485317Y-143869320D01*
X67549164Y-143831052D01*
X67616454Y-143799226D01*
X67686539Y-143774149D01*
X67758746Y-143756062D01*
X67832377Y-143745140D01*
X67906724Y-143741488D01*
X67906867Y-143741488D01*
X72293133Y-143741488D01*
X72293276Y-143741488D01*
X72367623Y-143745140D01*
G37*
%TO.C,kibuzzard-672F6FAB*%
G36*
X96389270Y-144496567D02*
G01*
X96353219Y-144584979D01*
X96263948Y-144621888D01*
X96169528Y-144582403D01*
X96138627Y-144500000D01*
X96138627Y-144311159D01*
X96389270Y-144311159D01*
X96389270Y-144496567D01*
G37*
G36*
X96216524Y-140721460D02*
G01*
X96314592Y-140783261D01*
X96380901Y-140874248D01*
X96403004Y-140982403D01*
X96380901Y-141089270D01*
X96314592Y-141179828D01*
X96216524Y-141241631D01*
X96099142Y-141262232D01*
X95980901Y-141241845D01*
X95883691Y-141180687D01*
X95818670Y-141089914D01*
X95796996Y-140980687D01*
X95819313Y-140874893D01*
X95886266Y-140784120D01*
X95984120Y-140721674D01*
X96099142Y-140700858D01*
X96216524Y-140721460D01*
G37*
G36*
X96216524Y-143057940D02*
G01*
X96314592Y-143119742D01*
X96380901Y-143210730D01*
X96403004Y-143318884D01*
X96380901Y-143425751D01*
X96314591Y-143516309D01*
X96216524Y-143578112D01*
X96099142Y-143598712D01*
X95980901Y-143578326D01*
X95883691Y-143517167D01*
X95818670Y-143426395D01*
X95796996Y-143317167D01*
X95819313Y-143211373D01*
X95886266Y-143120601D01*
X95984120Y-143058155D01*
X96099142Y-143037339D01*
X96216524Y-143057940D01*
G37*
G36*
X96174515Y-138265177D02*
G01*
X96248313Y-138276125D01*
X96320683Y-138294253D01*
X96390927Y-138319385D01*
X96458369Y-138351283D01*
X96522361Y-138389638D01*
X96582284Y-138434080D01*
X96637563Y-138484181D01*
X96687665Y-138539461D01*
X96732107Y-138599385D01*
X96770462Y-138663376D01*
X96802360Y-138730818D01*
X96827494Y-138801064D01*
X96845621Y-138873432D01*
X96856568Y-138947230D01*
X96860229Y-139021745D01*
X96860230Y-139021888D01*
X96860230Y-145978112D01*
X96860229Y-145978255D01*
X96856568Y-146052770D01*
X96845621Y-146126568D01*
X96827494Y-146198936D01*
X96802360Y-146269182D01*
X96770462Y-146336624D01*
X96732107Y-146400615D01*
X96687665Y-146460539D01*
X96637563Y-146515819D01*
X96582284Y-146565920D01*
X96522361Y-146610362D01*
X96458369Y-146648717D01*
X96390927Y-146680615D01*
X96320683Y-146705747D01*
X96248313Y-146723875D01*
X96174515Y-146734823D01*
X96100000Y-146738484D01*
X96025485Y-146734823D01*
X95951687Y-146723875D01*
X95879317Y-146705747D01*
X95809073Y-146680615D01*
X95741631Y-146648717D01*
X95677639Y-146610362D01*
X95617716Y-146565920D01*
X95562437Y-146515819D01*
X95512335Y-146460539D01*
X95467893Y-146400615D01*
X95429538Y-146336624D01*
X95397640Y-146269182D01*
X95372506Y-146198936D01*
X95354379Y-146126568D01*
X95343432Y-146052770D01*
X95339771Y-145978255D01*
X95339770Y-145978112D01*
X95339770Y-145821888D01*
X95498283Y-145821888D01*
X95532618Y-145943777D01*
X95652790Y-145978112D01*
X96545494Y-145978112D01*
X96668239Y-145943777D01*
X96703433Y-145823605D01*
X96674249Y-145706867D01*
X96651931Y-145679399D01*
X96456223Y-145461373D01*
X96397854Y-145409013D01*
X96342918Y-145389269D01*
X96229614Y-145442489D01*
X96169528Y-145544635D01*
X96219313Y-145650214D01*
X96234764Y-145667382D01*
X95654506Y-145667382D01*
X95532618Y-145701717D01*
X95498283Y-145821888D01*
X95339770Y-145821888D01*
X95339771Y-144750645D01*
X95497425Y-144750645D01*
X95544635Y-144872532D01*
X95645923Y-144954936D01*
X95764377Y-144908584D01*
X95929185Y-144784980D01*
X96022651Y-144868908D01*
X96133667Y-144919266D01*
X96262232Y-144936052D01*
X96364163Y-144925322D01*
X96457083Y-144893133D01*
X96536266Y-144843991D01*
X96596996Y-144782403D01*
X96642489Y-144713305D01*
X96675966Y-144641631D01*
X96696567Y-144569742D01*
X96703433Y-144500000D01*
X96703433Y-144154936D01*
X96691416Y-144063948D01*
X96651931Y-144015880D01*
X96604721Y-143999571D01*
X96547210Y-143996996D01*
X95661373Y-143996996D01*
X95602146Y-143999571D01*
X95554937Y-144015880D01*
X95515451Y-144063948D01*
X95503433Y-144153219D01*
X95515451Y-144244205D01*
X95554077Y-144292275D01*
X95600429Y-144308584D01*
X95659657Y-144311159D01*
X95826180Y-144311159D01*
X95826180Y-144470815D01*
X95577253Y-144654506D01*
X95497425Y-144750645D01*
X95339771Y-144750645D01*
X95339771Y-143325751D01*
X95482833Y-143325751D01*
X95494152Y-143442436D01*
X95528113Y-143550429D01*
X95584710Y-143649732D01*
X95663948Y-143740343D01*
X95759066Y-143815826D01*
X95863305Y-143869741D01*
X95976663Y-143902092D01*
X96099142Y-143912876D01*
X96223766Y-143901931D01*
X96338412Y-143869099D01*
X96443079Y-143814378D01*
X96537768Y-143737768D01*
X96616255Y-143645494D01*
X96672318Y-143543777D01*
X96705954Y-143432618D01*
X96717167Y-143312017D01*
X96705794Y-143193884D01*
X96671674Y-143084979D01*
X96614807Y-142985299D01*
X96535193Y-142894850D01*
X96439270Y-142819742D01*
X96333476Y-142766093D01*
X96217810Y-142733906D01*
X96092275Y-142723176D01*
X95970708Y-142734227D01*
X95858369Y-142767383D01*
X95755258Y-142822639D01*
X95661373Y-142900000D01*
X95583262Y-142992918D01*
X95527468Y-143094850D01*
X95493991Y-143205794D01*
X95482833Y-143325751D01*
X95339771Y-143325751D01*
X95339771Y-142148069D01*
X95501717Y-142148069D01*
X95513734Y-142237339D01*
X95551502Y-142285408D01*
X95596996Y-142301717D01*
X95654506Y-142304292D01*
X96440772Y-142304292D01*
X96440773Y-142541202D01*
X96443348Y-142590129D01*
X96457082Y-142629614D01*
X96497425Y-142663090D01*
X96572961Y-142673391D01*
X96648498Y-142663090D01*
X96688841Y-142630472D01*
X96702575Y-142591845D01*
X96705150Y-142542918D01*
X96705150Y-141758369D01*
X96702575Y-141709442D01*
X96688840Y-141669957D01*
X96649356Y-141636481D01*
X96574678Y-141626180D01*
X96497425Y-141636481D01*
X96457082Y-141669099D01*
X96443348Y-141707725D01*
X96440772Y-141756652D01*
X96440773Y-141995278D01*
X95656223Y-141995279D01*
X95598712Y-141997854D01*
X95552361Y-142013305D01*
X95513734Y-142059657D01*
X95501717Y-142148069D01*
X95339771Y-142148069D01*
X95339770Y-140989271D01*
X95482833Y-140989271D01*
X95494152Y-141105955D01*
X95528112Y-141213948D01*
X95584710Y-141313251D01*
X95663948Y-141403863D01*
X95759067Y-141479345D01*
X95863304Y-141533262D01*
X95976663Y-141565611D01*
X96099142Y-141576395D01*
X96223766Y-141565451D01*
X96338412Y-141532618D01*
X96443079Y-141477898D01*
X96537768Y-141401288D01*
X96616254Y-141309013D01*
X96672318Y-141207296D01*
X96705955Y-141096137D01*
X96717167Y-140975536D01*
X96705795Y-140857403D01*
X96671675Y-140748498D01*
X96614807Y-140648821D01*
X96535192Y-140558369D01*
X96439270Y-140483262D01*
X96333475Y-140429614D01*
X96217811Y-140397425D01*
X96092275Y-140386695D01*
X95970708Y-140397747D01*
X95858369Y-140430901D01*
X95755258Y-140486159D01*
X95661373Y-140563519D01*
X95583262Y-140656438D01*
X95527468Y-140758369D01*
X95493991Y-140869313D01*
X95482833Y-140989271D01*
X95339770Y-140989271D01*
X95339770Y-140989270D01*
X95339771Y-139176395D01*
X95503433Y-139176395D01*
X95515451Y-139267381D01*
X95554077Y-139315451D01*
X95600429Y-139331760D01*
X95657940Y-139334335D01*
X96147210Y-139334335D01*
X95875966Y-139533476D01*
X95823175Y-139590129D01*
X95805579Y-139667383D01*
X95810730Y-139714592D01*
X95826180Y-139750644D01*
X95843348Y-139772961D01*
X95862232Y-139789270D01*
X95875966Y-139799571D01*
X96148927Y-140000429D01*
X95661372Y-140000429D01*
X95602146Y-140003004D01*
X95554936Y-140019313D01*
X95515451Y-140067382D01*
X95503433Y-140156652D01*
X95515451Y-140246781D01*
X95553219Y-140293992D01*
X95599571Y-140311159D01*
X95657940Y-140314592D01*
X96543777Y-140314592D01*
X96603863Y-140311159D01*
X96651073Y-140294850D01*
X96689700Y-140247639D01*
X96701717Y-140158369D01*
X96691416Y-140067382D01*
X96651931Y-140015880D01*
X96203863Y-139667382D01*
X96653648Y-139317167D01*
X96665665Y-139306009D01*
X96678541Y-139293133D01*
X96687124Y-139278541D01*
X96694850Y-139256223D01*
X96699141Y-139225322D01*
X96701717Y-139179828D01*
X96689700Y-139088841D01*
X96651073Y-139040774D01*
X96604722Y-139024464D01*
X96547210Y-139021888D01*
X95661372Y-139021888D01*
X95601288Y-139025322D01*
X95554077Y-139041631D01*
X95515451Y-139087983D01*
X95503433Y-139176395D01*
X95339771Y-139176395D01*
X95339771Y-139176394D01*
X95339770Y-139021888D01*
X95339771Y-139021745D01*
X95343432Y-138947230D01*
X95354379Y-138873432D01*
X95372506Y-138801064D01*
X95397640Y-138730818D01*
X95429538Y-138663376D01*
X95467893Y-138599385D01*
X95512335Y-138539461D01*
X95562437Y-138484181D01*
X95617716Y-138434080D01*
X95677639Y-138389638D01*
X95741631Y-138351283D01*
X95809073Y-138319385D01*
X95879317Y-138294253D01*
X95951687Y-138276125D01*
X96025485Y-138265177D01*
X96100000Y-138261516D01*
X96174515Y-138265177D01*
G37*
%TO.C,kibuzzard-672F6FA2*%
G36*
X81380472Y-140590129D02*
G01*
X81411374Y-140672532D01*
X81411373Y-140861373D01*
X81160730Y-140861373D01*
X81160730Y-140675966D01*
X81196782Y-140587554D01*
X81286052Y-140550644D01*
X81380472Y-140590129D01*
G37*
G36*
X81526394Y-139164378D02*
G01*
X81601931Y-139173820D01*
X81679185Y-139196137D01*
X81731544Y-139239914D01*
X81754721Y-139311159D01*
X81735730Y-139375000D01*
X81678755Y-139420601D01*
X81583798Y-139447961D01*
X81450858Y-139457081D01*
X81316416Y-139447854D01*
X81220386Y-139420172D01*
X81162768Y-139374034D01*
X81143562Y-139309442D01*
X81162661Y-139245601D01*
X81219957Y-139200001D01*
X81315451Y-139172639D01*
X81449142Y-139163519D01*
X81457725Y-139163519D01*
X81526394Y-139164378D01*
G37*
G36*
X81569099Y-143930687D02*
G01*
X81666309Y-143991845D01*
X81731330Y-144082618D01*
X81753004Y-144191845D01*
X81730687Y-144297639D01*
X81663734Y-144388412D01*
X81565880Y-144450857D01*
X81450858Y-144471674D01*
X81333476Y-144451073D01*
X81235408Y-144389270D01*
X81169099Y-144298283D01*
X81146996Y-144190129D01*
X81169099Y-144083262D01*
X81235408Y-143992705D01*
X81333476Y-143930901D01*
X81450858Y-143910300D01*
X81569099Y-143930687D01*
G37*
G36*
X81569099Y-141594206D02*
G01*
X81666309Y-141655364D01*
X81731330Y-141746137D01*
X81753004Y-141855365D01*
X81730687Y-141961159D01*
X81663734Y-142051931D01*
X81565880Y-142114379D01*
X81450858Y-142135193D01*
X81333476Y-142114591D01*
X81235408Y-142052790D01*
X81169099Y-141961803D01*
X81146996Y-141853648D01*
X81169099Y-141746781D01*
X81235408Y-141656223D01*
X81333476Y-141594421D01*
X81450858Y-141573820D01*
X81569099Y-141594206D01*
G37*
G36*
X82213662Y-140421887D02*
G01*
X82213662Y-141846781D01*
X82213662Y-143024463D01*
X82213663Y-144183262D01*
X82213662Y-145996137D01*
X82213662Y-146150645D01*
X82213662Y-146150787D01*
X82209985Y-146225639D01*
X82198989Y-146299770D01*
X82180779Y-146372466D01*
X82155532Y-146443028D01*
X82123490Y-146510775D01*
X82084962Y-146575055D01*
X82040319Y-146635249D01*
X81989991Y-146690778D01*
X81934462Y-146741106D01*
X81874268Y-146785749D01*
X81809988Y-146824278D01*
X81742241Y-146856319D01*
X81671679Y-146881566D01*
X81598982Y-146899776D01*
X81524852Y-146910772D01*
X81450000Y-146914449D01*
X81375148Y-146910772D01*
X81301018Y-146899776D01*
X81228321Y-146881566D01*
X81157759Y-146856319D01*
X81090012Y-146824278D01*
X81025732Y-146785749D01*
X80965538Y-146741106D01*
X80910009Y-146690778D01*
X80859681Y-146635249D01*
X80815038Y-146575055D01*
X80776510Y-146510775D01*
X80744468Y-146443028D01*
X80719221Y-146372466D01*
X80701011Y-146299770D01*
X80690015Y-146225639D01*
X80686338Y-146150787D01*
X80686338Y-146150645D01*
X80686338Y-145014163D01*
X80848283Y-145014163D01*
X80858584Y-145105150D01*
X80898069Y-145156652D01*
X81346137Y-145505150D01*
X80896352Y-145855365D01*
X80884334Y-145866524D01*
X80871459Y-145879399D01*
X80862877Y-145893991D01*
X80855150Y-145916309D01*
X80850858Y-145947210D01*
X80848283Y-145992704D01*
X80860300Y-146083691D01*
X80898927Y-146131761D01*
X80945279Y-146148069D01*
X81002790Y-146150644D01*
X81888627Y-146150644D01*
X81948713Y-146147210D01*
X81995923Y-146130901D01*
X82034549Y-146084548D01*
X82046567Y-145996137D01*
X82034549Y-145905150D01*
X81995923Y-145857081D01*
X81949572Y-145840772D01*
X81892060Y-145838197D01*
X81402790Y-145838197D01*
X81674034Y-145639056D01*
X81726824Y-145582403D01*
X81744421Y-145505150D01*
X81739270Y-145457940D01*
X81723820Y-145421888D01*
X81706652Y-145399571D01*
X81687767Y-145383262D01*
X81674034Y-145372961D01*
X81401073Y-145172103D01*
X81888627Y-145172103D01*
X81947854Y-145169528D01*
X81995064Y-145153219D01*
X82034549Y-145105150D01*
X82046567Y-145015880D01*
X82034550Y-144925751D01*
X81996781Y-144878541D01*
X81950429Y-144861373D01*
X81892060Y-144857940D01*
X81006223Y-144857940D01*
X80946137Y-144861373D01*
X80898927Y-144877683D01*
X80860300Y-144924893D01*
X80848283Y-145014163D01*
X80686338Y-145014163D01*
X80686338Y-144196995D01*
X80832833Y-144196995D01*
X80844206Y-144315129D01*
X80878326Y-144424034D01*
X80935193Y-144523712D01*
X81014807Y-144614163D01*
X81110730Y-144689270D01*
X81216524Y-144742918D01*
X81332189Y-144775108D01*
X81457725Y-144785837D01*
X81579292Y-144774785D01*
X81691630Y-144741631D01*
X81794742Y-144686373D01*
X81888628Y-144609013D01*
X81966738Y-144516094D01*
X82022532Y-144414163D01*
X82056009Y-144303218D01*
X82067167Y-144183262D01*
X82055848Y-144066577D01*
X82021888Y-143958585D01*
X81965290Y-143859281D01*
X81886052Y-143768669D01*
X81790933Y-143693188D01*
X81686695Y-143639270D01*
X81573337Y-143606921D01*
X81450858Y-143596137D01*
X81326234Y-143607081D01*
X81211588Y-143639914D01*
X81106921Y-143694635D01*
X81012232Y-143771245D01*
X80933745Y-143863519D01*
X80877682Y-143965236D01*
X80844046Y-144076395D01*
X80832833Y-144196995D01*
X80686338Y-144196995D01*
X80686338Y-142629614D01*
X80844850Y-142629614D01*
X80844850Y-143414163D01*
X80847426Y-143463090D01*
X80861159Y-143502575D01*
X80900644Y-143536051D01*
X80975322Y-143546353D01*
X81052575Y-143536051D01*
X81092918Y-143503433D01*
X81106652Y-143464807D01*
X81109227Y-143415880D01*
X81109227Y-143177253D01*
X81893777Y-143177253D01*
X81951289Y-143174678D01*
X81997639Y-143159227D01*
X82036266Y-143112875D01*
X82048283Y-143024463D01*
X82036266Y-142935193D01*
X81998498Y-142887124D01*
X81953004Y-142870815D01*
X81895494Y-142868240D01*
X81109227Y-142868240D01*
X81109227Y-142631330D01*
X81106652Y-142582403D01*
X81092918Y-142542919D01*
X81052576Y-142509442D01*
X80977039Y-142499142D01*
X80901502Y-142509442D01*
X80861159Y-142542059D01*
X80847425Y-142580687D01*
X80844850Y-142629614D01*
X80686338Y-142629614D01*
X80686338Y-141860515D01*
X80832833Y-141860515D01*
X80844205Y-141978648D01*
X80878326Y-142087554D01*
X80935193Y-142187232D01*
X81014808Y-142277682D01*
X81110730Y-142352790D01*
X81216524Y-142406438D01*
X81332189Y-142438627D01*
X81457725Y-142449356D01*
X81579292Y-142438305D01*
X81691631Y-142405150D01*
X81794742Y-142349893D01*
X81888627Y-142272532D01*
X81966738Y-142179614D01*
X82022532Y-142077682D01*
X82056009Y-141966738D01*
X82067167Y-141846780D01*
X82055848Y-141730097D01*
X82021888Y-141622103D01*
X81965290Y-141522800D01*
X81886052Y-141432189D01*
X81790933Y-141356706D01*
X81686695Y-141302790D01*
X81573337Y-141270440D01*
X81450858Y-141259657D01*
X81326234Y-141270601D01*
X81211588Y-141303433D01*
X81106921Y-141358153D01*
X81012232Y-141434764D01*
X80933745Y-141527039D01*
X80877682Y-141628755D01*
X80844045Y-141739914D01*
X80832833Y-141860515D01*
X80686338Y-141860515D01*
X80686338Y-140672532D01*
X80846566Y-140672532D01*
X80846567Y-141017597D01*
X80858584Y-141108584D01*
X80898069Y-141156652D01*
X80945279Y-141172961D01*
X81002790Y-141175536D01*
X81888628Y-141175536D01*
X81947854Y-141172961D01*
X81995064Y-141156652D01*
X82034549Y-141108584D01*
X82046567Y-141019313D01*
X82034549Y-140928326D01*
X81995923Y-140880257D01*
X81949572Y-140863948D01*
X81890343Y-140861373D01*
X81723820Y-140861373D01*
X81723820Y-140701717D01*
X81972747Y-140518026D01*
X82052575Y-140421888D01*
X82005364Y-140300000D01*
X81904077Y-140217596D01*
X81785622Y-140263948D01*
X81620815Y-140387555D01*
X81527349Y-140303625D01*
X81416333Y-140253267D01*
X81287768Y-140236481D01*
X81185837Y-140247209D01*
X81092918Y-140279399D01*
X81013734Y-140328541D01*
X80953004Y-140390129D01*
X80907511Y-140459227D01*
X80874034Y-140530901D01*
X80853432Y-140602790D01*
X80846566Y-140672532D01*
X80686338Y-140672532D01*
X80686338Y-139307725D01*
X80829399Y-139307725D01*
X80840773Y-139415880D01*
X80874893Y-139510300D01*
X80925751Y-139587983D01*
X80987339Y-139645923D01*
X81059871Y-139689485D01*
X81143562Y-139724034D01*
X81228541Y-139748712D01*
X81304936Y-139762661D01*
X81377039Y-139769099D01*
X81449142Y-139771245D01*
X81574464Y-139764378D01*
X81710944Y-139740343D01*
X81782189Y-139718669D01*
X81846567Y-139687983D01*
X81959871Y-139603863D01*
X82006439Y-139547854D01*
X82041416Y-139477682D01*
X82063305Y-139395708D01*
X82070601Y-139304292D01*
X82059871Y-139200858D01*
X82027682Y-139110300D01*
X81979185Y-139035193D01*
X81919528Y-138978113D01*
X81848927Y-138934548D01*
X81767597Y-138900001D01*
X81683476Y-138874893D01*
X81604506Y-138859657D01*
X81527897Y-138851931D01*
X81450858Y-138849356D01*
X81375751Y-138851717D01*
X81301502Y-138858797D01*
X81224034Y-138873391D01*
X81139270Y-138898283D01*
X81056439Y-138932833D01*
X80984763Y-138976395D01*
X80924033Y-139033906D01*
X80874034Y-139110301D01*
X80840558Y-139202575D01*
X80829399Y-139307725D01*
X80686338Y-139307725D01*
X80686338Y-138849355D01*
X80686338Y-138849213D01*
X80690015Y-138774361D01*
X80701011Y-138700230D01*
X80719221Y-138627534D01*
X80744468Y-138556972D01*
X80776510Y-138489225D01*
X80815038Y-138424945D01*
X80859681Y-138364751D01*
X80910009Y-138309222D01*
X80965538Y-138258894D01*
X81025732Y-138214251D01*
X81090012Y-138175722D01*
X81157759Y-138143681D01*
X81228321Y-138118434D01*
X81301018Y-138100224D01*
X81375148Y-138089228D01*
X81450000Y-138085551D01*
X81524852Y-138089228D01*
X81598982Y-138100224D01*
X81671679Y-138118434D01*
X81742241Y-138143681D01*
X81809988Y-138175722D01*
X81874268Y-138214251D01*
X81934462Y-138258894D01*
X81989991Y-138309222D01*
X82040319Y-138364751D01*
X82084962Y-138424945D01*
X82123490Y-138489225D01*
X82155532Y-138556972D01*
X82180779Y-138627534D01*
X82198989Y-138700230D01*
X82209985Y-138774361D01*
X82213662Y-138849213D01*
X82213662Y-138849355D01*
X82213662Y-139304292D01*
X82213662Y-140421887D01*
G37*
%TO.C,kibuzzard-672F6F41*%
G36*
X68545494Y-116300215D02*
G01*
X68582403Y-116389485D01*
X68542060Y-116483906D01*
X68457082Y-116514807D01*
X68271674Y-116514807D01*
X68271674Y-116264163D01*
X68455365Y-116264163D01*
X68545494Y-116300215D01*
G37*
G36*
X73465665Y-116300215D02*
G01*
X73502575Y-116389485D01*
X73463090Y-116483906D01*
X73380687Y-116514807D01*
X73191846Y-116514807D01*
X73191846Y-116264163D01*
X73377253Y-116264163D01*
X73465665Y-116300215D01*
G37*
G36*
X69645494Y-116272532D02*
G01*
X69736052Y-116338841D01*
X69797854Y-116436910D01*
X69818455Y-116554292D01*
X69798069Y-116672532D01*
X69736910Y-116769742D01*
X69646137Y-116834764D01*
X69536910Y-116856438D01*
X69431116Y-116834120D01*
X69340343Y-116767167D01*
X69277897Y-116669313D01*
X69257082Y-116554292D01*
X69277682Y-116436910D01*
X69339485Y-116338841D01*
X69430472Y-116272532D01*
X69538627Y-116250429D01*
X69645494Y-116272532D01*
G37*
G36*
X73917484Y-115790015D02*
G01*
X73991615Y-115801011D01*
X74064312Y-115819221D01*
X74134873Y-115844468D01*
X74202620Y-115876510D01*
X74266900Y-115915038D01*
X74327095Y-115959681D01*
X74382623Y-116010009D01*
X74432951Y-116065538D01*
X74477594Y-116125732D01*
X74516122Y-116190012D01*
X74548164Y-116257759D01*
X74573412Y-116328321D01*
X74591621Y-116401017D01*
X74602617Y-116475148D01*
X74606295Y-116550000D01*
X74602617Y-116624852D01*
X74591621Y-116698983D01*
X74573412Y-116771679D01*
X74548164Y-116842241D01*
X74516122Y-116909988D01*
X74477594Y-116974268D01*
X74432951Y-117034462D01*
X74382623Y-117089991D01*
X74327095Y-117140319D01*
X74266900Y-117184962D01*
X74202620Y-117223490D01*
X74134873Y-117255532D01*
X74064312Y-117280779D01*
X73991615Y-117298989D01*
X73917484Y-117309985D01*
X73842632Y-117313662D01*
X73842489Y-117313662D01*
X73631331Y-117313662D01*
X72003863Y-117313662D01*
X70654506Y-117313662D01*
X69545494Y-117313662D01*
X68113734Y-117313662D01*
X67957511Y-117313662D01*
X67957368Y-117313662D01*
X67882516Y-117309985D01*
X67808385Y-117298989D01*
X67735688Y-117280779D01*
X67665127Y-117255532D01*
X67597380Y-117223490D01*
X67533100Y-117184962D01*
X67472905Y-117140319D01*
X67417377Y-117089991D01*
X67367049Y-117034462D01*
X67322406Y-116974268D01*
X67283878Y-116909988D01*
X67251836Y-116842241D01*
X67226588Y-116771679D01*
X67208379Y-116698983D01*
X67197383Y-116624852D01*
X67193705Y-116550000D01*
X67197383Y-116475148D01*
X67208379Y-116401017D01*
X67226588Y-116328321D01*
X67251836Y-116257759D01*
X67283878Y-116190012D01*
X67322406Y-116125732D01*
X67336875Y-116106223D01*
X67957511Y-116106223D01*
X67957511Y-116992060D01*
X67960086Y-117051288D01*
X67976395Y-117098498D01*
X68024464Y-117137983D01*
X68113734Y-117150000D01*
X68204721Y-117137983D01*
X68252790Y-117099356D01*
X68269099Y-117053004D01*
X68271674Y-116993777D01*
X68271674Y-116828970D01*
X68455365Y-116828970D01*
X68525537Y-116822103D01*
X68598712Y-116801502D01*
X68671674Y-116768026D01*
X68741202Y-116722532D01*
X68802790Y-116662232D01*
X68851931Y-116584335D01*
X68860072Y-116561159D01*
X68942918Y-116561159D01*
X68953970Y-116682725D01*
X68987124Y-116795064D01*
X69042382Y-116898176D01*
X69119743Y-116992060D01*
X69212661Y-117070172D01*
X69314592Y-117125966D01*
X69425537Y-117159442D01*
X69545494Y-117170601D01*
X69662178Y-117159281D01*
X69770172Y-117125322D01*
X69869474Y-117068723D01*
X69960086Y-116989485D01*
X70035569Y-116894367D01*
X70089485Y-116790129D01*
X70121835Y-116676770D01*
X70132618Y-116554292D01*
X70121674Y-116429667D01*
X70088841Y-116315021D01*
X70034120Y-116210354D01*
X69957511Y-116115665D01*
X69865236Y-116037178D01*
X69853459Y-116030687D01*
X70190129Y-116030687D01*
X70197854Y-116157725D01*
X70506867Y-117043562D01*
X70522318Y-117080472D01*
X70568670Y-117125107D01*
X70654506Y-117150000D01*
X70751931Y-117120815D01*
X70807296Y-117033262D01*
X70968670Y-116506223D01*
X71130043Y-117034979D01*
X71139485Y-117059871D01*
X71161803Y-117095923D01*
X71209871Y-117134549D01*
X71282833Y-117150000D01*
X71378541Y-117123391D01*
X71432189Y-117043562D01*
X71739485Y-116157725D01*
X71743365Y-116106223D01*
X71847640Y-116106223D01*
X71847640Y-116993777D01*
X71850215Y-117053004D01*
X71866524Y-117100215D01*
X71914592Y-117139700D01*
X72003863Y-117151717D01*
X72635622Y-117151717D01*
X72694850Y-117149142D01*
X72742060Y-117132833D01*
X72781545Y-117084764D01*
X72793562Y-116995494D01*
X72781545Y-116904506D01*
X72742918Y-116856438D01*
X72696567Y-116840129D01*
X72637339Y-116837554D01*
X72161803Y-116837554D01*
X72161803Y-116684764D01*
X72475966Y-116684764D01*
X72532618Y-116682189D01*
X72575537Y-116668455D01*
X72609013Y-116628970D01*
X72618455Y-116552575D01*
X72609013Y-116474464D01*
X72576395Y-116433262D01*
X72535193Y-116419528D01*
X72479399Y-116416953D01*
X72161803Y-116416953D01*
X72161803Y-116264163D01*
X72635622Y-116264163D01*
X72694850Y-116261588D01*
X72742060Y-116245279D01*
X72781545Y-116197210D01*
X72793562Y-116107940D01*
X72793335Y-116106223D01*
X72877682Y-116106223D01*
X72877682Y-116992060D01*
X72880258Y-117051288D01*
X72896567Y-117098498D01*
X72944635Y-117137983D01*
X73033906Y-117150000D01*
X73124893Y-117137983D01*
X73172961Y-117099356D01*
X73189270Y-117053004D01*
X73191846Y-116993777D01*
X73191846Y-116827253D01*
X73351502Y-116827253D01*
X73535193Y-117076180D01*
X73631331Y-117156009D01*
X73753219Y-117108798D01*
X73835622Y-117007511D01*
X73789270Y-116889056D01*
X73665665Y-116724249D01*
X73749595Y-116630782D01*
X73799952Y-116519766D01*
X73816738Y-116391202D01*
X73806009Y-116289270D01*
X73773820Y-116196352D01*
X73724678Y-116117167D01*
X73663090Y-116056438D01*
X73593991Y-116010944D01*
X73522318Y-115977468D01*
X73450429Y-115956867D01*
X73380687Y-115950000D01*
X73035622Y-115950000D01*
X72944635Y-115962017D01*
X72896567Y-116001502D01*
X72880258Y-116048712D01*
X72877682Y-116106223D01*
X72793335Y-116106223D01*
X72781545Y-116016953D01*
X72742918Y-115968884D01*
X72696567Y-115952575D01*
X72637339Y-115950000D01*
X72009013Y-115950000D01*
X71882833Y-115983476D01*
X71847640Y-116106223D01*
X71743365Y-116106223D01*
X71748927Y-116032403D01*
X71641631Y-115956867D01*
X71512017Y-115950000D01*
X71442489Y-116056438D01*
X71263949Y-116581760D01*
X71123176Y-116066738D01*
X71118026Y-116053004D01*
X71109442Y-116031545D01*
X71098283Y-116010086D01*
X71079399Y-115987768D01*
X71052790Y-115968884D01*
X71015021Y-115954292D01*
X70965236Y-115950000D01*
X70866524Y-115978755D01*
X70814163Y-116065021D01*
X70673391Y-116578326D01*
X70494850Y-116056438D01*
X70425322Y-115950858D01*
X70297425Y-115958584D01*
X70190129Y-116030687D01*
X69853459Y-116030687D01*
X69763519Y-115981116D01*
X69652361Y-115947479D01*
X69531760Y-115936266D01*
X69413627Y-115947639D01*
X69304721Y-115981760D01*
X69205043Y-116038627D01*
X69114592Y-116118240D01*
X69039485Y-116214163D01*
X68985837Y-116319957D01*
X68953648Y-116435622D01*
X68942918Y-116561159D01*
X68860072Y-116561159D01*
X68884120Y-116492704D01*
X68894850Y-116391202D01*
X68883906Y-116289270D01*
X68851073Y-116196352D01*
X68801502Y-116117167D01*
X68740343Y-116056438D01*
X68671674Y-116010944D01*
X68599571Y-115977468D01*
X68527039Y-115956867D01*
X68457082Y-115950000D01*
X68115451Y-115950000D01*
X68024464Y-115962017D01*
X67976395Y-116001502D01*
X67960086Y-116048712D01*
X67957511Y-116106223D01*
X67336875Y-116106223D01*
X67367049Y-116065538D01*
X67417377Y-116010009D01*
X67472905Y-115959681D01*
X67533100Y-115915038D01*
X67597380Y-115876510D01*
X67665127Y-115844468D01*
X67735688Y-115819221D01*
X67808385Y-115801011D01*
X67882516Y-115790015D01*
X67957368Y-115786338D01*
X67957511Y-115786338D01*
X73842489Y-115786338D01*
X73842632Y-115786338D01*
X73917484Y-115790015D01*
G37*
D12*
%TO.C,C307*%
X82790000Y-131240580D02*
X82790000Y-130959420D01*
X83810000Y-131240580D02*
X83810000Y-130959420D01*
%TO.C,R306*%
X81437258Y-127847500D02*
X80962742Y-127847500D01*
X81437258Y-126802500D02*
X80962742Y-126802500D01*
%TO.C,C112*%
X87060191Y-110284445D02*
X87060191Y-110565605D01*
X86040191Y-110284445D02*
X86040191Y-110565605D01*
%TO.C,D201*%
X69465000Y-118915000D02*
X69465000Y-120385000D01*
X69465000Y-120385000D02*
X71750000Y-120385000D01*
X71750000Y-118915000D02*
X69465000Y-118915000D01*
%TO.C,TP307*%
X76401000Y-132250000D02*
G75*
G02*
X73899000Y-132250000I-1251000J0D01*
G01*
X73899000Y-132250000D02*
G75*
G02*
X76401000Y-132250000I1251000J0D01*
G01*
%TO.C,R202*%
X94237386Y-119944979D02*
X94020105Y-120162260D01*
X94774787Y-120482380D02*
X94557506Y-120699661D01*
D10*
%TO.C,U302*%
X70243903Y-139699924D02*
G75*
G02*
X70183959Y-139699924I-29972J0D01*
G01*
X70183959Y-139699924D02*
G75*
G02*
X70243903Y-139699924I29972J0D01*
G01*
D14*
X70140017Y-139823876D02*
G75*
G02*
X69886017Y-139823876I-127000J0D01*
G01*
X69886017Y-139823876D02*
G75*
G02*
X70140017Y-139823876I127000J0D01*
G01*
X70259905Y-139199975D02*
X70113956Y-139199975D01*
X71209892Y-139199975D02*
X71168211Y-139199975D01*
X72159829Y-139199975D02*
X72118173Y-139199975D01*
X73213982Y-139199975D02*
X73068135Y-139199975D01*
X70259905Y-137399949D02*
X70113956Y-137399949D01*
X72159829Y-137399949D02*
X71168186Y-137399949D01*
X73213982Y-137399949D02*
X73068109Y-137399949D01*
X73213982Y-137399949D02*
X73213982Y-139199975D01*
X70113956Y-137399949D02*
X70113956Y-139199975D01*
D12*
%TO.C,C201*%
X75610000Y-119392164D02*
X75610000Y-119607836D01*
X74890000Y-119392164D02*
X74890000Y-119607836D01*
%TO.C,C109*%
X89821693Y-123180810D02*
X89669190Y-123028307D01*
X90330810Y-122671693D02*
X90178307Y-122519190D01*
%TO.C,C113*%
X99209420Y-116940000D02*
X99490580Y-116940000D01*
X99209420Y-117960000D02*
X99490580Y-117960000D01*
%TO.C,TP209*%
X76701000Y-111250000D02*
G75*
G02*
X74199000Y-111250000I-1251000J0D01*
G01*
X74199000Y-111250000D02*
G75*
G02*
X76701000Y-111250000I1251000J0D01*
G01*
D11*
%TO.C,U201*%
X89705163Y-137975508D02*
X89705163Y-137975508D01*
X89705163Y-137975508D02*
X89492385Y-137852661D01*
X91281363Y-135245450D02*
X89705163Y-137975508D01*
X91281363Y-135245450D02*
X91281363Y-135245450D01*
X91068585Y-135122602D02*
X91281363Y-135245450D01*
X88764083Y-133792097D02*
X88551305Y-133669250D01*
X86975105Y-136399308D02*
X87187883Y-136522156D01*
X86975105Y-136399308D02*
X86975105Y-136399308D01*
X88551305Y-133669250D02*
X86975105Y-136399308D01*
X88551305Y-133669250D02*
X88551305Y-133669250D01*
D10*
X91207198Y-135273167D02*
G75*
G02*
X91147254Y-135273167I-29972J0D01*
G01*
X91147254Y-135273167D02*
G75*
G02*
X91207198Y-135273167I29972J0D01*
G01*
D16*
X91083159Y-134566131D02*
G75*
G02*
X90933299Y-134566131I-74930J0D01*
G01*
X90933299Y-134566131D02*
G75*
G02*
X91083159Y-134566131I74930J0D01*
G01*
D12*
%TO.C,TP210*%
X73650999Y-111250000D02*
G75*
G02*
X71148999Y-111250000I-1251000J0D01*
G01*
X71148999Y-111250000D02*
G75*
G02*
X73650999Y-111250000I1251000J0D01*
G01*
D13*
%TO.C,U105*%
X100568593Y-109699860D02*
X98231789Y-109699860D01*
X97745098Y-110079870D02*
X96850026Y-110974942D01*
X100400953Y-110449161D02*
X101201055Y-111249263D01*
X98401969Y-110449161D02*
X100400953Y-110449161D01*
X101950356Y-110974942D02*
X101055284Y-110079870D01*
X101950356Y-110974942D02*
X101950356Y-113525108D01*
X96850026Y-110974942D02*
X96850026Y-113525108D01*
X101201055Y-111249263D02*
X101201055Y-113149187D01*
X97500267Y-111350863D02*
X98401969Y-110449161D01*
X97500267Y-113050127D02*
X97500267Y-111350863D01*
X101201055Y-113149187D02*
X100299353Y-114050889D01*
X101950356Y-113525108D02*
X101055284Y-114420180D01*
X100299353Y-114050889D02*
X98501029Y-114050889D01*
X98501029Y-114050889D02*
X97500267Y-113050127D01*
X97745098Y-114420180D02*
X96850026Y-113525108D01*
X100568593Y-114800190D02*
X98231789Y-114800190D01*
D10*
X101980074Y-109000089D02*
G75*
G02*
X101920130Y-109000089I-29972J0D01*
G01*
X101920130Y-109000089D02*
G75*
G02*
X101980074Y-109000089I29972J0D01*
G01*
D13*
X100675274Y-112250025D02*
G75*
G02*
X98125108Y-112250025I-1275083J0D01*
G01*
X98125108Y-112250025D02*
G75*
G02*
X100675274Y-112250025I1275083J0D01*
G01*
D10*
%TO.C,U102*%
X107108128Y-125800102D02*
G75*
G02*
X107048184Y-125800102I-29972J0D01*
G01*
X107048184Y-125800102D02*
G75*
G02*
X107108128Y-125800102I29972J0D01*
G01*
D17*
X107916103Y-124745999D02*
X107916103Y-125254001D01*
X107916103Y-125254001D02*
X108424104Y-125254001D01*
X108424104Y-125254001D02*
X108424104Y-124745999D01*
X108424104Y-124745999D02*
X107916103Y-124745999D01*
X107002108Y-123940030D02*
X110354102Y-123950013D01*
X110202108Y-126050013D02*
X107002159Y-126049987D01*
D12*
%TO.C,C102*%
X100246592Y-122011196D02*
X100445403Y-121812385D01*
X100967841Y-122732445D02*
X101166652Y-122533634D01*
%TO.C,C110*%
X101961219Y-128139970D02*
X102160030Y-128338781D01*
X101239970Y-128861219D02*
X101438781Y-129060030D01*
%TO.C,R102*%
X74720000Y-123953641D02*
X74720000Y-123646359D01*
X75480000Y-123953641D02*
X75480000Y-123646359D01*
%TO.C,TP202*%
X101451000Y-136250000D02*
G75*
G02*
X98949000Y-136250000I-1251000J0D01*
G01*
X98949000Y-136250000D02*
G75*
G02*
X101451000Y-136250000I1251000J0D01*
G01*
%TO.C,R101*%
X75553641Y-128480000D02*
X75246359Y-128480000D01*
X75553641Y-127720000D02*
X75246359Y-127720000D01*
%TO.C,C306*%
X84290000Y-131215580D02*
X84290000Y-130934420D01*
X85310000Y-131215580D02*
X85310000Y-130934420D01*
D13*
%TO.C,U104*%
X94150356Y-111493427D02*
X94150356Y-109156623D01*
X93770346Y-108669932D02*
X92875274Y-107774860D01*
X93401055Y-111325787D02*
X92600953Y-112125889D01*
X93401055Y-109326803D02*
X93401055Y-111325787D01*
X92875274Y-112875190D02*
X93770346Y-111980118D01*
X92875274Y-112875190D02*
X90325108Y-112875190D01*
X92875274Y-107774860D02*
X90325108Y-107774860D01*
X92600953Y-112125889D02*
X90701029Y-112125889D01*
X92499353Y-108425101D02*
X93401055Y-109326803D01*
X90800089Y-108425101D02*
X92499353Y-108425101D01*
X90701029Y-112125889D02*
X89799327Y-111224187D01*
X90325108Y-112875190D02*
X89430036Y-111980118D01*
X89799327Y-111224187D02*
X89799327Y-109425863D01*
X89799327Y-109425863D02*
X90800089Y-108425101D01*
X89430036Y-108669932D02*
X90325108Y-107774860D01*
X89050026Y-111493427D02*
X89050026Y-109156623D01*
D10*
X94880099Y-112874936D02*
G75*
G02*
X94820155Y-112874936I-29972J0D01*
G01*
X94820155Y-112874936D02*
G75*
G02*
X94880099Y-112874936I29972J0D01*
G01*
D13*
X92875274Y-110325025D02*
G75*
G02*
X90325108Y-110325025I-1275083J0D01*
G01*
X90325108Y-110325025D02*
G75*
G02*
X92875274Y-110325025I1275083J0D01*
G01*
D12*
%TO.C,C115*%
X101711219Y-130239970D02*
X101910030Y-130438781D01*
X100989970Y-130961219D02*
X101188781Y-131160030D01*
%TO.C,C118*%
X98211219Y-132939970D02*
X98410030Y-133138781D01*
X97489970Y-133661219D02*
X97688781Y-133860030D01*
%TO.C,U103*%
X98345692Y-126540381D02*
X98635605Y-126830294D01*
X93700000Y-121894689D02*
X94159619Y-122354308D01*
X98345692Y-127459619D02*
X98593179Y-127212132D01*
X93240381Y-122354308D02*
X93700000Y-121894689D01*
X94159619Y-131645692D02*
X93700000Y-132105311D01*
X89054308Y-126540381D02*
X88594689Y-127000000D01*
X93700000Y-132105311D02*
X93240381Y-131645692D01*
X88594689Y-127000000D02*
X89054308Y-127459619D01*
X99208362Y-127063640D02*
X98868951Y-127403051D01*
X98805311Y-127000000D01*
X99208362Y-127063640D01*
G36*
X99208362Y-127063640D02*
G01*
X98868951Y-127403051D01*
X98805311Y-127000000D01*
X99208362Y-127063640D01*
G37*
%TO.C,TP214*%
X83101000Y-121250000D02*
G75*
G02*
X80599000Y-121250000I-1251000J0D01*
G01*
X80599000Y-121250000D02*
G75*
G02*
X83101000Y-121250000I1251000J0D01*
G01*
%TO.C,C204*%
X82090580Y-136960000D02*
X81809420Y-136960000D01*
X82090580Y-135940000D02*
X81809420Y-135940000D01*
D10*
%TO.C,U203*%
X96094651Y-118453940D02*
G75*
G02*
X96034657Y-118453940I-29997J0D01*
G01*
X96034657Y-118453940D02*
G75*
G02*
X96094651Y-118453940I29997J0D01*
G01*
D16*
X95546312Y-118382564D02*
G75*
G02*
X95396450Y-118382564I-74931J0D01*
G01*
X95396450Y-118382564D02*
G75*
G02*
X95546312Y-118382564I74931J0D01*
G01*
D18*
X97231371Y-120398528D02*
X97492194Y-120137705D01*
X97242417Y-120126696D02*
X97503239Y-120387518D01*
D11*
X95003975Y-119514654D02*
X96135346Y-120646025D01*
X96064654Y-118453975D02*
X97196025Y-119585346D01*
D18*
X94827208Y-118842893D02*
X94968629Y-118984315D01*
D12*
%TO.C,TP102*%
X103301000Y-133800000D02*
G75*
G02*
X100799000Y-133800000I-1251000J0D01*
G01*
X100799000Y-133800000D02*
G75*
G02*
X103301000Y-133800000I1251000J0D01*
G01*
%TO.C,JP202*%
X78800064Y-118749935D02*
X79400064Y-118749935D01*
X80100064Y-119449935D02*
X80100064Y-120849935D01*
X78100064Y-120849935D02*
X78100064Y-119449935D01*
X79400064Y-121549935D02*
X78800064Y-121549935D01*
X79400064Y-118749935D02*
G75*
G02*
X80100064Y-119449935I1J-699999D01*
G01*
X78100064Y-119449935D02*
G75*
G02*
X78800064Y-118749935I699999J1D01*
G01*
X80100064Y-120849935D02*
G75*
G02*
X79400064Y-121549935I-700000J0D01*
G01*
X78800064Y-121549935D02*
G75*
G02*
X78100064Y-120849935I0J700000D01*
G01*
%TO.C,C303*%
X73940000Y-136440580D02*
X73940000Y-136159420D01*
X74960000Y-136440580D02*
X74960000Y-136159420D01*
%TO.C,U301*%
X81750000Y-130700000D02*
X80650000Y-130700000D01*
X81750000Y-132500000D02*
X80450000Y-132500000D01*
X80400000Y-130700000D02*
X80120000Y-130700000D01*
X80400000Y-130420000D01*
X80400000Y-130700000D01*
G36*
X80400000Y-130700000D02*
G01*
X80120000Y-130700000D01*
X80400000Y-130420000D01*
X80400000Y-130700000D01*
G37*
D11*
%TO.C,L301*%
X83426213Y-135212402D02*
X83426213Y-135201200D01*
X83426213Y-135201200D02*
X80773787Y-135201200D01*
X83426213Y-133048800D02*
X80773787Y-133048800D01*
X83426213Y-133037598D02*
X83426213Y-133048800D01*
X80773787Y-135201200D02*
X80773787Y-135212402D01*
X80773787Y-133048800D02*
X80773787Y-133037598D01*
D10*
X83379908Y-133125000D02*
G75*
G02*
X83319964Y-133125000I-29972J0D01*
G01*
X83319964Y-133125000D02*
G75*
G02*
X83379908Y-133125000I29972J0D01*
G01*
D12*
%TO.C,TP201*%
X101451000Y-139300000D02*
G75*
G02*
X98949000Y-139300000I-1251000J0D01*
G01*
X98949000Y-139300000D02*
G75*
G02*
X101451000Y-139300000I1251000J0D01*
G01*
%TO.C,TP212*%
X79751000Y-111250000D02*
G75*
G02*
X77249000Y-111250000I-1251000J0D01*
G01*
X77249000Y-111250000D02*
G75*
G02*
X79751000Y-111250000I1251000J0D01*
G01*
%TO.C,TP304*%
X69401000Y-141250000D02*
G75*
G02*
X66899000Y-141250000I-1251000J0D01*
G01*
X66899000Y-141250000D02*
G75*
G02*
X69401000Y-141250000I1251000J0D01*
G01*
%TO.C,TP301*%
X88601000Y-130600000D02*
G75*
G02*
X86099000Y-130600000I-1251000J0D01*
G01*
X86099000Y-130600000D02*
G75*
G02*
X88601000Y-130600000I1251000J0D01*
G01*
D11*
%TO.C,U202*%
X80026251Y-114573609D02*
X80026251Y-115427406D01*
X79672454Y-114573609D02*
X80026251Y-114573609D01*
X77727674Y-114573609D02*
X77373851Y-114573609D01*
X77373851Y-114573609D02*
X77373851Y-115427406D01*
X80026251Y-117726009D02*
X80026251Y-116872212D01*
X79672454Y-117726009D02*
X80026251Y-117726009D01*
X77727674Y-117726009D02*
X77373851Y-117726009D01*
X77373851Y-117726009D02*
X77373851Y-116872212D01*
D19*
X79562142Y-114117805D02*
G75*
G02*
X79361990Y-114117805I-100076J0D01*
G01*
X79361990Y-114117805D02*
G75*
G02*
X79562142Y-114117805I100076J0D01*
G01*
D10*
X79979972Y-114649936D02*
G75*
G02*
X79920028Y-114649936I-29972J0D01*
G01*
X79920028Y-114649936D02*
G75*
G02*
X79979972Y-114649936I29972J0D01*
G01*
D12*
%TO.C,TP305*%
X69501000Y-138050000D02*
G75*
G02*
X66999000Y-138050000I-1251000J0D01*
G01*
X66999000Y-138050000D02*
G75*
G02*
X69501000Y-138050000I1251000J0D01*
G01*
%TO.C,R104*%
X99149436Y-129112035D02*
X99366717Y-129329316D01*
X98612035Y-129649436D02*
X98829316Y-129866717D01*
%TO.C,C106*%
X98425866Y-124258268D02*
X98578369Y-124105765D01*
X98934983Y-124767385D02*
X99087486Y-124614882D01*
%TO.C,C108*%
X100028307Y-128269190D02*
X100180810Y-128421693D01*
X99519190Y-128778307D02*
X99671693Y-128930810D01*
%TO.C,TP213*%
X71551000Y-113450000D02*
G75*
G02*
X69049000Y-113450000I-1251000J0D01*
G01*
X69049000Y-113450000D02*
G75*
G02*
X71551000Y-113450000I1251000J0D01*
G01*
%TO.C,C104*%
X98318759Y-120351161D02*
X98471262Y-120198658D01*
X98827876Y-120860278D02*
X98980379Y-120707775D01*
%TO.C,R206*%
X70746359Y-117970000D02*
X71053641Y-117970000D01*
X70746359Y-118730000D02*
X71053641Y-118730000D01*
D10*
%TO.C,X101*%
X99821320Y-130727136D02*
G75*
G02*
X99761378Y-130727136I-29971J0D01*
G01*
X99761378Y-130727136D02*
G75*
G02*
X99821320Y-130727136I29971J0D01*
G01*
D11*
X99829606Y-130383550D02*
X99829606Y-130383550D01*
X99829606Y-130383550D02*
X101266450Y-131820394D01*
X101266450Y-131820394D02*
X99470394Y-133616450D01*
X99470394Y-133616450D02*
X98033550Y-132179606D01*
X98033550Y-132179606D02*
X99829606Y-130383550D01*
X99829606Y-130383550D02*
X99829606Y-130383550D01*
X100882094Y-131127118D02*
X99851158Y-130096182D01*
X99851158Y-130096182D02*
X98962111Y-130985230D01*
D12*
%TO.C,R203*%
X94539940Y-118072659D02*
X94322659Y-118289940D01*
X95077341Y-118610060D02*
X94860060Y-118827341D01*
%TO.C,C202*%
X77535000Y-119988748D02*
X77535000Y-120511252D01*
X76065000Y-119988748D02*
X76065000Y-120511252D01*
D13*
%TO.C,U101*%
X69772790Y-121731013D02*
X71635706Y-121731013D01*
X66054401Y-121731013D02*
X67535706Y-121731013D01*
X69772435Y-130671019D02*
X71636062Y-130671019D01*
X66054401Y-130671019D02*
X66054401Y-121731013D01*
X66054401Y-130671019D02*
X67536062Y-130671019D01*
D10*
X73934512Y-121725019D02*
G75*
G02*
X73874568Y-121725019I-29972J0D01*
G01*
X73874568Y-121725019D02*
G75*
G02*
X73934512Y-121725019I29972J0D01*
G01*
D12*
%TO.C,C103*%
X96428307Y-133069190D02*
X96580810Y-133221693D01*
X95919190Y-133578307D02*
X96071693Y-133730810D01*
%TO.C,TP206*%
X91601000Y-139250000D02*
G75*
G02*
X89099000Y-139250000I-1251000J0D01*
G01*
X89099000Y-139250000D02*
G75*
G02*
X91601000Y-139250000I1251000J0D01*
G01*
%TO.C,TP211*%
X82801000Y-111300000D02*
G75*
G02*
X80299000Y-111300000I-1251000J0D01*
G01*
X80299000Y-111300000D02*
G75*
G02*
X82801000Y-111300000I1251000J0D01*
G01*
%TO.C,C304*%
X78490000Y-131740580D02*
X78490000Y-131459420D01*
X79510000Y-131740580D02*
X79510000Y-131459420D01*
%TO.C,R201*%
X95977341Y-120939940D02*
X95760060Y-120722659D01*
X95439940Y-121477341D02*
X95222659Y-121260060D01*
%TO.C,JP201*%
X86550001Y-136150000D02*
X86550001Y-136750000D01*
X85850001Y-137450000D02*
X84450001Y-137450000D01*
X84450001Y-135450000D02*
X85850001Y-135450000D01*
X83750001Y-136750000D02*
X83750001Y-136150000D01*
X86550001Y-136750000D02*
G75*
G02*
X85850001Y-137450000I-699999J-1D01*
G01*
X85850001Y-135450000D02*
G75*
G02*
X86550001Y-136150000I1J-699999D01*
G01*
X84450001Y-137450000D02*
G75*
G02*
X83750001Y-136750000I0J700000D01*
G01*
X83750001Y-136150000D02*
G75*
G02*
X84450001Y-135450000I700000J0D01*
G01*
%TO.C,TP208*%
X85551000Y-139250000D02*
G75*
G02*
X83049000Y-139250000I-1251000J0D01*
G01*
X83049000Y-139250000D02*
G75*
G02*
X85551000Y-139250000I1251000J0D01*
G01*
%TO.C,TP303*%
X72351000Y-141900000D02*
G75*
G02*
X69849000Y-141900000I-1251000J0D01*
G01*
X69849000Y-141900000D02*
G75*
G02*
X72351000Y-141900000I1251000J0D01*
G01*
%TO.C,C305*%
X80992164Y-129665000D02*
X81207836Y-129665000D01*
X80992164Y-130385000D02*
X81207836Y-130385000D01*
%TO.C,TP203*%
X101451000Y-145400000D02*
G75*
G02*
X98949000Y-145400000I-1251000J0D01*
G01*
X98949000Y-145400000D02*
G75*
G02*
X101451000Y-145400000I1251000J0D01*
G01*
%TO.C,TP207*%
X88601000Y-139250000D02*
G75*
G02*
X86099000Y-139250000I-1251000J0D01*
G01*
X86099000Y-139250000D02*
G75*
G02*
X88601000Y-139250000I1251000J0D01*
G01*
%TO.C,C203*%
X76207836Y-115960000D02*
X75992164Y-115960000D01*
X76207836Y-115240000D02*
X75992164Y-115240000D01*
%TO.C,C101*%
X99246592Y-120911196D02*
X99445403Y-120712385D01*
X99967841Y-121632445D02*
X100166652Y-121433634D01*
%TO.C,TP205*%
X94651000Y-139250000D02*
G75*
G02*
X92149000Y-139250000I-1251000J0D01*
G01*
X92149000Y-139250000D02*
G75*
G02*
X94651000Y-139250000I1251000J0D01*
G01*
%TO.C,C105*%
X86660030Y-127361219D02*
X86461219Y-127560030D01*
X85938781Y-126639970D02*
X85739970Y-126838781D01*
%TO.C,TP302*%
X79151000Y-134650000D02*
G75*
G02*
X76649000Y-134650000I-1251000J0D01*
G01*
X76649000Y-134650000D02*
G75*
G02*
X79151000Y-134650000I1251000J0D01*
G01*
%TO.C,C114*%
X75560000Y-129392164D02*
X75560000Y-129607836D01*
X74840000Y-129392164D02*
X74840000Y-129607836D01*
%TO.C,TP306*%
X79401000Y-128500000D02*
G75*
G02*
X76899000Y-128500000I-1251000J0D01*
G01*
X76899000Y-128500000D02*
G75*
G02*
X79401000Y-128500000I1251000J0D01*
G01*
%TO.C,C107*%
X87393480Y-128112692D02*
X87240977Y-128265195D01*
X86884363Y-127603575D02*
X86731860Y-127756078D01*
%TO.C,TP204*%
X101451000Y-142350001D02*
G75*
G02*
X98949000Y-142350001I-1251000J0D01*
G01*
X98949000Y-142350001D02*
G75*
G02*
X101451000Y-142350001I1251000J0D01*
G01*
%TO.C,D301*%
X77850000Y-137440000D02*
X76150000Y-137440000D01*
X77850000Y-137440000D02*
X77850000Y-140100000D01*
X76150000Y-137440000D02*
X76150000Y-140100000D01*
%TO.C,R305*%
X80962742Y-128277501D02*
X81437258Y-128277501D01*
X80962742Y-129322501D02*
X81437258Y-129322501D01*
%TO.C,TP103*%
X96451000Y-115550000D02*
G75*
G02*
X93949000Y-115550000I-1251000J0D01*
G01*
X93949000Y-115550000D02*
G75*
G02*
X96451000Y-115550000I1251000J0D01*
G01*
%TO.C,TP101*%
X71751000Y-132700000D02*
G75*
G02*
X69249000Y-132700000I-1251000J0D01*
G01*
X69249000Y-132700000D02*
G75*
G02*
X71751000Y-132700000I1251000J0D01*
G01*
%TO.C,TP104*%
X85451000Y-109400000D02*
G75*
G02*
X82949000Y-109400000I-1251000J0D01*
G01*
X82949000Y-109400000D02*
G75*
G02*
X85451000Y-109400000I1251000J0D01*
G01*
%TD*%
D20*
X75150000Y-132250000D03*
X75450000Y-111250000D03*
X72399999Y-111250000D03*
X100200000Y-136250000D03*
X81850000Y-121250000D03*
X102050000Y-133800000D03*
X100200000Y-139300000D03*
X78500000Y-111250000D03*
X68150000Y-141250000D03*
X87350000Y-130600000D03*
X68250000Y-138050000D03*
X70300000Y-113450000D03*
X72354121Y-123300076D03*
X72354121Y-129099924D03*
D21*
X72854248Y-121874879D03*
D22*
X72854248Y-130525121D03*
D23*
X68674416Y-130525121D03*
X68674416Y-121874879D03*
D20*
X90350000Y-139250000D03*
X81550000Y-111300000D03*
X84300000Y-139250000D03*
X71100000Y-141900000D03*
X100200000Y-145400000D03*
X87350000Y-139250000D03*
X93400000Y-139250000D03*
X77900000Y-134650000D03*
X78150000Y-128500000D03*
X100200000Y-142350001D03*
X95200000Y-115550000D03*
X70500000Y-132700000D03*
X84200000Y-109400000D03*
M02*
