%TF.GenerationSoftware,KiCad,Pcbnew,8.0.5*%
%TF.CreationDate,2024-11-10T03:16:46-05:00*%
%TF.ProjectId,swarm-pcb,73776172-6d2d-4706-9362-2e6b69636164,rev?*%
%TF.SameCoordinates,Original*%
%TF.FileFunction,Copper,L4,Bot*%
%TF.FilePolarity,Positive*%
%FSLAX46Y46*%
G04 Gerber Fmt 4.6, Leading zero omitted, Abs format (unit mm)*
G04 Created by KiCad (PCBNEW 8.0.5) date 2024-11-10 03:16:46*
%MOMM*%
%LPD*%
G01*
G04 APERTURE LIST*
%TA.AperFunction,ComponentPad*%
%ADD10C,2.000000*%
%TD*%
%TA.AperFunction,ComponentPad*%
%ADD11O,2.000000X1.200000*%
%TD*%
%TA.AperFunction,ComponentPad*%
%ADD12O,1.800000X1.200000*%
%TD*%
%TA.AperFunction,ViaPad*%
%ADD13C,0.450000*%
%TD*%
%TA.AperFunction,Conductor*%
%ADD14C,0.800000*%
%TD*%
%TA.AperFunction,Conductor*%
%ADD15C,0.400000*%
%TD*%
%TA.AperFunction,Conductor*%
%ADD16C,0.200000*%
%TD*%
%TA.AperFunction,Conductor*%
%ADD17C,0.127000*%
%TD*%
%TA.AperFunction,Conductor*%
%ADD18C,0.238000*%
%TD*%
%TA.AperFunction,Conductor*%
%ADD19C,0.160000*%
%TD*%
%ADD20C,0.300000*%
%ADD21C,0.350000*%
%ADD22O,1.600025X0.800000*%
%ADD23O,1.599975X0.800000*%
%ADD24O,1.400000X0.800000*%
G04 APERTURE END LIST*
D10*
%TO.P,TP307,1,1*%
%TO.N,GND*%
X75150000Y-132250000D03*
%TD*%
%TO.P,TP209,1,1*%
%TO.N,/peripherals/SDI_IMU*%
X75450000Y-111250000D03*
%TD*%
%TO.P,TP210,1,1*%
%TO.N,/peripherals/SDO_IMU*%
X72399999Y-111250000D03*
%TD*%
%TO.P,TP202,1,1*%
%TO.N,MOTOR_CTRL_1*%
X100200000Y-136250000D03*
%TD*%
%TO.P,TP214,1,1*%
%TO.N,INT2*%
X81850000Y-121250000D03*
%TD*%
%TO.P,TP102,1,1*%
%TO.N,Net-(C115-Pad1)*%
X102050000Y-133800000D03*
%TD*%
%TO.P,TP201,1,1*%
%TO.N,MOTOR_CTRL_2*%
X100200000Y-139300000D03*
%TD*%
%TO.P,TP212,1,1*%
%TO.N,SCLK*%
X78500000Y-111250000D03*
%TD*%
%TO.P,TP304,1,1*%
%TO.N,/power/batt_stat*%
X68150000Y-141250000D03*
%TD*%
%TO.P,TP301,1,1*%
%TO.N,+3V3*%
X87350000Y-130600000D03*
%TD*%
%TO.P,TP305,1,1*%
%TO.N,Net-(U302-PROG)*%
X68250000Y-138050000D03*
%TD*%
%TO.P,TP213,1,1*%
%TO.N,INT1*%
X70300000Y-113450000D03*
%TD*%
D11*
%TO.P,U101,0,SH*%
%TO.N,GND*%
X72854248Y-121874879D03*
%TO.P,U101,1,SH*%
X72854248Y-130525121D03*
D12*
%TO.P,U101,2,SH*%
X68674416Y-130525121D03*
%TO.P,U101,3,SH*%
X68674416Y-121874879D03*
%TD*%
D10*
%TO.P,TP206,1,1*%
%TO.N,Net-(U201-OUT2)*%
X90350000Y-139250000D03*
%TD*%
%TO.P,TP211,1,1*%
%TO.N,CS*%
X81550000Y-111300000D03*
%TD*%
%TO.P,TP208,1,1*%
%TO.N,Net-(U201-OUT4)*%
X84300000Y-139250000D03*
%TD*%
%TO.P,TP303,1,1*%
%TO.N,+BATT*%
X71100000Y-141900000D03*
%TD*%
%TO.P,TP203,1,1*%
%TO.N,MOTOR_CTRL_4*%
X100200000Y-145400000D03*
%TD*%
%TO.P,TP207,1,1*%
%TO.N,Net-(U201-OUT3)*%
X87350000Y-139250000D03*
%TD*%
%TO.P,TP205,1,1*%
%TO.N,Net-(U201-OUT1)*%
X93400000Y-139250000D03*
%TD*%
%TO.P,TP302,1,1*%
%TO.N,VBUS*%
X77900000Y-134650000D03*
%TD*%
%TO.P,TP306,1,1*%
%TO.N,/power/FB_3V3*%
X78150000Y-128500000D03*
%TD*%
%TO.P,TP204,1,1*%
%TO.N,MOTOR_CTRL_3*%
X100200000Y-142350001D03*
%TD*%
%TO.P,TP103,1,1*%
%TO.N,/BOOT*%
X95200000Y-115550000D03*
%TD*%
%TO.P,TP101,1,1*%
%TO.N,+5V*%
X70500000Y-132700000D03*
%TD*%
%TO.P,TP104,1,1*%
%TO.N,/RESET*%
X84200000Y-109400000D03*
%TD*%
D13*
%TO.N,GND*%
X103206151Y-145046001D03*
X103206151Y-143046001D03*
X103206151Y-141046001D03*
X103206151Y-139046001D03*
X103206151Y-137046001D03*
X103206151Y-135046001D03*
X103206151Y-127046001D03*
X103206151Y-123046001D03*
X103206151Y-121046001D03*
X103206151Y-119046001D03*
X103206151Y-117046001D03*
X103206151Y-115046001D03*
X103206151Y-113046001D03*
X103206151Y-111046001D03*
X103206151Y-109046001D03*
X101206151Y-141046001D03*
X101206151Y-135046001D03*
X101206151Y-123046001D03*
X101206151Y-119046001D03*
X101206151Y-117046001D03*
X101206151Y-113046001D03*
X101206151Y-111046001D03*
X99206151Y-113046001D03*
X99206151Y-111046001D03*
X99206151Y-109046001D03*
X97206151Y-145046001D03*
X97206151Y-143046001D03*
X97206151Y-141046001D03*
X97206151Y-117046001D03*
X97206151Y-113046001D03*
X97206151Y-111046001D03*
X95206151Y-145046001D03*
X95206151Y-143046001D03*
X95206151Y-141046001D03*
X95206151Y-139046001D03*
X95206151Y-117046001D03*
X95206151Y-113046001D03*
X95206151Y-111046001D03*
X93206151Y-143046001D03*
X93206151Y-141046001D03*
X93206151Y-137046001D03*
X93206151Y-121046001D03*
X93206151Y-119046001D03*
X93206151Y-117046001D03*
X93206151Y-115046001D03*
X93206151Y-113046001D03*
X93206151Y-111046001D03*
X93206151Y-109046001D03*
X91206151Y-145046001D03*
X91206151Y-119046001D03*
X91206151Y-117046001D03*
X91206151Y-115046001D03*
X91206151Y-113046001D03*
X91206151Y-111046001D03*
X91206151Y-109046001D03*
X89206151Y-143046001D03*
X89206151Y-141046001D03*
X89206151Y-117046001D03*
X89206151Y-115046001D03*
X89206151Y-113046001D03*
X89206151Y-111046001D03*
X87206151Y-143046001D03*
X87206151Y-141046001D03*
X87206151Y-135046001D03*
X87206151Y-133046001D03*
X87206151Y-129046001D03*
X87206151Y-115046001D03*
X87206151Y-113046001D03*
X85206151Y-145046001D03*
X85206151Y-135046001D03*
X85206151Y-133046001D03*
X85206151Y-129046001D03*
X85206151Y-123046001D03*
X83206151Y-143046001D03*
X83206151Y-141046001D03*
X83206151Y-123046001D03*
X83206151Y-111046001D03*
X81206151Y-145046001D03*
X81206151Y-143046001D03*
X81206151Y-141046001D03*
X81206151Y-139046001D03*
X81206151Y-127046001D03*
X81206151Y-123046001D03*
X81206151Y-109046001D03*
X79206151Y-145046001D03*
X79206151Y-143046001D03*
X79206151Y-141046001D03*
X79206151Y-139046001D03*
X79206151Y-137046001D03*
X79206151Y-127046001D03*
X79206151Y-109046001D03*
X77206151Y-143046001D03*
X77206151Y-141046001D03*
X77206151Y-139046001D03*
X77206151Y-131046001D03*
X77206151Y-109046001D03*
X75206151Y-145046001D03*
X75206151Y-143046001D03*
X75206151Y-113046001D03*
X75206151Y-109046001D03*
X73206151Y-145046001D03*
X73206151Y-143046001D03*
X73206151Y-141046001D03*
X73206151Y-133046001D03*
X73206151Y-109046001D03*
X71206151Y-145046001D03*
X71206151Y-135046001D03*
X71206151Y-131046001D03*
X71206151Y-127046001D03*
X71206151Y-117046001D03*
X71206151Y-115046001D03*
X71206151Y-109046001D03*
X69206151Y-145046001D03*
X69206151Y-143046001D03*
X69206151Y-135046001D03*
X69206151Y-125046001D03*
X69206151Y-123046001D03*
X69206151Y-119046001D03*
X69206151Y-117046001D03*
X69206151Y-115046001D03*
X69206151Y-111046001D03*
X69206151Y-109046001D03*
X67206151Y-145046001D03*
X67206151Y-143046001D03*
X67206151Y-135046001D03*
X67206151Y-133046001D03*
X67206151Y-131046001D03*
X67206151Y-129046001D03*
X67206151Y-127046001D03*
X67206151Y-125046001D03*
X67206151Y-123046001D03*
X67206151Y-121046001D03*
X67206151Y-119046001D03*
X67206151Y-117046001D03*
X67206151Y-115046001D03*
X67206151Y-113046001D03*
X67206151Y-111046001D03*
X92650000Y-128200000D03*
X94900000Y-128150000D03*
X94850000Y-125850000D03*
X92650000Y-125850000D03*
X93700000Y-125850000D03*
X93700000Y-128200000D03*
X94900000Y-127000000D03*
X92650000Y-127000000D03*
X93700000Y-127000000D03*
X93700000Y-129400000D03*
X93700000Y-124700000D03*
X91600000Y-127000000D03*
X96000000Y-127000000D03*
X81850000Y-116000000D03*
X87450000Y-119300000D03*
X86700000Y-118950000D03*
X97650000Y-122600000D03*
X90750000Y-136700000D03*
X88750000Y-121450000D03*
X72250000Y-126950000D03*
X72050000Y-126300000D03*
X72050000Y-125450000D03*
X75400000Y-126650000D03*
X85700000Y-125900000D03*
X87900000Y-125850000D03*
X85000000Y-126300000D03*
X81650000Y-126150000D03*
X80350000Y-126200000D03*
X78900000Y-126200000D03*
X77550000Y-126250000D03*
X76450000Y-126400000D03*
X88200000Y-124200000D03*
X86900000Y-124200000D03*
X84550000Y-124050000D03*
X83450000Y-124050000D03*
X82150000Y-124000000D03*
X79850000Y-124150000D03*
X78800000Y-124100000D03*
X77700000Y-124100000D03*
X76550000Y-124000000D03*
X75250000Y-116650000D03*
X77050000Y-118000000D03*
X75400000Y-117600000D03*
X78050000Y-122100000D03*
X85250000Y-121900000D03*
X85100000Y-120500000D03*
X101421358Y-126867267D03*
X101800000Y-127300000D03*
X102200000Y-127700000D03*
X102650000Y-128050000D03*
X103100000Y-128450000D03*
X103550000Y-128850000D03*
X103450000Y-129400000D03*
X103050000Y-129850000D03*
X103500000Y-131700000D03*
X103500000Y-131100000D03*
X103100000Y-130650000D03*
X102650000Y-130250000D03*
X102500000Y-132150000D03*
X101400000Y-132250000D03*
X100850000Y-132700000D03*
X100400000Y-133050000D03*
X100150000Y-133550000D03*
X99566469Y-133824556D03*
X99800000Y-134350000D03*
X99250000Y-134600000D03*
X98800000Y-135000000D03*
X98400000Y-135450000D03*
X97950000Y-134900000D03*
X97400000Y-134800000D03*
X97200000Y-134250000D03*
X97450000Y-131250000D03*
X96806588Y-131143412D03*
X96900000Y-129900000D03*
X96500000Y-130350000D03*
X96229797Y-130843600D03*
X96400000Y-131550000D03*
X96600000Y-132200000D03*
X97006588Y-131793412D03*
X97850000Y-131650000D03*
X98100000Y-131100000D03*
X97600000Y-130600000D03*
X97050000Y-130600000D03*
X98050000Y-129650000D03*
X98800000Y-130500000D03*
X98400000Y-130100000D03*
%TO.N,+3V3*%
X83250000Y-113050000D03*
X97000000Y-118650000D03*
X97900000Y-121550000D03*
X100300000Y-127200000D03*
X94650000Y-132700000D03*
X88700000Y-122400000D03*
X76350000Y-116800000D03*
X79150000Y-122100000D03*
X83600000Y-128650000D03*
%TO.N,SCLK*%
X81550000Y-114100000D03*
%TO.N,CS*%
X82700000Y-114250000D03*
%TO.N,/peripherals/SDI_IMU*%
X80450000Y-114907000D03*
X80400000Y-113800000D03*
%TO.N,CS*%
X92150000Y-121400000D03*
X80950000Y-117000000D03*
%TO.N,SCLK*%
X80650000Y-116150000D03*
X91522587Y-122377413D03*
%TO.N,GND*%
X90200000Y-133450000D03*
%TO.N,MOTOR_CTRL_4*%
X88450000Y-132700000D03*
%TO.N,MOTOR_CTRL_3*%
X89550000Y-132350000D03*
%TO.N,MOTOR_CTRL_2*%
X90950000Y-132450000D03*
%TO.N,MOTOR_CTRL_1*%
X93100000Y-132700000D03*
%TO.N,GND*%
X90900000Y-130950000D03*
X91600000Y-131850000D03*
%TD*%
D14*
%TO.N,+3V3*%
X97900000Y-121550000D02*
X98450000Y-122100000D01*
X98450000Y-122100000D02*
X98450000Y-123250000D01*
X98450000Y-123250000D02*
X97300000Y-124400000D01*
X97300000Y-124400000D02*
X97300000Y-127650000D01*
X98000000Y-121450000D02*
X98000000Y-119650000D01*
X98000000Y-119650000D02*
X97000000Y-118650000D01*
X97900000Y-121550000D02*
X98000000Y-121450000D01*
X100300000Y-127200000D02*
X99800000Y-127700000D01*
X99800000Y-127700000D02*
X97350000Y-127700000D01*
X97350000Y-127700000D02*
X97300000Y-127650000D01*
X94650000Y-130300000D02*
X97300000Y-127650000D01*
X94650000Y-132700000D02*
X94650000Y-130300000D01*
D15*
X88700000Y-122400000D02*
X87750000Y-122400000D01*
X87750000Y-122400000D02*
X83600000Y-126550000D01*
X80100000Y-113050000D02*
X83250000Y-113050000D01*
X76350000Y-116800000D02*
X80100000Y-113050000D01*
D14*
X91550000Y-129600000D02*
X94650000Y-132700000D01*
X88350000Y-129600000D02*
X91550000Y-129600000D01*
X87350000Y-130600000D02*
X88350000Y-129600000D01*
D15*
X76350000Y-119300000D02*
X76350000Y-116800000D01*
X79150000Y-122100000D02*
X76350000Y-119300000D01*
X83600000Y-126550000D02*
X79150000Y-122100000D01*
X83600000Y-128650000D02*
X83600000Y-126550000D01*
D16*
%TO.N,CS*%
X82700000Y-114250000D02*
X82700000Y-114840500D01*
X82700000Y-114840500D02*
X82713500Y-114854000D01*
X82713500Y-114854000D02*
X82700000Y-114854000D01*
%TO.N,/peripherals/SDI_IMU*%
X80400000Y-113800000D02*
X80400000Y-114857000D01*
X80400000Y-114857000D02*
X80450000Y-114907000D01*
D17*
%TO.N,CS*%
X85640500Y-114890500D02*
X92150000Y-121400000D01*
X81321894Y-114890500D02*
X85640500Y-114890500D01*
X80912394Y-117000000D02*
X80234500Y-116322106D01*
X80234500Y-115977894D02*
X81321894Y-114890500D01*
X80234500Y-116322106D02*
X80234500Y-115977894D01*
X80950000Y-117000000D02*
X80912394Y-117000000D01*
D18*
%TO.N,SCLK*%
X80650000Y-116150000D02*
X81600000Y-115200000D01*
X81600000Y-115200000D02*
X84345174Y-115200000D01*
X84345174Y-115200000D02*
X91522587Y-122377413D01*
D19*
%TO.N,MOTOR_CTRL_4*%
X88450000Y-132700000D02*
X91600000Y-135850000D01*
X91600000Y-135850000D02*
X92950000Y-135850000D01*
X92950000Y-135850000D02*
X98200000Y-141100000D01*
X98200000Y-141100000D02*
X98200000Y-143400000D01*
X98200000Y-143400000D02*
X100200000Y-145400000D01*
%TO.N,MOTOR_CTRL_3*%
X90518000Y-132618000D02*
X90518000Y-132628941D01*
X100200000Y-142300000D02*
X100200000Y-142350001D01*
X90250000Y-132350000D02*
X90518000Y-132618000D01*
X90518000Y-132628941D02*
X90771059Y-132882000D01*
X89550000Y-132350000D02*
X90250000Y-132350000D01*
X90771059Y-132882000D02*
X90782000Y-132882000D01*
X90782000Y-132882000D02*
X100200000Y-142300000D01*
%TO.N,MOTOR_CTRL_2*%
X96265000Y-136615000D02*
X97765000Y-136615000D01*
X90950000Y-132450000D02*
X92100000Y-132450000D01*
X92100000Y-132450000D02*
X96265000Y-136615000D01*
X97765000Y-136615000D02*
X100200000Y-139050000D01*
X100200000Y-139050000D02*
X100200000Y-139300000D01*
%TO.N,MOTOR_CTRL_1*%
X100200000Y-136250000D02*
X96650000Y-136250000D01*
X96650000Y-136250000D02*
X93100000Y-132700000D01*
%TD*%
%TA.AperFunction,Conductor*%
%TO.N,GND*%
G36*
X105181694Y-107568806D02*
G01*
X105200000Y-107613000D01*
X105200000Y-147087000D01*
X105181694Y-147131194D01*
X105137500Y-147149500D01*
X70001540Y-147149500D01*
X69998473Y-147149425D01*
X69630652Y-147131354D01*
X69624548Y-147130753D01*
X69261785Y-147076943D01*
X69255770Y-147075746D01*
X68900038Y-146986640D01*
X68894168Y-146984859D01*
X68548884Y-146861314D01*
X68543218Y-146858967D01*
X68211704Y-146702173D01*
X68206295Y-146699282D01*
X67891742Y-146510746D01*
X67886642Y-146507338D01*
X67862056Y-146489104D01*
X67755074Y-146409760D01*
X67592088Y-146288881D01*
X67587354Y-146284997D01*
X67315622Y-146038713D01*
X67311286Y-146034377D01*
X67276588Y-145996094D01*
X67065000Y-145762643D01*
X67061118Y-145757911D01*
X67037741Y-145726391D01*
X66842657Y-145463351D01*
X66839253Y-145458257D01*
X66650712Y-145143695D01*
X66647831Y-145138304D01*
X66491028Y-144806772D01*
X66488689Y-144801125D01*
X66365137Y-144455821D01*
X66363362Y-144449971D01*
X66274252Y-144094225D01*
X66273056Y-144088214D01*
X66219246Y-143725451D01*
X66218645Y-143719347D01*
X66200575Y-143351526D01*
X66200500Y-143348459D01*
X66200500Y-141249995D01*
X67017670Y-141249995D01*
X67017670Y-141250004D01*
X67036948Y-141458057D01*
X67036950Y-141458068D01*
X67073679Y-141587155D01*
X67094134Y-141659045D01*
X67187274Y-141846095D01*
X67187275Y-141846096D01*
X67187277Y-141846100D01*
X67313189Y-142012836D01*
X67313194Y-142012841D01*
X67313198Y-142012846D01*
X67417640Y-142108057D01*
X67467614Y-142153615D01*
X67467615Y-142153616D01*
X67467619Y-142153619D01*
X67645277Y-142263620D01*
X67840123Y-142339104D01*
X68045522Y-142377500D01*
X68045525Y-142377500D01*
X68254475Y-142377500D01*
X68254478Y-142377500D01*
X68459877Y-142339104D01*
X68654723Y-142263620D01*
X68832381Y-142153619D01*
X68986802Y-142012846D01*
X69041092Y-141940955D01*
X69072023Y-141899995D01*
X69967670Y-141899995D01*
X69967670Y-141900004D01*
X69986948Y-142108057D01*
X69986950Y-142108068D01*
X69999911Y-142153619D01*
X70044134Y-142309045D01*
X70137274Y-142496095D01*
X70137275Y-142496096D01*
X70137277Y-142496100D01*
X70263189Y-142662836D01*
X70263194Y-142662841D01*
X70263198Y-142662846D01*
X70367938Y-142758329D01*
X70417614Y-142803615D01*
X70417615Y-142803616D01*
X70417619Y-142803619D01*
X70595277Y-142913620D01*
X70790123Y-142989104D01*
X70995522Y-143027500D01*
X70995525Y-143027500D01*
X71204475Y-143027500D01*
X71204478Y-143027500D01*
X71409877Y-142989104D01*
X71604723Y-142913620D01*
X71782381Y-142803619D01*
X71936802Y-142662846D01*
X72062726Y-142496095D01*
X72155866Y-142309045D01*
X72213050Y-142108065D01*
X72213051Y-142108057D01*
X72232330Y-141900004D01*
X72232330Y-141899995D01*
X72213051Y-141691942D01*
X72213049Y-141691931D01*
X72183237Y-141587155D01*
X72155866Y-141490955D01*
X72062726Y-141303905D01*
X72062723Y-141303901D01*
X72062722Y-141303899D01*
X71936810Y-141137163D01*
X71936805Y-141137158D01*
X71936802Y-141137154D01*
X71832359Y-141041942D01*
X71782385Y-140996384D01*
X71782382Y-140996382D01*
X71782381Y-140996381D01*
X71604723Y-140886380D01*
X71604721Y-140886379D01*
X71548089Y-140864440D01*
X71409877Y-140810896D01*
X71409874Y-140810895D01*
X71409873Y-140810895D01*
X71204482Y-140772500D01*
X71204478Y-140772500D01*
X70995522Y-140772500D01*
X70995517Y-140772500D01*
X70790126Y-140810895D01*
X70595278Y-140886379D01*
X70417614Y-140996384D01*
X70263196Y-141137156D01*
X70263189Y-141137163D01*
X70137277Y-141303899D01*
X70137274Y-141303905D01*
X70044134Y-141490954D01*
X69986950Y-141691931D01*
X69986948Y-141691942D01*
X69967670Y-141899995D01*
X69072023Y-141899995D01*
X69112722Y-141846100D01*
X69112721Y-141846100D01*
X69112726Y-141846095D01*
X69205866Y-141659045D01*
X69263050Y-141458065D01*
X69263051Y-141458057D01*
X69282330Y-141250004D01*
X69282330Y-141249995D01*
X69263051Y-141041942D01*
X69263049Y-141041931D01*
X69246128Y-140982460D01*
X69205866Y-140840955D01*
X69112726Y-140653905D01*
X69112723Y-140653901D01*
X69112722Y-140653899D01*
X68986810Y-140487163D01*
X68986805Y-140487158D01*
X68986802Y-140487154D01*
X68866516Y-140377499D01*
X68832385Y-140346384D01*
X68832382Y-140346382D01*
X68832381Y-140346381D01*
X68654723Y-140236380D01*
X68654721Y-140236379D01*
X68570147Y-140203615D01*
X68459877Y-140160896D01*
X68459874Y-140160895D01*
X68459873Y-140160895D01*
X68254482Y-140122500D01*
X68254478Y-140122500D01*
X68045522Y-140122500D01*
X68045517Y-140122500D01*
X67840126Y-140160895D01*
X67645278Y-140236379D01*
X67467614Y-140346384D01*
X67313196Y-140487156D01*
X67313189Y-140487163D01*
X67187277Y-140653899D01*
X67187274Y-140653905D01*
X67094134Y-140840954D01*
X67036950Y-141041931D01*
X67036948Y-141041942D01*
X67017670Y-141249995D01*
X66200500Y-141249995D01*
X66200500Y-139249995D01*
X83167670Y-139249995D01*
X83167670Y-139250004D01*
X83186948Y-139458057D01*
X83186950Y-139458068D01*
X83201176Y-139508065D01*
X83244134Y-139659045D01*
X83337274Y-139846095D01*
X83337275Y-139846096D01*
X83337277Y-139846100D01*
X83463189Y-140012836D01*
X83463194Y-140012841D01*
X83463198Y-140012846D01*
X83518046Y-140062846D01*
X83617614Y-140153615D01*
X83617615Y-140153616D01*
X83617619Y-140153619D01*
X83795277Y-140263620D01*
X83990123Y-140339104D01*
X84195522Y-140377500D01*
X84195525Y-140377500D01*
X84404475Y-140377500D01*
X84404478Y-140377500D01*
X84609877Y-140339104D01*
X84804723Y-140263620D01*
X84982381Y-140153619D01*
X85136802Y-140012846D01*
X85262726Y-139846095D01*
X85355866Y-139659045D01*
X85413050Y-139458065D01*
X85413051Y-139458057D01*
X85432330Y-139250004D01*
X85432330Y-139249995D01*
X86217670Y-139249995D01*
X86217670Y-139250004D01*
X86236948Y-139458057D01*
X86236950Y-139458068D01*
X86251176Y-139508065D01*
X86294134Y-139659045D01*
X86387274Y-139846095D01*
X86387275Y-139846096D01*
X86387277Y-139846100D01*
X86513189Y-140012836D01*
X86513194Y-140012841D01*
X86513198Y-140012846D01*
X86568046Y-140062846D01*
X86667614Y-140153615D01*
X86667615Y-140153616D01*
X86667619Y-140153619D01*
X86845277Y-140263620D01*
X87040123Y-140339104D01*
X87245522Y-140377500D01*
X87245525Y-140377500D01*
X87454475Y-140377500D01*
X87454478Y-140377500D01*
X87659877Y-140339104D01*
X87854723Y-140263620D01*
X88032381Y-140153619D01*
X88186802Y-140012846D01*
X88312726Y-139846095D01*
X88405866Y-139659045D01*
X88463050Y-139458065D01*
X88463051Y-139458057D01*
X88482330Y-139250004D01*
X88482330Y-139249995D01*
X89217670Y-139249995D01*
X89217670Y-139250004D01*
X89236948Y-139458057D01*
X89236950Y-139458068D01*
X89251176Y-139508065D01*
X89294134Y-139659045D01*
X89387274Y-139846095D01*
X89387275Y-139846096D01*
X89387277Y-139846100D01*
X89513189Y-140012836D01*
X89513194Y-140012841D01*
X89513198Y-140012846D01*
X89568046Y-140062846D01*
X89667614Y-140153615D01*
X89667615Y-140153616D01*
X89667619Y-140153619D01*
X89845277Y-140263620D01*
X90040123Y-140339104D01*
X90245522Y-140377500D01*
X90245525Y-140377500D01*
X90454475Y-140377500D01*
X90454478Y-140377500D01*
X90659877Y-140339104D01*
X90854723Y-140263620D01*
X91032381Y-140153619D01*
X91186802Y-140012846D01*
X91312726Y-139846095D01*
X91405866Y-139659045D01*
X91463050Y-139458065D01*
X91463051Y-139458057D01*
X91482330Y-139250004D01*
X91482330Y-139249995D01*
X92267670Y-139249995D01*
X92267670Y-139250004D01*
X92286948Y-139458057D01*
X92286950Y-139458068D01*
X92301176Y-139508065D01*
X92344134Y-139659045D01*
X92437274Y-139846095D01*
X92437275Y-139846096D01*
X92437277Y-139846100D01*
X92563189Y-140012836D01*
X92563194Y-140012841D01*
X92563198Y-140012846D01*
X92618046Y-140062846D01*
X92717614Y-140153615D01*
X92717615Y-140153616D01*
X92717619Y-140153619D01*
X92895277Y-140263620D01*
X93090123Y-140339104D01*
X93295522Y-140377500D01*
X93295525Y-140377500D01*
X93504475Y-140377500D01*
X93504478Y-140377500D01*
X93709877Y-140339104D01*
X93904723Y-140263620D01*
X94082381Y-140153619D01*
X94236802Y-140012846D01*
X94362726Y-139846095D01*
X94455866Y-139659045D01*
X94513050Y-139458065D01*
X94513051Y-139458057D01*
X94532330Y-139250004D01*
X94532330Y-139249995D01*
X94513051Y-139041942D01*
X94513049Y-139041931D01*
X94487922Y-138953619D01*
X94455866Y-138840955D01*
X94362726Y-138653905D01*
X94362723Y-138653901D01*
X94362722Y-138653899D01*
X94236810Y-138487163D01*
X94236805Y-138487158D01*
X94236802Y-138487154D01*
X94137229Y-138396381D01*
X94082385Y-138346384D01*
X94082382Y-138346382D01*
X94082381Y-138346381D01*
X93904723Y-138236380D01*
X93904721Y-138236379D01*
X93838939Y-138210895D01*
X93709877Y-138160896D01*
X93709874Y-138160895D01*
X93709873Y-138160895D01*
X93504482Y-138122500D01*
X93504478Y-138122500D01*
X93295522Y-138122500D01*
X93295517Y-138122500D01*
X93090126Y-138160895D01*
X92895278Y-138236379D01*
X92717614Y-138346384D01*
X92563196Y-138487156D01*
X92563189Y-138487163D01*
X92437277Y-138653899D01*
X92437274Y-138653905D01*
X92344134Y-138840954D01*
X92286950Y-139041931D01*
X92286948Y-139041942D01*
X92267670Y-139249995D01*
X91482330Y-139249995D01*
X91463051Y-139041942D01*
X91463049Y-139041931D01*
X91437922Y-138953619D01*
X91405866Y-138840955D01*
X91312726Y-138653905D01*
X91312723Y-138653901D01*
X91312722Y-138653899D01*
X91186810Y-138487163D01*
X91186805Y-138487158D01*
X91186802Y-138487154D01*
X91087229Y-138396381D01*
X91032385Y-138346384D01*
X91032382Y-138346382D01*
X91032381Y-138346381D01*
X90854723Y-138236380D01*
X90854721Y-138236379D01*
X90788939Y-138210895D01*
X90659877Y-138160896D01*
X90659874Y-138160895D01*
X90659873Y-138160895D01*
X90454482Y-138122500D01*
X90454478Y-138122500D01*
X90245522Y-138122500D01*
X90245517Y-138122500D01*
X90040126Y-138160895D01*
X89845278Y-138236379D01*
X89667614Y-138346384D01*
X89513196Y-138487156D01*
X89513189Y-138487163D01*
X89387277Y-138653899D01*
X89387274Y-138653905D01*
X89294134Y-138840954D01*
X89236950Y-139041931D01*
X89236948Y-139041942D01*
X89217670Y-139249995D01*
X88482330Y-139249995D01*
X88463051Y-139041942D01*
X88463049Y-139041931D01*
X88437922Y-138953619D01*
X88405866Y-138840955D01*
X88312726Y-138653905D01*
X88312723Y-138653901D01*
X88312722Y-138653899D01*
X88186810Y-138487163D01*
X88186805Y-138487158D01*
X88186802Y-138487154D01*
X88087229Y-138396381D01*
X88032385Y-138346384D01*
X88032382Y-138346382D01*
X88032381Y-138346381D01*
X87854723Y-138236380D01*
X87854721Y-138236379D01*
X87788939Y-138210895D01*
X87659877Y-138160896D01*
X87659874Y-138160895D01*
X87659873Y-138160895D01*
X87454482Y-138122500D01*
X87454478Y-138122500D01*
X87245522Y-138122500D01*
X87245517Y-138122500D01*
X87040126Y-138160895D01*
X86845278Y-138236379D01*
X86667614Y-138346384D01*
X86513196Y-138487156D01*
X86513189Y-138487163D01*
X86387277Y-138653899D01*
X86387274Y-138653905D01*
X86294134Y-138840954D01*
X86236950Y-139041931D01*
X86236948Y-139041942D01*
X86217670Y-139249995D01*
X85432330Y-139249995D01*
X85413051Y-139041942D01*
X85413049Y-139041931D01*
X85387922Y-138953619D01*
X85355866Y-138840955D01*
X85262726Y-138653905D01*
X85262723Y-138653901D01*
X85262722Y-138653899D01*
X85136810Y-138487163D01*
X85136805Y-138487158D01*
X85136802Y-138487154D01*
X85037229Y-138396381D01*
X84982385Y-138346384D01*
X84982382Y-138346382D01*
X84982381Y-138346381D01*
X84804723Y-138236380D01*
X84804721Y-138236379D01*
X84738939Y-138210895D01*
X84609877Y-138160896D01*
X84609874Y-138160895D01*
X84609873Y-138160895D01*
X84404482Y-138122500D01*
X84404478Y-138122500D01*
X84195522Y-138122500D01*
X84195517Y-138122500D01*
X83990126Y-138160895D01*
X83795278Y-138236379D01*
X83617614Y-138346384D01*
X83463196Y-138487156D01*
X83463189Y-138487163D01*
X83337277Y-138653899D01*
X83337274Y-138653905D01*
X83244134Y-138840954D01*
X83186950Y-139041931D01*
X83186948Y-139041942D01*
X83167670Y-139249995D01*
X66200500Y-139249995D01*
X66200500Y-138049995D01*
X67117670Y-138049995D01*
X67117670Y-138050004D01*
X67136948Y-138258057D01*
X67136950Y-138258068D01*
X67145006Y-138286380D01*
X67194134Y-138459045D01*
X67287274Y-138646095D01*
X67287275Y-138646096D01*
X67287277Y-138646100D01*
X67413189Y-138812836D01*
X67413194Y-138812841D01*
X67413198Y-138812846D01*
X67498879Y-138890954D01*
X67567614Y-138953615D01*
X67567615Y-138953616D01*
X67567619Y-138953619D01*
X67745277Y-139063620D01*
X67940123Y-139139104D01*
X68145522Y-139177500D01*
X68145525Y-139177500D01*
X68354475Y-139177500D01*
X68354478Y-139177500D01*
X68559877Y-139139104D01*
X68754723Y-139063620D01*
X68932381Y-138953619D01*
X69086802Y-138812846D01*
X69212726Y-138646095D01*
X69305866Y-138459045D01*
X69363050Y-138258065D01*
X69363989Y-138247934D01*
X69382330Y-138050004D01*
X69382330Y-138049995D01*
X69363051Y-137841942D01*
X69363049Y-137841931D01*
X69353797Y-137809414D01*
X69305866Y-137640955D01*
X69212726Y-137453905D01*
X69212723Y-137453901D01*
X69212722Y-137453899D01*
X69086810Y-137287163D01*
X69086805Y-137287158D01*
X69086802Y-137287154D01*
X68940321Y-137153619D01*
X68932385Y-137146384D01*
X68932382Y-137146382D01*
X68932381Y-137146381D01*
X68754723Y-137036380D01*
X68754721Y-137036379D01*
X68693949Y-137012836D01*
X68559877Y-136960896D01*
X68559874Y-136960895D01*
X68559873Y-136960895D01*
X68354482Y-136922500D01*
X68354478Y-136922500D01*
X68145522Y-136922500D01*
X68145517Y-136922500D01*
X67940126Y-136960895D01*
X67745278Y-137036379D01*
X67567614Y-137146384D01*
X67413196Y-137287156D01*
X67413189Y-137287163D01*
X67287277Y-137453899D01*
X67287274Y-137453905D01*
X67194134Y-137640954D01*
X67136950Y-137841931D01*
X67136948Y-137841942D01*
X67117670Y-138049995D01*
X66200500Y-138049995D01*
X66200500Y-134649995D01*
X76767670Y-134649995D01*
X76767670Y-134650004D01*
X76786948Y-134858057D01*
X76786950Y-134858068D01*
X76844134Y-135059045D01*
X76937274Y-135246095D01*
X76937275Y-135246096D01*
X76937277Y-135246100D01*
X77063189Y-135412836D01*
X77063194Y-135412841D01*
X77063198Y-135412846D01*
X77144720Y-135487163D01*
X77217614Y-135553615D01*
X77217615Y-135553616D01*
X77217619Y-135553619D01*
X77395277Y-135663620D01*
X77590123Y-135739104D01*
X77795522Y-135777500D01*
X77795525Y-135777500D01*
X78004475Y-135777500D01*
X78004478Y-135777500D01*
X78209877Y-135739104D01*
X78404723Y-135663620D01*
X78582381Y-135553619D01*
X78736802Y-135412846D01*
X78862726Y-135246095D01*
X78955866Y-135059045D01*
X79013050Y-134858065D01*
X79013051Y-134858057D01*
X79032330Y-134650004D01*
X79032330Y-134649995D01*
X79013051Y-134441942D01*
X79013049Y-134441931D01*
X79000007Y-134396094D01*
X78955866Y-134240955D01*
X78862726Y-134053905D01*
X78862723Y-134053901D01*
X78862722Y-134053899D01*
X78736810Y-133887163D01*
X78736805Y-133887158D01*
X78736802Y-133887154D01*
X78629246Y-133789104D01*
X78582385Y-133746384D01*
X78582382Y-133746382D01*
X78582381Y-133746381D01*
X78404723Y-133636380D01*
X78404721Y-133636379D01*
X78320147Y-133603615D01*
X78209877Y-133560896D01*
X78209874Y-133560895D01*
X78209873Y-133560895D01*
X78004482Y-133522500D01*
X78004478Y-133522500D01*
X77795522Y-133522500D01*
X77795517Y-133522500D01*
X77590126Y-133560895D01*
X77395278Y-133636379D01*
X77217614Y-133746384D01*
X77063196Y-133887156D01*
X77063189Y-133887163D01*
X76937277Y-134053899D01*
X76937274Y-134053905D01*
X76844134Y-134240954D01*
X76786950Y-134441931D01*
X76786948Y-134441942D01*
X76767670Y-134649995D01*
X66200500Y-134649995D01*
X66200500Y-132699995D01*
X69367670Y-132699995D01*
X69367670Y-132700004D01*
X69386948Y-132908057D01*
X69386950Y-132908068D01*
X69433234Y-133070737D01*
X69444134Y-133109045D01*
X69537274Y-133296095D01*
X69537275Y-133296096D01*
X69537277Y-133296100D01*
X69663189Y-133462836D01*
X69663194Y-133462841D01*
X69663198Y-133462846D01*
X69742499Y-133535138D01*
X69817614Y-133603615D01*
X69817615Y-133603616D01*
X69817619Y-133603619D01*
X69995277Y-133713620D01*
X70190123Y-133789104D01*
X70395522Y-133827500D01*
X70395525Y-133827500D01*
X70604475Y-133827500D01*
X70604478Y-133827500D01*
X70809877Y-133789104D01*
X71004723Y-133713620D01*
X71182381Y-133603619D01*
X71336802Y-133462846D01*
X71391092Y-133390955D01*
X71462722Y-133296100D01*
X71462721Y-133296100D01*
X71462726Y-133296095D01*
X71555866Y-133109045D01*
X71613050Y-132908065D01*
X71613463Y-132903607D01*
X71632330Y-132700004D01*
X71632330Y-132699995D01*
X71613051Y-132491942D01*
X71613049Y-132491931D01*
X71590098Y-132411267D01*
X71555866Y-132290955D01*
X71535471Y-132249997D01*
X73845034Y-132249997D01*
X73845034Y-132250002D01*
X73864858Y-132476601D01*
X73864861Y-132476617D01*
X73923731Y-132696321D01*
X73923732Y-132696323D01*
X74019865Y-132902482D01*
X74129215Y-133058650D01*
X74129215Y-133058651D01*
X74706328Y-132481537D01*
X74749901Y-132557007D01*
X74842993Y-132650099D01*
X74918460Y-132693670D01*
X74341348Y-133270782D01*
X74497520Y-133380135D01*
X74703676Y-133476267D01*
X74703678Y-133476268D01*
X74923382Y-133535138D01*
X74923398Y-133535141D01*
X75149998Y-133554966D01*
X75150002Y-133554966D01*
X75376601Y-133535141D01*
X75376617Y-133535138D01*
X75596321Y-133476268D01*
X75596323Y-133476267D01*
X75802479Y-133380135D01*
X75958650Y-133270782D01*
X75381538Y-132693670D01*
X75457007Y-132650099D01*
X75550099Y-132557007D01*
X75593670Y-132481538D01*
X76170782Y-133058650D01*
X76280135Y-132902479D01*
X76374554Y-132699996D01*
X88093106Y-132699996D01*
X88093106Y-132700003D01*
X88110572Y-132810282D01*
X88110574Y-132810287D01*
X88160396Y-132908068D01*
X88161267Y-132909777D01*
X88240223Y-132988733D01*
X88339714Y-133039426D01*
X88339717Y-133039427D01*
X88449997Y-133056894D01*
X88450000Y-133056894D01*
X88450001Y-133056894D01*
X88459345Y-133055413D01*
X88473314Y-133053201D01*
X88519828Y-133064367D01*
X88527287Y-133070737D01*
X91424090Y-135967539D01*
X91482461Y-136025910D01*
X91558726Y-136057500D01*
X92838162Y-136057500D01*
X92882356Y-136075806D01*
X97974194Y-141167644D01*
X97992500Y-141211838D01*
X97992500Y-143358725D01*
X97992500Y-143441275D01*
X98024090Y-143517540D01*
X99230303Y-144723753D01*
X99248609Y-144767947D01*
X99237624Y-144800724D01*
X99238795Y-144801449D01*
X99237274Y-144803904D01*
X99144134Y-144990954D01*
X99086950Y-145191931D01*
X99086948Y-145191942D01*
X99067670Y-145399995D01*
X99067670Y-145400004D01*
X99086948Y-145608057D01*
X99086950Y-145608068D01*
X99130934Y-145762653D01*
X99144134Y-145809045D01*
X99237274Y-145996095D01*
X99237275Y-145996096D01*
X99237277Y-145996100D01*
X99363189Y-146162836D01*
X99363194Y-146162841D01*
X99363198Y-146162846D01*
X99467938Y-146258329D01*
X99517614Y-146303615D01*
X99517615Y-146303616D01*
X99517619Y-146303619D01*
X99695277Y-146413620D01*
X99890123Y-146489104D01*
X100095522Y-146527500D01*
X100095525Y-146527500D01*
X100304475Y-146527500D01*
X100304478Y-146527500D01*
X100509877Y-146489104D01*
X100704723Y-146413620D01*
X100882381Y-146303619D01*
X101036802Y-146162846D01*
X101162726Y-145996095D01*
X101255866Y-145809045D01*
X101313050Y-145608065D01*
X101332330Y-145400000D01*
X101313050Y-145191935D01*
X101255866Y-144990955D01*
X101162726Y-144803905D01*
X101162723Y-144803901D01*
X101162722Y-144803899D01*
X101036810Y-144637163D01*
X101036805Y-144637158D01*
X101036802Y-144637154D01*
X100939927Y-144548841D01*
X100882385Y-144496384D01*
X100882382Y-144496382D01*
X100882381Y-144496381D01*
X100704723Y-144386380D01*
X100704721Y-144386379D01*
X100648089Y-144364440D01*
X100509877Y-144310896D01*
X100509874Y-144310895D01*
X100509873Y-144310895D01*
X100304482Y-144272500D01*
X100304478Y-144272500D01*
X100095522Y-144272500D01*
X100095517Y-144272500D01*
X99890126Y-144310895D01*
X99695278Y-144386379D01*
X99604307Y-144442706D01*
X99557095Y-144450407D01*
X99527211Y-144433761D01*
X98425806Y-143332356D01*
X98407500Y-143288162D01*
X98407500Y-141058726D01*
X98407499Y-141058723D01*
X98380668Y-140993947D01*
X98380668Y-140993946D01*
X98375910Y-140982460D01*
X93067540Y-135674090D01*
X93042263Y-135663620D01*
X92991275Y-135642500D01*
X92991274Y-135642500D01*
X91711837Y-135642500D01*
X91667643Y-135624194D01*
X88820737Y-132777287D01*
X88802431Y-132733093D01*
X88803201Y-132723314D01*
X88803883Y-132719012D01*
X88806894Y-132700000D01*
X88806894Y-132699996D01*
X88789427Y-132589717D01*
X88789425Y-132589712D01*
X88738733Y-132490223D01*
X88659776Y-132411266D01*
X88560287Y-132360574D01*
X88560282Y-132360572D01*
X88493506Y-132349996D01*
X89193106Y-132349996D01*
X89193106Y-132350003D01*
X89210572Y-132460282D01*
X89210574Y-132460287D01*
X89261266Y-132559776D01*
X89261267Y-132559777D01*
X89340223Y-132638733D01*
X89439714Y-132689426D01*
X89439717Y-132689427D01*
X89549997Y-132706894D01*
X89550000Y-132706894D01*
X89550003Y-132706894D01*
X89660282Y-132689427D01*
X89660283Y-132689426D01*
X89660286Y-132689426D01*
X89759777Y-132638733D01*
X89822704Y-132575806D01*
X89866898Y-132557500D01*
X90138162Y-132557500D01*
X90182356Y-132575806D01*
X90325562Y-132719012D01*
X90339109Y-132739285D01*
X90342089Y-132746479D01*
X90342093Y-132746485D01*
X90595149Y-132999539D01*
X90653520Y-133057910D01*
X90660708Y-133060887D01*
X90680986Y-133074436D01*
X99251815Y-141645265D01*
X99270121Y-141689459D01*
X99257498Y-141727122D01*
X99237278Y-141753897D01*
X99237276Y-141753902D01*
X99144134Y-141940955D01*
X99086950Y-142141932D01*
X99086948Y-142141943D01*
X99067670Y-142349996D01*
X99067670Y-142350005D01*
X99086948Y-142558058D01*
X99086950Y-142558069D01*
X99144134Y-142759046D01*
X99237274Y-142946096D01*
X99237275Y-142946097D01*
X99237277Y-142946101D01*
X99363189Y-143112837D01*
X99363194Y-143112842D01*
X99363198Y-143112847D01*
X99467938Y-143208330D01*
X99517614Y-143253616D01*
X99517615Y-143253617D01*
X99517619Y-143253620D01*
X99695277Y-143363621D01*
X99890123Y-143439105D01*
X100095522Y-143477501D01*
X100095525Y-143477501D01*
X100304475Y-143477501D01*
X100304478Y-143477501D01*
X100509877Y-143439105D01*
X100704723Y-143363621D01*
X100882381Y-143253620D01*
X101036802Y-143112847D01*
X101162726Y-142946096D01*
X101255866Y-142759046D01*
X101313050Y-142558066D01*
X101318792Y-142496100D01*
X101332330Y-142350005D01*
X101332330Y-142349996D01*
X101313051Y-142141943D01*
X101313049Y-142141932D01*
X101303411Y-142108057D01*
X101255866Y-141940956D01*
X101162726Y-141753906D01*
X101162723Y-141753902D01*
X101162722Y-141753900D01*
X101036810Y-141587164D01*
X101036805Y-141587159D01*
X101036802Y-141587155D01*
X100931274Y-141490954D01*
X100882385Y-141446385D01*
X100882382Y-141446383D01*
X100882381Y-141446382D01*
X100704723Y-141336381D01*
X100704721Y-141336380D01*
X100620893Y-141303905D01*
X100509877Y-141260897D01*
X100509874Y-141260896D01*
X100509873Y-141260896D01*
X100304482Y-141222501D01*
X100304478Y-141222501D01*
X100095522Y-141222501D01*
X100095517Y-141222501D01*
X99890126Y-141260896D01*
X99695275Y-141336381D01*
X99635186Y-141373586D01*
X99587975Y-141381287D01*
X99558091Y-141364641D01*
X91069833Y-132876383D01*
X91051527Y-132832189D01*
X91069833Y-132787995D01*
X91085653Y-132776501D01*
X91137664Y-132750000D01*
X91159777Y-132738733D01*
X91222704Y-132675806D01*
X91266898Y-132657500D01*
X91988162Y-132657500D01*
X92032356Y-132675806D01*
X94170171Y-134813620D01*
X96089090Y-136732539D01*
X96147461Y-136790910D01*
X96223726Y-136822500D01*
X97653162Y-136822500D01*
X97697356Y-136840806D01*
X99337866Y-138481316D01*
X99356172Y-138525510D01*
X99343548Y-138563174D01*
X99237277Y-138703899D01*
X99237274Y-138703905D01*
X99144134Y-138890954D01*
X99086950Y-139091931D01*
X99086948Y-139091942D01*
X99067670Y-139299995D01*
X99067670Y-139300004D01*
X99086948Y-139508057D01*
X99086950Y-139508068D01*
X99144134Y-139709045D01*
X99237274Y-139896095D01*
X99237275Y-139896096D01*
X99237277Y-139896100D01*
X99363189Y-140062836D01*
X99363194Y-140062841D01*
X99363198Y-140062846D01*
X99467938Y-140158329D01*
X99517614Y-140203615D01*
X99517615Y-140203616D01*
X99517619Y-140203619D01*
X99695277Y-140313620D01*
X99890123Y-140389104D01*
X100095522Y-140427500D01*
X100095525Y-140427500D01*
X100304475Y-140427500D01*
X100304478Y-140427500D01*
X100509877Y-140389104D01*
X100704723Y-140313620D01*
X100882381Y-140203619D01*
X101036802Y-140062846D01*
X101074563Y-140012843D01*
X101162722Y-139896100D01*
X101162721Y-139896100D01*
X101162726Y-139896095D01*
X101255866Y-139709045D01*
X101313050Y-139508065D01*
X101332330Y-139300000D01*
X101327697Y-139250004D01*
X101313051Y-139091942D01*
X101313049Y-139091931D01*
X101298824Y-139041935D01*
X101255866Y-138890955D01*
X101162726Y-138703905D01*
X101162723Y-138703901D01*
X101162722Y-138703899D01*
X101036810Y-138537163D01*
X101036805Y-138537158D01*
X101036802Y-138537154D01*
X100939927Y-138448841D01*
X100882385Y-138396384D01*
X100882382Y-138396382D01*
X100882381Y-138396381D01*
X100704723Y-138286380D01*
X100704721Y-138286379D01*
X100638988Y-138260914D01*
X100509877Y-138210896D01*
X100509874Y-138210895D01*
X100509873Y-138210895D01*
X100304482Y-138172500D01*
X100304478Y-138172500D01*
X100095522Y-138172500D01*
X100095517Y-138172500D01*
X99890126Y-138210895D01*
X99890123Y-138210895D01*
X99890123Y-138210896D01*
X99758155Y-138262020D01*
X99710332Y-138260914D01*
X99691384Y-138247934D01*
X98007644Y-136564194D01*
X97989338Y-136520000D01*
X98007644Y-136475806D01*
X98051838Y-136457500D01*
X99039591Y-136457500D01*
X99083785Y-136475806D01*
X99099705Y-136502896D01*
X99104572Y-136520000D01*
X99144134Y-136659045D01*
X99237274Y-136846095D01*
X99237275Y-136846096D01*
X99237277Y-136846100D01*
X99363189Y-137012836D01*
X99363194Y-137012841D01*
X99363198Y-137012846D01*
X99467938Y-137108329D01*
X99517614Y-137153615D01*
X99517615Y-137153616D01*
X99517619Y-137153619D01*
X99695277Y-137263620D01*
X99890123Y-137339104D01*
X100095522Y-137377500D01*
X100095525Y-137377500D01*
X100304475Y-137377500D01*
X100304478Y-137377500D01*
X100509877Y-137339104D01*
X100704723Y-137263620D01*
X100882381Y-137153619D01*
X101036802Y-137012846D01*
X101076034Y-136960895D01*
X101162722Y-136846100D01*
X101162721Y-136846100D01*
X101162726Y-136846095D01*
X101255866Y-136659045D01*
X101313050Y-136458065D01*
X101313051Y-136458057D01*
X101332330Y-136250004D01*
X101332330Y-136249995D01*
X101313051Y-136041942D01*
X101313049Y-136041931D01*
X101291882Y-135967539D01*
X101255866Y-135840955D01*
X101162726Y-135653905D01*
X101162723Y-135653901D01*
X101162722Y-135653899D01*
X101036810Y-135487163D01*
X101036805Y-135487158D01*
X101036802Y-135487154D01*
X100939927Y-135398841D01*
X100882385Y-135346384D01*
X100882382Y-135346382D01*
X100882381Y-135346381D01*
X100704723Y-135236380D01*
X100704721Y-135236379D01*
X100648089Y-135214440D01*
X100509877Y-135160896D01*
X100509874Y-135160895D01*
X100509873Y-135160895D01*
X100304482Y-135122500D01*
X100304478Y-135122500D01*
X100095522Y-135122500D01*
X100095517Y-135122500D01*
X99890126Y-135160895D01*
X99695278Y-135236379D01*
X99517614Y-135346384D01*
X99363196Y-135487156D01*
X99363189Y-135487163D01*
X99237277Y-135653899D01*
X99237274Y-135653905D01*
X99144134Y-135840954D01*
X99099705Y-135997104D01*
X99070003Y-136034602D01*
X99039591Y-136042500D01*
X96761838Y-136042500D01*
X96717644Y-136024194D01*
X94493445Y-133799995D01*
X100917670Y-133799995D01*
X100917670Y-133800004D01*
X100936948Y-134008057D01*
X100936950Y-134008068D01*
X100994134Y-134209045D01*
X101087274Y-134396095D01*
X101087275Y-134396096D01*
X101087277Y-134396100D01*
X101213189Y-134562836D01*
X101213194Y-134562841D01*
X101213198Y-134562846D01*
X101308796Y-134649995D01*
X101367614Y-134703615D01*
X101367615Y-134703616D01*
X101367619Y-134703619D01*
X101545277Y-134813620D01*
X101740123Y-134889104D01*
X101945522Y-134927500D01*
X101945525Y-134927500D01*
X102154475Y-134927500D01*
X102154478Y-134927500D01*
X102359877Y-134889104D01*
X102554723Y-134813620D01*
X102732381Y-134703619D01*
X102886802Y-134562846D01*
X103012726Y-134396095D01*
X103105866Y-134209045D01*
X103163050Y-134008065D01*
X103163051Y-134008057D01*
X103182330Y-133800004D01*
X103182330Y-133799995D01*
X103163051Y-133591942D01*
X103163049Y-133591931D01*
X103143294Y-133522500D01*
X103105866Y-133390955D01*
X103012726Y-133203905D01*
X103012724Y-133203902D01*
X103012722Y-133203899D01*
X102886810Y-133037163D01*
X102886805Y-133037158D01*
X102886802Y-133037154D01*
X102761886Y-132923278D01*
X102732385Y-132896384D01*
X102732382Y-132896382D01*
X102732381Y-132896381D01*
X102554723Y-132786380D01*
X102554721Y-132786379D01*
X102473126Y-132754769D01*
X102359877Y-132710896D01*
X102359874Y-132710895D01*
X102359873Y-132710895D01*
X102154482Y-132672500D01*
X102154478Y-132672500D01*
X101945522Y-132672500D01*
X101945517Y-132672500D01*
X101740126Y-132710895D01*
X101545278Y-132786379D01*
X101367614Y-132896384D01*
X101230146Y-133021704D01*
X101218499Y-133032322D01*
X101213196Y-133037156D01*
X101213189Y-133037163D01*
X101087277Y-133203899D01*
X101087275Y-133203903D01*
X101087274Y-133203905D01*
X101075526Y-133227499D01*
X100994134Y-133390954D01*
X100936950Y-133591931D01*
X100936948Y-133591942D01*
X100917670Y-133799995D01*
X94493445Y-133799995D01*
X93470737Y-132777287D01*
X93452431Y-132733093D01*
X93453201Y-132723314D01*
X93453883Y-132719012D01*
X93456894Y-132700000D01*
X93456894Y-132699996D01*
X93439427Y-132589717D01*
X93439425Y-132589712D01*
X93388733Y-132490223D01*
X93309776Y-132411266D01*
X93210287Y-132360574D01*
X93210282Y-132360572D01*
X93100003Y-132343106D01*
X93099997Y-132343106D01*
X92989717Y-132360572D01*
X92989712Y-132360574D01*
X92890223Y-132411266D01*
X92811266Y-132490223D01*
X92760574Y-132589712D01*
X92760573Y-132589716D01*
X92748668Y-132664878D01*
X92723674Y-132705664D01*
X92677160Y-132716830D01*
X92642744Y-132699294D01*
X92217540Y-132274090D01*
X92159386Y-132250002D01*
X92141275Y-132242500D01*
X92141274Y-132242500D01*
X91266898Y-132242500D01*
X91222704Y-132224194D01*
X91159776Y-132161266D01*
X91060287Y-132110574D01*
X91060282Y-132110572D01*
X90950003Y-132093106D01*
X90949997Y-132093106D01*
X90839717Y-132110572D01*
X90839712Y-132110574D01*
X90740223Y-132161266D01*
X90661267Y-132240222D01*
X90623498Y-132314347D01*
X90587123Y-132345413D01*
X90539435Y-132341660D01*
X90523616Y-132330166D01*
X90367540Y-132174090D01*
X90291275Y-132142500D01*
X90291274Y-132142500D01*
X89866898Y-132142500D01*
X89822704Y-132124194D01*
X89759776Y-132061266D01*
X89660287Y-132010574D01*
X89660282Y-132010572D01*
X89550003Y-131993106D01*
X89549997Y-131993106D01*
X89439717Y-132010572D01*
X89439712Y-132010574D01*
X89340223Y-132061266D01*
X89261266Y-132140223D01*
X89210574Y-132239712D01*
X89210572Y-132239717D01*
X89193106Y-132349996D01*
X88493506Y-132349996D01*
X88450003Y-132343106D01*
X88449997Y-132343106D01*
X88339717Y-132360572D01*
X88339712Y-132360574D01*
X88240223Y-132411266D01*
X88161266Y-132490223D01*
X88110574Y-132589712D01*
X88110572Y-132589717D01*
X88093106Y-132699996D01*
X76374554Y-132699996D01*
X76376267Y-132696323D01*
X76376268Y-132696321D01*
X76435138Y-132476617D01*
X76435141Y-132476601D01*
X76454966Y-132250002D01*
X76454966Y-132249997D01*
X76435141Y-132023398D01*
X76435138Y-132023382D01*
X76376268Y-131803678D01*
X76376267Y-131803676D01*
X76280135Y-131597520D01*
X76170782Y-131441348D01*
X75593670Y-132018460D01*
X75550099Y-131942993D01*
X75457007Y-131849901D01*
X75381537Y-131806328D01*
X75958651Y-131229215D01*
X75802481Y-131119865D01*
X75802483Y-131119865D01*
X75596323Y-131023732D01*
X75596321Y-131023731D01*
X75376617Y-130964861D01*
X75376601Y-130964858D01*
X75150002Y-130945034D01*
X75149998Y-130945034D01*
X74923398Y-130964858D01*
X74923382Y-130964861D01*
X74703678Y-131023731D01*
X74703676Y-131023732D01*
X74497517Y-131119865D01*
X74341348Y-131229215D01*
X74341347Y-131229215D01*
X74918461Y-131806329D01*
X74842993Y-131849901D01*
X74749901Y-131942993D01*
X74706329Y-132018461D01*
X74129215Y-131441347D01*
X74129215Y-131441348D01*
X74019865Y-131597517D01*
X73923732Y-131803676D01*
X73923731Y-131803678D01*
X73864861Y-132023382D01*
X73864858Y-132023398D01*
X73845034Y-132249997D01*
X71535471Y-132249997D01*
X71462726Y-132103905D01*
X71462723Y-132103901D01*
X71462722Y-132103899D01*
X71336810Y-131937163D01*
X71336805Y-131937158D01*
X71336802Y-131937154D01*
X71239927Y-131848841D01*
X71182385Y-131796384D01*
X71182382Y-131796382D01*
X71182381Y-131796381D01*
X71004723Y-131686380D01*
X71004721Y-131686379D01*
X70948089Y-131664440D01*
X70809877Y-131610896D01*
X70809874Y-131610895D01*
X70809873Y-131610895D01*
X70604482Y-131572500D01*
X70604478Y-131572500D01*
X70395522Y-131572500D01*
X70395517Y-131572500D01*
X70190126Y-131610895D01*
X69995278Y-131686379D01*
X69817614Y-131796384D01*
X69663196Y-131937156D01*
X69663189Y-131937163D01*
X69537277Y-132103899D01*
X69537274Y-132103905D01*
X69444134Y-132290954D01*
X69386950Y-132491931D01*
X69386948Y-132491942D01*
X69367670Y-132699995D01*
X66200500Y-132699995D01*
X66200500Y-130375120D01*
X67486620Y-130375120D01*
X67486621Y-130375121D01*
X68000498Y-130375121D01*
X67974416Y-130472460D01*
X67974416Y-130577782D01*
X68000498Y-130675121D01*
X67486621Y-130675121D01*
X67509002Y-130787641D01*
X67509004Y-130787648D01*
X67576846Y-130951431D01*
X67576847Y-130951433D01*
X67675339Y-131098837D01*
X67800699Y-131224197D01*
X67948103Y-131322689D01*
X67948105Y-131322690D01*
X68111894Y-131390534D01*
X68111897Y-131390535D01*
X68285773Y-131425120D01*
X68285774Y-131425121D01*
X68524416Y-131425121D01*
X68524416Y-130925121D01*
X68824416Y-130925121D01*
X68824416Y-131425121D01*
X69063058Y-131425121D01*
X69063058Y-131425120D01*
X69236934Y-131390535D01*
X69236937Y-131390534D01*
X69400726Y-131322690D01*
X69400728Y-131322689D01*
X69548132Y-131224197D01*
X69673492Y-131098837D01*
X69771984Y-130951433D01*
X69771985Y-130951431D01*
X69839827Y-130787648D01*
X69839829Y-130787641D01*
X69862211Y-130675121D01*
X69348334Y-130675121D01*
X69374416Y-130577782D01*
X69374416Y-130472460D01*
X69348334Y-130375121D01*
X69862211Y-130375121D01*
X69862211Y-130375120D01*
X71566452Y-130375120D01*
X71566453Y-130375121D01*
X72080342Y-130375121D01*
X72054260Y-130472460D01*
X72054260Y-130577782D01*
X72080342Y-130675121D01*
X71566453Y-130675121D01*
X71588834Y-130787641D01*
X71588836Y-130787648D01*
X71656678Y-130951431D01*
X71656679Y-130951433D01*
X71755171Y-131098837D01*
X71880531Y-131224197D01*
X72027935Y-131322689D01*
X72027937Y-131322690D01*
X72191726Y-131390534D01*
X72191729Y-131390535D01*
X72365605Y-131425120D01*
X72365606Y-131425121D01*
X72704248Y-131425121D01*
X72704248Y-130925121D01*
X73004248Y-130925121D01*
X73004248Y-131425121D01*
X73342890Y-131425121D01*
X73342890Y-131425120D01*
X73516766Y-131390535D01*
X73516769Y-131390534D01*
X73680558Y-131322690D01*
X73680560Y-131322689D01*
X73827964Y-131224197D01*
X73953324Y-131098837D01*
X74051816Y-130951433D01*
X74051817Y-130951431D01*
X74119659Y-130787648D01*
X74119661Y-130787641D01*
X74142043Y-130675121D01*
X73628154Y-130675121D01*
X73648284Y-130599995D01*
X86217670Y-130599995D01*
X86217670Y-130600004D01*
X86236948Y-130808057D01*
X86236950Y-130808068D01*
X86294134Y-131009045D01*
X86387274Y-131196095D01*
X86387275Y-131196096D01*
X86387277Y-131196100D01*
X86513189Y-131362836D01*
X86513194Y-131362841D01*
X86513198Y-131362846D01*
X86581511Y-131425121D01*
X86667614Y-131503615D01*
X86667615Y-131503616D01*
X86667619Y-131503619D01*
X86845277Y-131613620D01*
X87040123Y-131689104D01*
X87245522Y-131727500D01*
X87245525Y-131727500D01*
X87454475Y-131727500D01*
X87454478Y-131727500D01*
X87659877Y-131689104D01*
X87854723Y-131613620D01*
X88032381Y-131503619D01*
X88186802Y-131362846D01*
X88217127Y-131322690D01*
X88312722Y-131196100D01*
X88312721Y-131196100D01*
X88312726Y-131196095D01*
X88405866Y-131009045D01*
X88463050Y-130808065D01*
X88482330Y-130600000D01*
X88480271Y-130577782D01*
X88463051Y-130391942D01*
X88463050Y-130391939D01*
X88463050Y-130391935D01*
X88437884Y-130303488D01*
X88443396Y-130255973D01*
X88453800Y-130242195D01*
X88550193Y-130145805D01*
X88594386Y-130127500D01*
X91305615Y-130127500D01*
X91349809Y-130145806D01*
X94225707Y-133021704D01*
X94225712Y-133021710D01*
X94227895Y-133023893D01*
X94326107Y-133122105D01*
X94386250Y-133156828D01*
X94425402Y-133179433D01*
X94446388Y-133191550D01*
X94446389Y-133191550D01*
X94446392Y-133191552D01*
X94492495Y-133203905D01*
X94531320Y-133214308D01*
X94580548Y-133227499D01*
X94580551Y-133227499D01*
X94580553Y-133227500D01*
X94580554Y-133227500D01*
X94719446Y-133227500D01*
X94719447Y-133227500D01*
X94807505Y-133203905D01*
X94853608Y-133191552D01*
X94913750Y-133156828D01*
X94973893Y-133122105D01*
X95072105Y-133023893D01*
X95130197Y-132923275D01*
X95141552Y-132903608D01*
X95162481Y-132825500D01*
X95177500Y-132769447D01*
X95177500Y-130544385D01*
X95195806Y-130500191D01*
X97450191Y-128245806D01*
X97494385Y-128227500D01*
X99869446Y-128227500D01*
X99869447Y-128227500D01*
X99936527Y-128209526D01*
X100003608Y-128191552D01*
X100063750Y-128156828D01*
X100123893Y-128122105D01*
X100222105Y-128023893D01*
X100222105Y-128023891D01*
X100227246Y-128018751D01*
X100227249Y-128018746D01*
X100722105Y-127523892D01*
X100791552Y-127403608D01*
X100827500Y-127269446D01*
X100827500Y-127130553D01*
X100791552Y-126996392D01*
X100722105Y-126876107D01*
X100722103Y-126876105D01*
X100722100Y-126876101D01*
X100623898Y-126777899D01*
X100623889Y-126777892D01*
X100503613Y-126708450D01*
X100503604Y-126708446D01*
X100369453Y-126672501D01*
X100369448Y-126672500D01*
X100369447Y-126672500D01*
X100230554Y-126672500D01*
X100230553Y-126672500D01*
X100230547Y-126672501D01*
X100096392Y-126708447D01*
X100096389Y-126708448D01*
X99976108Y-126777894D01*
X99976102Y-126777899D01*
X99599809Y-127154194D01*
X99555615Y-127172500D01*
X97890000Y-127172500D01*
X97845806Y-127154194D01*
X97827500Y-127110000D01*
X97827500Y-124644385D01*
X97845806Y-124600191D01*
X98872101Y-123573897D01*
X98872101Y-123573896D01*
X98872106Y-123573892D01*
X98941552Y-123453608D01*
X98977501Y-123319446D01*
X98977501Y-123180553D01*
X98977501Y-123176729D01*
X98977500Y-123176711D01*
X98977500Y-122030554D01*
X98977498Y-122030546D01*
X98941553Y-121896396D01*
X98941552Y-121896393D01*
X98912515Y-121846100D01*
X98872105Y-121776107D01*
X98872103Y-121776105D01*
X98872100Y-121776101D01*
X98773893Y-121677895D01*
X98545806Y-121449808D01*
X98527500Y-121405614D01*
X98527500Y-119724491D01*
X98527501Y-119724478D01*
X98527501Y-119580555D01*
X98527500Y-119580549D01*
X98513552Y-119528496D01*
X98491552Y-119446392D01*
X98422106Y-119326108D01*
X98422104Y-119326106D01*
X98422101Y-119326102D01*
X97323897Y-118227899D01*
X97323891Y-118227894D01*
X97203610Y-118158448D01*
X97203607Y-118158447D01*
X97069452Y-118122501D01*
X97069447Y-118122500D01*
X97069446Y-118122500D01*
X96930554Y-118122500D01*
X96930553Y-118122500D01*
X96930547Y-118122501D01*
X96796392Y-118158447D01*
X96796389Y-118158448D01*
X96676108Y-118227894D01*
X96676102Y-118227899D01*
X96577899Y-118326102D01*
X96577894Y-118326108D01*
X96508448Y-118446389D01*
X96508447Y-118446392D01*
X96472501Y-118580547D01*
X96472500Y-118580555D01*
X96472500Y-118719444D01*
X96472501Y-118719452D01*
X96508447Y-118853607D01*
X96508448Y-118853610D01*
X96577894Y-118973891D01*
X96577899Y-118973897D01*
X97454194Y-119850191D01*
X97472500Y-119894385D01*
X97472500Y-121218705D01*
X97464126Y-121249955D01*
X97408450Y-121346386D01*
X97408447Y-121346392D01*
X97372501Y-121480547D01*
X97372500Y-121480555D01*
X97372500Y-121619444D01*
X97372501Y-121619452D01*
X97408447Y-121753607D01*
X97408448Y-121753610D01*
X97477894Y-121873891D01*
X97477899Y-121873897D01*
X97904194Y-122300191D01*
X97922500Y-122344385D01*
X97922500Y-123005614D01*
X97904194Y-123049808D01*
X96976107Y-123977895D01*
X96877899Y-124076101D01*
X96877894Y-124076107D01*
X96843170Y-124136249D01*
X96843171Y-124136250D01*
X96808448Y-124196391D01*
X96806319Y-124204339D01*
X96806318Y-124204338D01*
X96806318Y-124204342D01*
X96772501Y-124330546D01*
X96772500Y-124330554D01*
X96772500Y-127405614D01*
X96754194Y-127449808D01*
X94227894Y-129976107D01*
X94227894Y-129976108D01*
X94226096Y-129979223D01*
X94226094Y-129979227D01*
X94158447Y-130096392D01*
X94158446Y-130096395D01*
X94140474Y-130163473D01*
X94140474Y-130163474D01*
X94122500Y-130230548D01*
X94122500Y-131275615D01*
X94104194Y-131319809D01*
X94060000Y-131338115D01*
X94015806Y-131319809D01*
X91975673Y-129279676D01*
X91975661Y-129279662D01*
X91873898Y-129177899D01*
X91873892Y-129177894D01*
X91813750Y-129143170D01*
X91813750Y-129143171D01*
X91753607Y-129108447D01*
X91753604Y-129108446D01*
X91686527Y-129090474D01*
X91673111Y-129086879D01*
X91619451Y-129072500D01*
X91619447Y-129072500D01*
X88423288Y-129072500D01*
X88423272Y-129072499D01*
X88419447Y-129072499D01*
X88280554Y-129072499D01*
X88280549Y-129072499D01*
X88146394Y-129108447D01*
X88146392Y-129108447D01*
X88026106Y-129177895D01*
X87711167Y-129492833D01*
X87666973Y-129511139D01*
X87655489Y-129510075D01*
X87454482Y-129472500D01*
X87454478Y-129472500D01*
X87245522Y-129472500D01*
X87245517Y-129472500D01*
X87040126Y-129510895D01*
X86845278Y-129586379D01*
X86667614Y-129696384D01*
X86513196Y-129837156D01*
X86513189Y-129837163D01*
X86387277Y-130003899D01*
X86387274Y-130003905D01*
X86294134Y-130190954D01*
X86236950Y-130391931D01*
X86236948Y-130391942D01*
X86217670Y-130599995D01*
X73648284Y-130599995D01*
X73654236Y-130577782D01*
X73654236Y-130472460D01*
X73628154Y-130375121D01*
X74142043Y-130375121D01*
X74142043Y-130375120D01*
X74119661Y-130262600D01*
X74119659Y-130262593D01*
X74051817Y-130098810D01*
X74051816Y-130098808D01*
X73953324Y-129951404D01*
X73827964Y-129826044D01*
X73680560Y-129727552D01*
X73680558Y-129727551D01*
X73516769Y-129659707D01*
X73516766Y-129659706D01*
X73342890Y-129625121D01*
X73004248Y-129625121D01*
X73004248Y-130125121D01*
X72704248Y-130125121D01*
X72704248Y-129606062D01*
X72699419Y-129594404D01*
X72717725Y-129550210D01*
X72814636Y-129453299D01*
X72814641Y-129453294D01*
X72890408Y-129322061D01*
X72929628Y-129175691D01*
X72929628Y-129024157D01*
X72890408Y-128877787D01*
X72814641Y-128746554D01*
X72814639Y-128746552D01*
X72814636Y-128746548D01*
X72707496Y-128639408D01*
X72707492Y-128639405D01*
X72707491Y-128639404D01*
X72641874Y-128601520D01*
X72576257Y-128563636D01*
X72576253Y-128563635D01*
X72429894Y-128524418D01*
X72429889Y-128524417D01*
X72429888Y-128524417D01*
X72278354Y-128524417D01*
X72278353Y-128524417D01*
X72278347Y-128524418D01*
X72131988Y-128563635D01*
X72131984Y-128563636D01*
X72000749Y-128639405D01*
X72000745Y-128639408D01*
X71893605Y-128746548D01*
X71893602Y-128746552D01*
X71817833Y-128877787D01*
X71817832Y-128877791D01*
X71778615Y-129024150D01*
X71778614Y-129024158D01*
X71778614Y-129175689D01*
X71778615Y-129175697D01*
X71817832Y-129322056D01*
X71817833Y-129322060D01*
X71893602Y-129453295D01*
X71893605Y-129453299D01*
X72000745Y-129560439D01*
X72000749Y-129560442D01*
X72000751Y-129560444D01*
X72059572Y-129594404D01*
X72070879Y-129600932D01*
X72099999Y-129638883D01*
X72093756Y-129686309D01*
X72063547Y-129712801D01*
X72027938Y-129727551D01*
X72027935Y-129727552D01*
X71880531Y-129826044D01*
X71755171Y-129951404D01*
X71656679Y-130098808D01*
X71656678Y-130098810D01*
X71588836Y-130262593D01*
X71588834Y-130262600D01*
X71566452Y-130375120D01*
X69862211Y-130375120D01*
X69839829Y-130262600D01*
X69839827Y-130262593D01*
X69771985Y-130098810D01*
X69771984Y-130098808D01*
X69673492Y-129951404D01*
X69548132Y-129826044D01*
X69400728Y-129727552D01*
X69400726Y-129727551D01*
X69236937Y-129659707D01*
X69236934Y-129659706D01*
X69063058Y-129625121D01*
X68824416Y-129625121D01*
X68824416Y-130125121D01*
X68524416Y-130125121D01*
X68524416Y-129625121D01*
X68285774Y-129625121D01*
X68111897Y-129659706D01*
X68111894Y-129659707D01*
X67948105Y-129727551D01*
X67948103Y-129727552D01*
X67800699Y-129826044D01*
X67675339Y-129951404D01*
X67576847Y-130098808D01*
X67576846Y-130098810D01*
X67509004Y-130262593D01*
X67509002Y-130262600D01*
X67486620Y-130375120D01*
X66200500Y-130375120D01*
X66200500Y-128499995D01*
X77017670Y-128499995D01*
X77017670Y-128500004D01*
X77036948Y-128708057D01*
X77036950Y-128708068D01*
X77080116Y-128859777D01*
X77094134Y-128909045D01*
X77187274Y-129096095D01*
X77187275Y-129096096D01*
X77187277Y-129096100D01*
X77313189Y-129262836D01*
X77313194Y-129262841D01*
X77313198Y-129262846D01*
X77378153Y-129322060D01*
X77467614Y-129403615D01*
X77467615Y-129403616D01*
X77467619Y-129403619D01*
X77645277Y-129513620D01*
X77840123Y-129589104D01*
X78045522Y-129627500D01*
X78045525Y-129627500D01*
X78254475Y-129627500D01*
X78254478Y-129627500D01*
X78459877Y-129589104D01*
X78654723Y-129513620D01*
X78832381Y-129403619D01*
X78986802Y-129262846D01*
X79112726Y-129096095D01*
X79205866Y-128909045D01*
X79263050Y-128708065D01*
X79263051Y-128708057D01*
X79282330Y-128500004D01*
X79282330Y-128499995D01*
X79263051Y-128291942D01*
X79263049Y-128291931D01*
X79249925Y-128245806D01*
X79205866Y-128090955D01*
X79112726Y-127903905D01*
X79112723Y-127903901D01*
X79112722Y-127903899D01*
X78986810Y-127737163D01*
X78986805Y-127737158D01*
X78986802Y-127737154D01*
X78889927Y-127648841D01*
X78832385Y-127596384D01*
X78832382Y-127596382D01*
X78832381Y-127596381D01*
X78654723Y-127486380D01*
X78654721Y-127486379D01*
X78560320Y-127449808D01*
X78459877Y-127410896D01*
X78459874Y-127410895D01*
X78459873Y-127410895D01*
X78254482Y-127372500D01*
X78254478Y-127372500D01*
X78045522Y-127372500D01*
X78045517Y-127372500D01*
X77840126Y-127410895D01*
X77645278Y-127486379D01*
X77467614Y-127596384D01*
X77313196Y-127737156D01*
X77313189Y-127737163D01*
X77187277Y-127903899D01*
X77187274Y-127903905D01*
X77094134Y-128090954D01*
X77036950Y-128291931D01*
X77036948Y-128291942D01*
X77017670Y-128499995D01*
X66200500Y-128499995D01*
X66200500Y-121724878D01*
X67486620Y-121724878D01*
X67486621Y-121724879D01*
X68000498Y-121724879D01*
X67974416Y-121822218D01*
X67974416Y-121927540D01*
X68000498Y-122024879D01*
X67486621Y-122024879D01*
X67509002Y-122137399D01*
X67509004Y-122137406D01*
X67576846Y-122301189D01*
X67576847Y-122301191D01*
X67675339Y-122448595D01*
X67800699Y-122573955D01*
X67948103Y-122672447D01*
X67948105Y-122672448D01*
X68111894Y-122740292D01*
X68111897Y-122740293D01*
X68285773Y-122774878D01*
X68285774Y-122774879D01*
X68524416Y-122774879D01*
X68524416Y-122274879D01*
X68824416Y-122274879D01*
X68824416Y-122774879D01*
X69063058Y-122774879D01*
X69063058Y-122774878D01*
X69236934Y-122740293D01*
X69236937Y-122740292D01*
X69400726Y-122672448D01*
X69400728Y-122672447D01*
X69548132Y-122573955D01*
X69673492Y-122448595D01*
X69771984Y-122301191D01*
X69771985Y-122301189D01*
X69839827Y-122137406D01*
X69839829Y-122137399D01*
X69862211Y-122024879D01*
X69348334Y-122024879D01*
X69374416Y-121927540D01*
X69374416Y-121822218D01*
X69348334Y-121724879D01*
X69862211Y-121724879D01*
X69862211Y-121724878D01*
X71566452Y-121724878D01*
X71566453Y-121724879D01*
X72080317Y-121724879D01*
X72054235Y-121822218D01*
X72054235Y-121927540D01*
X72080317Y-122024879D01*
X71566453Y-122024879D01*
X71588834Y-122137399D01*
X71588836Y-122137406D01*
X71656678Y-122301189D01*
X71656679Y-122301191D01*
X71755171Y-122448595D01*
X71880531Y-122573955D01*
X72027933Y-122672446D01*
X72063546Y-122687197D01*
X72097371Y-122721022D01*
X72097372Y-122768857D01*
X72070880Y-122799066D01*
X72000751Y-122839555D01*
X72000745Y-122839560D01*
X71893605Y-122946700D01*
X71893602Y-122946704D01*
X71817833Y-123077939D01*
X71817832Y-123077943D01*
X71778615Y-123224302D01*
X71778614Y-123224310D01*
X71778614Y-123375841D01*
X71778615Y-123375849D01*
X71817832Y-123522208D01*
X71817833Y-123522212D01*
X71893602Y-123653447D01*
X71893605Y-123653451D01*
X72000745Y-123760591D01*
X72000749Y-123760594D01*
X72000751Y-123760596D01*
X72131984Y-123836363D01*
X72278354Y-123875583D01*
X72278355Y-123875583D01*
X72429887Y-123875583D01*
X72429888Y-123875583D01*
X72576258Y-123836363D01*
X72707491Y-123760596D01*
X72814641Y-123653446D01*
X72890408Y-123522213D01*
X72929628Y-123375843D01*
X72929628Y-123224309D01*
X72890408Y-123077939D01*
X72814641Y-122946706D01*
X72814639Y-122946704D01*
X72814636Y-122946700D01*
X72717725Y-122849789D01*
X72699419Y-122805595D01*
X72704248Y-122793936D01*
X72704248Y-122274879D01*
X73004248Y-122274879D01*
X73004248Y-122774879D01*
X73342890Y-122774879D01*
X73342890Y-122774878D01*
X73516766Y-122740293D01*
X73516769Y-122740292D01*
X73680558Y-122672448D01*
X73680560Y-122672447D01*
X73827964Y-122573955D01*
X73953324Y-122448595D01*
X74051816Y-122301191D01*
X74051817Y-122301189D01*
X74119659Y-122137406D01*
X74119661Y-122137399D01*
X74142043Y-122024879D01*
X73628179Y-122024879D01*
X73654261Y-121927540D01*
X73654261Y-121822218D01*
X73628179Y-121724879D01*
X74142043Y-121724879D01*
X74142043Y-121724878D01*
X74119661Y-121612358D01*
X74119659Y-121612351D01*
X74051817Y-121448568D01*
X74051816Y-121448566D01*
X73953324Y-121301162D01*
X73827964Y-121175802D01*
X73680560Y-121077310D01*
X73680558Y-121077309D01*
X73516769Y-121009465D01*
X73516766Y-121009464D01*
X73342890Y-120974879D01*
X73004248Y-120974879D01*
X73004248Y-121474879D01*
X72704248Y-121474879D01*
X72704248Y-120974879D01*
X72365606Y-120974879D01*
X72191729Y-121009464D01*
X72191726Y-121009465D01*
X72027937Y-121077309D01*
X72027935Y-121077310D01*
X71880531Y-121175802D01*
X71755171Y-121301162D01*
X71656679Y-121448566D01*
X71656678Y-121448568D01*
X71588836Y-121612351D01*
X71588834Y-121612358D01*
X71566452Y-121724878D01*
X69862211Y-121724878D01*
X69839829Y-121612358D01*
X69839827Y-121612351D01*
X69771985Y-121448568D01*
X69771984Y-121448566D01*
X69673492Y-121301162D01*
X69548132Y-121175802D01*
X69400728Y-121077310D01*
X69400726Y-121077309D01*
X69236937Y-121009465D01*
X69236934Y-121009464D01*
X69063058Y-120974879D01*
X68824416Y-120974879D01*
X68824416Y-121474879D01*
X68524416Y-121474879D01*
X68524416Y-120974879D01*
X68285774Y-120974879D01*
X68111897Y-121009464D01*
X68111894Y-121009465D01*
X67948105Y-121077309D01*
X67948103Y-121077310D01*
X67800699Y-121175802D01*
X67675339Y-121301162D01*
X67576847Y-121448566D01*
X67576846Y-121448568D01*
X67509004Y-121612351D01*
X67509002Y-121612358D01*
X67486620Y-121724878D01*
X66200500Y-121724878D01*
X66200500Y-116799996D01*
X75993106Y-116799996D01*
X75993106Y-116800003D01*
X76010572Y-116910282D01*
X76010574Y-116910286D01*
X76015687Y-116920320D01*
X76022500Y-116948696D01*
X76022500Y-119343121D01*
X76044818Y-119426407D01*
X76044818Y-119426409D01*
X76044819Y-119426410D01*
X76087935Y-119501090D01*
X76087939Y-119501094D01*
X78817538Y-122230693D01*
X78829032Y-122246513D01*
X78861266Y-122309776D01*
X78940223Y-122388733D01*
X79003485Y-122420966D01*
X79019305Y-122432460D01*
X83254194Y-126667349D01*
X83272500Y-126711543D01*
X83272500Y-128501302D01*
X83265689Y-128529674D01*
X83260574Y-128539712D01*
X83260572Y-128539718D01*
X83243106Y-128649996D01*
X83243106Y-128650003D01*
X83260572Y-128760282D01*
X83260574Y-128760287D01*
X83311266Y-128859776D01*
X83311267Y-128859777D01*
X83390223Y-128938733D01*
X83489714Y-128989426D01*
X83489717Y-128989427D01*
X83599997Y-129006894D01*
X83600000Y-129006894D01*
X83600003Y-129006894D01*
X83710282Y-128989427D01*
X83710283Y-128989426D01*
X83710286Y-128989426D01*
X83809777Y-128938733D01*
X83888733Y-128859777D01*
X83939426Y-128760286D01*
X83941601Y-128746554D01*
X83956894Y-128650003D01*
X83956894Y-128649996D01*
X83939427Y-128539718D01*
X83939425Y-128539712D01*
X83934311Y-128529674D01*
X83927500Y-128501302D01*
X83927500Y-126711543D01*
X83945806Y-126667349D01*
X87867349Y-122745806D01*
X87911543Y-122727500D01*
X88551303Y-122727500D01*
X88579676Y-122734311D01*
X88589714Y-122739426D01*
X88589715Y-122739426D01*
X88589717Y-122739427D01*
X88699997Y-122756894D01*
X88700000Y-122756894D01*
X88700003Y-122756894D01*
X88810282Y-122739427D01*
X88810283Y-122739426D01*
X88810286Y-122739426D01*
X88909777Y-122688733D01*
X88988733Y-122609777D01*
X89039426Y-122510286D01*
X89039427Y-122510282D01*
X89056894Y-122400003D01*
X89056894Y-122399996D01*
X89039427Y-122289717D01*
X89039425Y-122289712D01*
X88988733Y-122190223D01*
X88909776Y-122111266D01*
X88810287Y-122060574D01*
X88810282Y-122060572D01*
X88700003Y-122043106D01*
X88699997Y-122043106D01*
X88589717Y-122060572D01*
X88589715Y-122060573D01*
X88584074Y-122063447D01*
X88579676Y-122065688D01*
X88551303Y-122072500D01*
X87706878Y-122072500D01*
X87623592Y-122094818D01*
X87623590Y-122094818D01*
X87571095Y-122125126D01*
X87548910Y-122137935D01*
X87548909Y-122137936D01*
X87548905Y-122137939D01*
X83644194Y-126042651D01*
X83600000Y-126060957D01*
X83555806Y-126042651D01*
X79482460Y-121969305D01*
X79470966Y-121953485D01*
X79438733Y-121890223D01*
X79359776Y-121811266D01*
X79296513Y-121779032D01*
X79280693Y-121767538D01*
X78763150Y-121249995D01*
X80717670Y-121249995D01*
X80717670Y-121250004D01*
X80736948Y-121458057D01*
X80736950Y-121458068D01*
X80780116Y-121609777D01*
X80794134Y-121659045D01*
X80887274Y-121846095D01*
X80887275Y-121846096D01*
X80887277Y-121846100D01*
X81013189Y-122012836D01*
X81013194Y-122012841D01*
X81013198Y-122012846D01*
X81096383Y-122088679D01*
X81167614Y-122153615D01*
X81167615Y-122153616D01*
X81167619Y-122153619D01*
X81345277Y-122263620D01*
X81540123Y-122339104D01*
X81745522Y-122377500D01*
X81745525Y-122377500D01*
X81954475Y-122377500D01*
X81954478Y-122377500D01*
X82159877Y-122339104D01*
X82354723Y-122263620D01*
X82532381Y-122153619D01*
X82686802Y-122012846D01*
X82812726Y-121846095D01*
X82905866Y-121659045D01*
X82963050Y-121458065D01*
X82963930Y-121448566D01*
X82982330Y-121250004D01*
X82982330Y-121249995D01*
X82963051Y-121041942D01*
X82963049Y-121041931D01*
X82943971Y-120974879D01*
X82905866Y-120840955D01*
X82812726Y-120653905D01*
X82812723Y-120653901D01*
X82812722Y-120653899D01*
X82686810Y-120487163D01*
X82686805Y-120487158D01*
X82686802Y-120487154D01*
X82589927Y-120398841D01*
X82532385Y-120346384D01*
X82532382Y-120346382D01*
X82532381Y-120346381D01*
X82354723Y-120236380D01*
X82354721Y-120236379D01*
X82298089Y-120214440D01*
X82159877Y-120160896D01*
X82159874Y-120160895D01*
X82159873Y-120160895D01*
X81954482Y-120122500D01*
X81954478Y-120122500D01*
X81745522Y-120122500D01*
X81745517Y-120122500D01*
X81540126Y-120160895D01*
X81345278Y-120236379D01*
X81167614Y-120346384D01*
X81013196Y-120487156D01*
X81013189Y-120487163D01*
X80887277Y-120653899D01*
X80887274Y-120653905D01*
X80794134Y-120840954D01*
X80736950Y-121041931D01*
X80736948Y-121041942D01*
X80717670Y-121249995D01*
X78763150Y-121249995D01*
X76695806Y-119182651D01*
X76677500Y-119138457D01*
X76677500Y-116961543D01*
X76695806Y-116917349D01*
X78310198Y-115302957D01*
X79950366Y-113662788D01*
X79994559Y-113644483D01*
X80038753Y-113662789D01*
X80057059Y-113706983D01*
X80056290Y-113716760D01*
X80043106Y-113800002D01*
X80043106Y-113800003D01*
X80060572Y-113910282D01*
X80060574Y-113910287D01*
X80111266Y-114009776D01*
X80154194Y-114052704D01*
X80172500Y-114096898D01*
X80172500Y-114661454D01*
X80162473Y-114692316D01*
X80163500Y-114692840D01*
X80110574Y-114796712D01*
X80110572Y-114796717D01*
X80093106Y-114906996D01*
X80093106Y-114907003D01*
X80110572Y-115017282D01*
X80110574Y-115017287D01*
X80161266Y-115116776D01*
X80161267Y-115116777D01*
X80240223Y-115195733D01*
X80339714Y-115246426D01*
X80339717Y-115246427D01*
X80449997Y-115263894D01*
X80450000Y-115263894D01*
X80450002Y-115263894D01*
X80531377Y-115251005D01*
X80577891Y-115262171D01*
X80602885Y-115302957D01*
X80591719Y-115349471D01*
X80585349Y-115356929D01*
X80126307Y-115815972D01*
X80072579Y-115869699D01*
X80072577Y-115869702D01*
X80043500Y-115939902D01*
X80043500Y-116360097D01*
X80072577Y-116430297D01*
X80072579Y-116430300D01*
X80577311Y-116935032D01*
X80595617Y-116979226D01*
X80594848Y-116989002D01*
X80593106Y-117000002D01*
X80593106Y-117000003D01*
X80610572Y-117110282D01*
X80610574Y-117110287D01*
X80661266Y-117209776D01*
X80661267Y-117209777D01*
X80740223Y-117288733D01*
X80839714Y-117339426D01*
X80839717Y-117339427D01*
X80949997Y-117356894D01*
X80950000Y-117356894D01*
X80950003Y-117356894D01*
X81060282Y-117339427D01*
X81060283Y-117339426D01*
X81060286Y-117339426D01*
X81159777Y-117288733D01*
X81238733Y-117209777D01*
X81289426Y-117110286D01*
X81306894Y-117000000D01*
X81306894Y-116999996D01*
X81289427Y-116889717D01*
X81289425Y-116889712D01*
X81238733Y-116790223D01*
X81159776Y-116711266D01*
X81060287Y-116660574D01*
X81060282Y-116660572D01*
X80950003Y-116643106D01*
X80950001Y-116643106D01*
X80950000Y-116643106D01*
X80935166Y-116645455D01*
X80874073Y-116655131D01*
X80827560Y-116643963D01*
X80820103Y-116637594D01*
X80762585Y-116580076D01*
X80744279Y-116535882D01*
X80762585Y-116491688D01*
X80778405Y-116480194D01*
X80830569Y-116453615D01*
X80859777Y-116438733D01*
X80938733Y-116359777D01*
X80989426Y-116260286D01*
X81005278Y-116160201D01*
X81022811Y-116125791D01*
X81683798Y-115464806D01*
X81727992Y-115446500D01*
X84217182Y-115446500D01*
X84261376Y-115464806D01*
X91149772Y-122353202D01*
X91167308Y-122387618D01*
X91183160Y-122487696D01*
X91183161Y-122487700D01*
X91194670Y-122510287D01*
X91233854Y-122587190D01*
X91312810Y-122666146D01*
X91412301Y-122716839D01*
X91412304Y-122716840D01*
X91522584Y-122734307D01*
X91522587Y-122734307D01*
X91522590Y-122734307D01*
X91632869Y-122716840D01*
X91632870Y-122716839D01*
X91632873Y-122716839D01*
X91732364Y-122666146D01*
X91811320Y-122587190D01*
X91862013Y-122487699D01*
X91862013Y-122487696D01*
X91862014Y-122487695D01*
X91879481Y-122377416D01*
X91879481Y-122377409D01*
X91862014Y-122267130D01*
X91862012Y-122267125D01*
X91811320Y-122167636D01*
X91732363Y-122088679D01*
X91632874Y-122037987D01*
X91632870Y-122037986D01*
X91532792Y-122022134D01*
X91498376Y-122004598D01*
X84681972Y-115188194D01*
X84663666Y-115144000D01*
X84681972Y-115099806D01*
X84726166Y-115081500D01*
X85535497Y-115081500D01*
X85579691Y-115099806D01*
X91782452Y-121302567D01*
X91800758Y-121346761D01*
X91799989Y-121356537D01*
X91793106Y-121400001D01*
X91793106Y-121400003D01*
X91810572Y-121510282D01*
X91810574Y-121510287D01*
X91833254Y-121554799D01*
X91861267Y-121609777D01*
X91940223Y-121688733D01*
X92039714Y-121739426D01*
X92039717Y-121739427D01*
X92149997Y-121756894D01*
X92150000Y-121756894D01*
X92150003Y-121756894D01*
X92260282Y-121739427D01*
X92260283Y-121739426D01*
X92260286Y-121739426D01*
X92359777Y-121688733D01*
X92438733Y-121609777D01*
X92489426Y-121510286D01*
X92494135Y-121480555D01*
X92506894Y-121400003D01*
X92506894Y-121399996D01*
X92489427Y-121289717D01*
X92489425Y-121289712D01*
X92438733Y-121190223D01*
X92359776Y-121111266D01*
X92260287Y-121060574D01*
X92260282Y-121060572D01*
X92150003Y-121043106D01*
X92150001Y-121043106D01*
X92150000Y-121043106D01*
X92142338Y-121044319D01*
X92106537Y-121049989D01*
X92060023Y-121038821D01*
X92052567Y-121032452D01*
X86570110Y-115549995D01*
X94067670Y-115549995D01*
X94067670Y-115550004D01*
X94086948Y-115758057D01*
X94086950Y-115758068D01*
X94138687Y-115939902D01*
X94144134Y-115959045D01*
X94237274Y-116146095D01*
X94237275Y-116146096D01*
X94237277Y-116146100D01*
X94363189Y-116312836D01*
X94363194Y-116312841D01*
X94363198Y-116312846D01*
X94467938Y-116408329D01*
X94517614Y-116453615D01*
X94517615Y-116453616D01*
X94517619Y-116453619D01*
X94695277Y-116563620D01*
X94890123Y-116639104D01*
X95095522Y-116677500D01*
X95095525Y-116677500D01*
X95304475Y-116677500D01*
X95304478Y-116677500D01*
X95509877Y-116639104D01*
X95704723Y-116563620D01*
X95882381Y-116453619D01*
X96036802Y-116312846D01*
X96058500Y-116284114D01*
X96162722Y-116146100D01*
X96162721Y-116146100D01*
X96162726Y-116146095D01*
X96255866Y-115959045D01*
X96313050Y-115758065D01*
X96332330Y-115550000D01*
X96322739Y-115446500D01*
X96313051Y-115341942D01*
X96313049Y-115341931D01*
X96287178Y-115251005D01*
X96255866Y-115140955D01*
X96162726Y-114953905D01*
X96162723Y-114953901D01*
X96162722Y-114953899D01*
X96036810Y-114787163D01*
X96036805Y-114787158D01*
X96036802Y-114787154D01*
X95933344Y-114692840D01*
X95882385Y-114646384D01*
X95882382Y-114646382D01*
X95882381Y-114646381D01*
X95704723Y-114536380D01*
X95704721Y-114536379D01*
X95648089Y-114514440D01*
X95509877Y-114460896D01*
X95509874Y-114460895D01*
X95509873Y-114460895D01*
X95304482Y-114422500D01*
X95304478Y-114422500D01*
X95095522Y-114422500D01*
X95095517Y-114422500D01*
X94890126Y-114460895D01*
X94695278Y-114536379D01*
X94517614Y-114646384D01*
X94363196Y-114787156D01*
X94363189Y-114787163D01*
X94237277Y-114953899D01*
X94237274Y-114953905D01*
X94144134Y-115140954D01*
X94086950Y-115341931D01*
X94086948Y-115341942D01*
X94067670Y-115549995D01*
X86570110Y-115549995D01*
X85748694Y-114728579D01*
X85748693Y-114728578D01*
X85678492Y-114699500D01*
X85678491Y-114699500D01*
X82990000Y-114699500D01*
X82945806Y-114681194D01*
X82927500Y-114637000D01*
X82927500Y-114546898D01*
X82945806Y-114502704D01*
X82988733Y-114459777D01*
X83039426Y-114360286D01*
X83047426Y-114309777D01*
X83056894Y-114250003D01*
X83056894Y-114249996D01*
X83039427Y-114139717D01*
X83039425Y-114139712D01*
X82988733Y-114040223D01*
X82909776Y-113961266D01*
X82810287Y-113910574D01*
X82810282Y-113910572D01*
X82700003Y-113893106D01*
X82699997Y-113893106D01*
X82589717Y-113910572D01*
X82589712Y-113910574D01*
X82490223Y-113961266D01*
X82411266Y-114040223D01*
X82360574Y-114139712D01*
X82360572Y-114139717D01*
X82343106Y-114249996D01*
X82343106Y-114250003D01*
X82360572Y-114360282D01*
X82360574Y-114360287D01*
X82411266Y-114459776D01*
X82454194Y-114502704D01*
X82472500Y-114546898D01*
X82472500Y-114637000D01*
X82454194Y-114681194D01*
X82410000Y-114699500D01*
X81283902Y-114699500D01*
X81213702Y-114728577D01*
X81213699Y-114728579D01*
X80899929Y-115042349D01*
X80855735Y-115060655D01*
X80811541Y-115042349D01*
X80793235Y-114998155D01*
X80794005Y-114988377D01*
X80806894Y-114907002D01*
X80806894Y-114906996D01*
X80789427Y-114796717D01*
X80789425Y-114796712D01*
X80738733Y-114697223D01*
X80659775Y-114618265D01*
X80655796Y-114615374D01*
X80656968Y-114613760D01*
X80630554Y-114582818D01*
X80627500Y-114563520D01*
X80627500Y-114099996D01*
X81193106Y-114099996D01*
X81193106Y-114100003D01*
X81210572Y-114210282D01*
X81210574Y-114210287D01*
X81261266Y-114309776D01*
X81261267Y-114309777D01*
X81340223Y-114388733D01*
X81439714Y-114439426D01*
X81439717Y-114439427D01*
X81549997Y-114456894D01*
X81550000Y-114456894D01*
X81550003Y-114456894D01*
X81660282Y-114439427D01*
X81660283Y-114439426D01*
X81660286Y-114439426D01*
X81759777Y-114388733D01*
X81838733Y-114309777D01*
X81889426Y-114210286D01*
X81889427Y-114210282D01*
X81906894Y-114100003D01*
X81906894Y-114099996D01*
X81889427Y-113989717D01*
X81889425Y-113989712D01*
X81838733Y-113890223D01*
X81759776Y-113811266D01*
X81660287Y-113760574D01*
X81660282Y-113760572D01*
X81550003Y-113743106D01*
X81549997Y-113743106D01*
X81439717Y-113760572D01*
X81439712Y-113760574D01*
X81340223Y-113811266D01*
X81261266Y-113890223D01*
X81210574Y-113989712D01*
X81210572Y-113989717D01*
X81193106Y-114099996D01*
X80627500Y-114099996D01*
X80627500Y-114096898D01*
X80645806Y-114052704D01*
X80658287Y-114040223D01*
X80688733Y-114009777D01*
X80739426Y-113910286D01*
X80747542Y-113859045D01*
X80756894Y-113800003D01*
X80756894Y-113799996D01*
X80739427Y-113689717D01*
X80739425Y-113689712D01*
X80688733Y-113590223D01*
X80609776Y-113511266D01*
X80579202Y-113495688D01*
X80548135Y-113459314D01*
X80551888Y-113411626D01*
X80588262Y-113380559D01*
X80607576Y-113377500D01*
X83101303Y-113377500D01*
X83129676Y-113384311D01*
X83139714Y-113389426D01*
X83139715Y-113389426D01*
X83139717Y-113389427D01*
X83249997Y-113406894D01*
X83250000Y-113406894D01*
X83250003Y-113406894D01*
X83360282Y-113389427D01*
X83360283Y-113389426D01*
X83360286Y-113389426D01*
X83459777Y-113338733D01*
X83538733Y-113259777D01*
X83589426Y-113160286D01*
X83606894Y-113050000D01*
X83606894Y-113049996D01*
X83589427Y-112939717D01*
X83589425Y-112939712D01*
X83538733Y-112840223D01*
X83459776Y-112761266D01*
X83360287Y-112710574D01*
X83360282Y-112710572D01*
X83250003Y-112693106D01*
X83249997Y-112693106D01*
X83139717Y-112710572D01*
X83139715Y-112710573D01*
X83134074Y-112713447D01*
X83129676Y-112715688D01*
X83101303Y-112722500D01*
X80056878Y-112722500D01*
X79973592Y-112744818D01*
X79973590Y-112744818D01*
X79921095Y-112775126D01*
X79898910Y-112787935D01*
X79898909Y-112787936D01*
X79898905Y-112787939D01*
X76219305Y-116467538D01*
X76203486Y-116479032D01*
X76140222Y-116511267D01*
X76061266Y-116590223D01*
X76010574Y-116689712D01*
X76010572Y-116689717D01*
X75993106Y-116799996D01*
X66200500Y-116799996D01*
X66200500Y-113449995D01*
X69167670Y-113449995D01*
X69167670Y-113450004D01*
X69186948Y-113658057D01*
X69186950Y-113658068D01*
X69230540Y-113811267D01*
X69244134Y-113859045D01*
X69337274Y-114046095D01*
X69337275Y-114046096D01*
X69337277Y-114046100D01*
X69463189Y-114212836D01*
X69463194Y-114212841D01*
X69463198Y-114212846D01*
X69567938Y-114308329D01*
X69617614Y-114353615D01*
X69617615Y-114353616D01*
X69617619Y-114353619D01*
X69795277Y-114463620D01*
X69990123Y-114539104D01*
X70195522Y-114577500D01*
X70195525Y-114577500D01*
X70404475Y-114577500D01*
X70404478Y-114577500D01*
X70609877Y-114539104D01*
X70804723Y-114463620D01*
X70982381Y-114353619D01*
X71136802Y-114212846D01*
X71138735Y-114210287D01*
X71222022Y-114099996D01*
X71262726Y-114046095D01*
X71355866Y-113859045D01*
X71413050Y-113658065D01*
X71414309Y-113644483D01*
X71432330Y-113450004D01*
X71432330Y-113449995D01*
X71413051Y-113241942D01*
X71413049Y-113241931D01*
X71389819Y-113160286D01*
X71355866Y-113040955D01*
X71262726Y-112853905D01*
X71262723Y-112853901D01*
X71262722Y-112853899D01*
X71136810Y-112687163D01*
X71136805Y-112687158D01*
X71136802Y-112687154D01*
X71039927Y-112598841D01*
X70982385Y-112546384D01*
X70982382Y-112546382D01*
X70982381Y-112546381D01*
X70804723Y-112436380D01*
X70804721Y-112436379D01*
X70748089Y-112414440D01*
X70609877Y-112360896D01*
X70609874Y-112360895D01*
X70609873Y-112360895D01*
X70404482Y-112322500D01*
X70404478Y-112322500D01*
X70195522Y-112322500D01*
X70195517Y-112322500D01*
X69990126Y-112360895D01*
X69795278Y-112436379D01*
X69617614Y-112546384D01*
X69463196Y-112687156D01*
X69463189Y-112687163D01*
X69337277Y-112853899D01*
X69337274Y-112853905D01*
X69244134Y-113040954D01*
X69186950Y-113241931D01*
X69186948Y-113241942D01*
X69167670Y-113449995D01*
X66200500Y-113449995D01*
X66200500Y-111351540D01*
X66200575Y-111348473D01*
X66205413Y-111249995D01*
X71267669Y-111249995D01*
X71267669Y-111250004D01*
X71286947Y-111458057D01*
X71286949Y-111458068D01*
X71301175Y-111508065D01*
X71344133Y-111659045D01*
X71437273Y-111846095D01*
X71437274Y-111846096D01*
X71437276Y-111846100D01*
X71563188Y-112012836D01*
X71563193Y-112012841D01*
X71563197Y-112012846D01*
X71618045Y-112062846D01*
X71717613Y-112153615D01*
X71717614Y-112153616D01*
X71717618Y-112153619D01*
X71895276Y-112263620D01*
X72090122Y-112339104D01*
X72295521Y-112377500D01*
X72295524Y-112377500D01*
X72504474Y-112377500D01*
X72504477Y-112377500D01*
X72709876Y-112339104D01*
X72904722Y-112263620D01*
X73082380Y-112153619D01*
X73236801Y-112012846D01*
X73362725Y-111846095D01*
X73455865Y-111659045D01*
X73513049Y-111458065D01*
X73523204Y-111348473D01*
X73532329Y-111250004D01*
X73532329Y-111249995D01*
X74317670Y-111249995D01*
X74317670Y-111250004D01*
X74336948Y-111458057D01*
X74336950Y-111458068D01*
X74351176Y-111508065D01*
X74394134Y-111659045D01*
X74487274Y-111846095D01*
X74487275Y-111846096D01*
X74487277Y-111846100D01*
X74613189Y-112012836D01*
X74613194Y-112012841D01*
X74613198Y-112012846D01*
X74668046Y-112062846D01*
X74767614Y-112153615D01*
X74767615Y-112153616D01*
X74767619Y-112153619D01*
X74945277Y-112263620D01*
X75140123Y-112339104D01*
X75345522Y-112377500D01*
X75345525Y-112377500D01*
X75554475Y-112377500D01*
X75554478Y-112377500D01*
X75759877Y-112339104D01*
X75954723Y-112263620D01*
X76132381Y-112153619D01*
X76286802Y-112012846D01*
X76412726Y-111846095D01*
X76505866Y-111659045D01*
X76563050Y-111458065D01*
X76573205Y-111348473D01*
X76582330Y-111250004D01*
X76582330Y-111249995D01*
X77367670Y-111249995D01*
X77367670Y-111250004D01*
X77386948Y-111458057D01*
X77386950Y-111458068D01*
X77401176Y-111508065D01*
X77444134Y-111659045D01*
X77537274Y-111846095D01*
X77537275Y-111846096D01*
X77537277Y-111846100D01*
X77663189Y-112012836D01*
X77663194Y-112012841D01*
X77663198Y-112012846D01*
X77718046Y-112062846D01*
X77817614Y-112153615D01*
X77817615Y-112153616D01*
X77817619Y-112153619D01*
X77995277Y-112263620D01*
X78190123Y-112339104D01*
X78395522Y-112377500D01*
X78395525Y-112377500D01*
X78604475Y-112377500D01*
X78604478Y-112377500D01*
X78809877Y-112339104D01*
X79004723Y-112263620D01*
X79182381Y-112153619D01*
X79336802Y-112012846D01*
X79462726Y-111846095D01*
X79555866Y-111659045D01*
X79613050Y-111458065D01*
X79623205Y-111348473D01*
X79627697Y-111299995D01*
X80417670Y-111299995D01*
X80417670Y-111300004D01*
X80436948Y-111508057D01*
X80436950Y-111508068D01*
X80494134Y-111709045D01*
X80587274Y-111896095D01*
X80587275Y-111896096D01*
X80587277Y-111896100D01*
X80713189Y-112062836D01*
X80713194Y-112062841D01*
X80713198Y-112062846D01*
X80817938Y-112158329D01*
X80867614Y-112203615D01*
X80867615Y-112203616D01*
X80867619Y-112203619D01*
X81045277Y-112313620D01*
X81240123Y-112389104D01*
X81445522Y-112427500D01*
X81445525Y-112427500D01*
X81654475Y-112427500D01*
X81654478Y-112427500D01*
X81859877Y-112389104D01*
X82054723Y-112313620D01*
X82232381Y-112203619D01*
X82386802Y-112062846D01*
X82424563Y-112012843D01*
X82512722Y-111896100D01*
X82512721Y-111896100D01*
X82512726Y-111896095D01*
X82605866Y-111709045D01*
X82663050Y-111508065D01*
X82677697Y-111350000D01*
X82682330Y-111300004D01*
X82682330Y-111299995D01*
X82663051Y-111091942D01*
X82663049Y-111091931D01*
X82648824Y-111041935D01*
X82605866Y-110890955D01*
X82512726Y-110703905D01*
X82512723Y-110703901D01*
X82512722Y-110703899D01*
X82386810Y-110537163D01*
X82386805Y-110537158D01*
X82386802Y-110537154D01*
X82289927Y-110448841D01*
X82232385Y-110396384D01*
X82232382Y-110396382D01*
X82232381Y-110396381D01*
X82054723Y-110286380D01*
X82054721Y-110286379D01*
X81998089Y-110264440D01*
X81859877Y-110210896D01*
X81859874Y-110210895D01*
X81859873Y-110210895D01*
X81654482Y-110172500D01*
X81654478Y-110172500D01*
X81445522Y-110172500D01*
X81445517Y-110172500D01*
X81240126Y-110210895D01*
X81045278Y-110286379D01*
X80867614Y-110396384D01*
X80713196Y-110537156D01*
X80713189Y-110537163D01*
X80587277Y-110703899D01*
X80587274Y-110703905D01*
X80494134Y-110890954D01*
X80436950Y-111091931D01*
X80436948Y-111091942D01*
X80417670Y-111299995D01*
X79627697Y-111299995D01*
X79632330Y-111250004D01*
X79632330Y-111249995D01*
X79613051Y-111041942D01*
X79613049Y-111041931D01*
X79570092Y-110890954D01*
X79555866Y-110840955D01*
X79462726Y-110653905D01*
X79462723Y-110653901D01*
X79462722Y-110653899D01*
X79336810Y-110487163D01*
X79336805Y-110487158D01*
X79336802Y-110487154D01*
X79227230Y-110387266D01*
X79182385Y-110346384D01*
X79182382Y-110346382D01*
X79182381Y-110346381D01*
X79004723Y-110236380D01*
X79004721Y-110236379D01*
X78938939Y-110210895D01*
X78809877Y-110160896D01*
X78809874Y-110160895D01*
X78809873Y-110160895D01*
X78604482Y-110122500D01*
X78604478Y-110122500D01*
X78395522Y-110122500D01*
X78395517Y-110122500D01*
X78190126Y-110160895D01*
X78190123Y-110160895D01*
X78190123Y-110160896D01*
X78160170Y-110172500D01*
X77995278Y-110236379D01*
X77817614Y-110346384D01*
X77663196Y-110487156D01*
X77663189Y-110487163D01*
X77537277Y-110653899D01*
X77537274Y-110653905D01*
X77444134Y-110840954D01*
X77386950Y-111041931D01*
X77386948Y-111041942D01*
X77367670Y-111249995D01*
X76582330Y-111249995D01*
X76563051Y-111041942D01*
X76563049Y-111041931D01*
X76520092Y-110890954D01*
X76505866Y-110840955D01*
X76412726Y-110653905D01*
X76412723Y-110653901D01*
X76412722Y-110653899D01*
X76286810Y-110487163D01*
X76286805Y-110487158D01*
X76286802Y-110487154D01*
X76177230Y-110387266D01*
X76132385Y-110346384D01*
X76132382Y-110346382D01*
X76132381Y-110346381D01*
X75954723Y-110236380D01*
X75954721Y-110236379D01*
X75888939Y-110210895D01*
X75759877Y-110160896D01*
X75759874Y-110160895D01*
X75759873Y-110160895D01*
X75554482Y-110122500D01*
X75554478Y-110122500D01*
X75345522Y-110122500D01*
X75345517Y-110122500D01*
X75140126Y-110160895D01*
X75140123Y-110160895D01*
X75140123Y-110160896D01*
X75110170Y-110172500D01*
X74945278Y-110236379D01*
X74767614Y-110346384D01*
X74613196Y-110487156D01*
X74613189Y-110487163D01*
X74487277Y-110653899D01*
X74487274Y-110653905D01*
X74394134Y-110840954D01*
X74336950Y-111041931D01*
X74336948Y-111041942D01*
X74317670Y-111249995D01*
X73532329Y-111249995D01*
X73513050Y-111041942D01*
X73513048Y-111041931D01*
X73470091Y-110890954D01*
X73455865Y-110840955D01*
X73362725Y-110653905D01*
X73362722Y-110653901D01*
X73362721Y-110653899D01*
X73236809Y-110487163D01*
X73236804Y-110487158D01*
X73236801Y-110487154D01*
X73127229Y-110387266D01*
X73082384Y-110346384D01*
X73082381Y-110346382D01*
X73082380Y-110346381D01*
X72904722Y-110236380D01*
X72904720Y-110236379D01*
X72838938Y-110210895D01*
X72709876Y-110160896D01*
X72709873Y-110160895D01*
X72709872Y-110160895D01*
X72504481Y-110122500D01*
X72504477Y-110122500D01*
X72295521Y-110122500D01*
X72295516Y-110122500D01*
X72090125Y-110160895D01*
X72090122Y-110160895D01*
X72090122Y-110160896D01*
X72060169Y-110172500D01*
X71895277Y-110236379D01*
X71717613Y-110346384D01*
X71563195Y-110487156D01*
X71563188Y-110487163D01*
X71437276Y-110653899D01*
X71437273Y-110653905D01*
X71344133Y-110840954D01*
X71286949Y-111041931D01*
X71286947Y-111041942D01*
X71267669Y-111249995D01*
X66205413Y-111249995D01*
X66215634Y-111041942D01*
X66218645Y-110980646D01*
X66219246Y-110974548D01*
X66231646Y-110890954D01*
X66273057Y-110611777D01*
X66274253Y-110605770D01*
X66363363Y-110250022D01*
X66365135Y-110244183D01*
X66488691Y-109898867D01*
X66491025Y-109893234D01*
X66647835Y-109561686D01*
X66650707Y-109556312D01*
X66744400Y-109399995D01*
X83067670Y-109399995D01*
X83067670Y-109400004D01*
X83086948Y-109608057D01*
X83086950Y-109608068D01*
X83099313Y-109651517D01*
X83144134Y-109809045D01*
X83237274Y-109996095D01*
X83237275Y-109996096D01*
X83237277Y-109996100D01*
X83363189Y-110162836D01*
X83363194Y-110162841D01*
X83363198Y-110162846D01*
X83443860Y-110236379D01*
X83517614Y-110303615D01*
X83517615Y-110303616D01*
X83517619Y-110303619D01*
X83695277Y-110413620D01*
X83890123Y-110489104D01*
X84095522Y-110527500D01*
X84095525Y-110527500D01*
X84304475Y-110527500D01*
X84304478Y-110527500D01*
X84509877Y-110489104D01*
X84704723Y-110413620D01*
X84882381Y-110303619D01*
X85036802Y-110162846D01*
X85038276Y-110160895D01*
X85162722Y-109996100D01*
X85162721Y-109996100D01*
X85162726Y-109996095D01*
X85255866Y-109809045D01*
X85313050Y-109608065D01*
X85332330Y-109400000D01*
X85317665Y-109241742D01*
X85313051Y-109191942D01*
X85313049Y-109191931D01*
X85303797Y-109159414D01*
X85255866Y-108990955D01*
X85162726Y-108803905D01*
X85162723Y-108803901D01*
X85162722Y-108803899D01*
X85036810Y-108637163D01*
X85036805Y-108637158D01*
X85036802Y-108637154D01*
X84939927Y-108548841D01*
X84882385Y-108496384D01*
X84882382Y-108496382D01*
X84882381Y-108496381D01*
X84704723Y-108386380D01*
X84704721Y-108386379D01*
X84648089Y-108364440D01*
X84509877Y-108310896D01*
X84509874Y-108310895D01*
X84509873Y-108310895D01*
X84304482Y-108272500D01*
X84304478Y-108272500D01*
X84095522Y-108272500D01*
X84095517Y-108272500D01*
X83890126Y-108310895D01*
X83695278Y-108386379D01*
X83517614Y-108496384D01*
X83363196Y-108637156D01*
X83363189Y-108637163D01*
X83237277Y-108803899D01*
X83237274Y-108803905D01*
X83144134Y-108990954D01*
X83086950Y-109191931D01*
X83086948Y-109191942D01*
X83067670Y-109399995D01*
X66744400Y-109399995D01*
X66839263Y-109241726D01*
X66842650Y-109236657D01*
X67061126Y-108942077D01*
X67064992Y-108937366D01*
X67311296Y-108665611D01*
X67315611Y-108661296D01*
X67587366Y-108414992D01*
X67592077Y-108411126D01*
X67886657Y-108192650D01*
X67891726Y-108189263D01*
X68206312Y-108000707D01*
X68211686Y-107997835D01*
X68543234Y-107841025D01*
X68548867Y-107838691D01*
X68894183Y-107715135D01*
X68900022Y-107713363D01*
X69255778Y-107624251D01*
X69261777Y-107623057D01*
X69624554Y-107569245D01*
X69630646Y-107568645D01*
X69998473Y-107550574D01*
X70001540Y-107550500D01*
X105137500Y-107550500D01*
X105181694Y-107568806D01*
G37*
%TD.AperFunction*%
%TD*%
D20*
X103206151Y-145046001D03*
X103206151Y-143046001D03*
X103206151Y-141046001D03*
X103206151Y-139046001D03*
X103206151Y-137046001D03*
X103206151Y-135046001D03*
X103206151Y-127046001D03*
X103206151Y-123046001D03*
X103206151Y-121046001D03*
X103206151Y-119046001D03*
X103206151Y-117046001D03*
X103206151Y-115046001D03*
X103206151Y-113046001D03*
X103206151Y-111046001D03*
X103206151Y-109046001D03*
X101206151Y-141046001D03*
X101206151Y-135046001D03*
X101206151Y-123046001D03*
X101206151Y-119046001D03*
X101206151Y-117046001D03*
X101206151Y-113046001D03*
X101206151Y-111046001D03*
X99206151Y-113046001D03*
X99206151Y-111046001D03*
X99206151Y-109046001D03*
X97206151Y-145046001D03*
X97206151Y-143046001D03*
X97206151Y-141046001D03*
X97206151Y-117046001D03*
X97206151Y-113046001D03*
X97206151Y-111046001D03*
X95206151Y-145046001D03*
X95206151Y-143046001D03*
X95206151Y-141046001D03*
X95206151Y-139046001D03*
X95206151Y-117046001D03*
X95206151Y-113046001D03*
X95206151Y-111046001D03*
X93206151Y-143046001D03*
X93206151Y-141046001D03*
X93206151Y-137046001D03*
X93206151Y-121046001D03*
X93206151Y-119046001D03*
X93206151Y-117046001D03*
X93206151Y-115046001D03*
X93206151Y-113046001D03*
X93206151Y-111046001D03*
X93206151Y-109046001D03*
X91206151Y-145046001D03*
X91206151Y-119046001D03*
X91206151Y-117046001D03*
X91206151Y-115046001D03*
X91206151Y-113046001D03*
X91206151Y-111046001D03*
X91206151Y-109046001D03*
X89206151Y-143046001D03*
X89206151Y-141046001D03*
X89206151Y-117046001D03*
X89206151Y-115046001D03*
X89206151Y-113046001D03*
X89206151Y-111046001D03*
X87206151Y-143046001D03*
X87206151Y-141046001D03*
X87206151Y-135046001D03*
X87206151Y-133046001D03*
X87206151Y-129046001D03*
X87206151Y-115046001D03*
X87206151Y-113046001D03*
X85206151Y-145046001D03*
X85206151Y-135046001D03*
X85206151Y-133046001D03*
X85206151Y-129046001D03*
X85206151Y-123046001D03*
X83206151Y-143046001D03*
X83206151Y-141046001D03*
X83206151Y-123046001D03*
X83206151Y-111046001D03*
X81206151Y-145046001D03*
X81206151Y-143046001D03*
X81206151Y-141046001D03*
X81206151Y-139046001D03*
X81206151Y-127046001D03*
X81206151Y-123046001D03*
X81206151Y-109046001D03*
X79206151Y-145046001D03*
X79206151Y-143046001D03*
X79206151Y-141046001D03*
X79206151Y-139046001D03*
X79206151Y-137046001D03*
X79206151Y-127046001D03*
X79206151Y-109046001D03*
X77206151Y-143046001D03*
X77206151Y-141046001D03*
X77206151Y-139046001D03*
X77206151Y-131046001D03*
X77206151Y-109046001D03*
X75206151Y-145046001D03*
X75206151Y-143046001D03*
X75206151Y-113046001D03*
X75206151Y-109046001D03*
X73206151Y-145046001D03*
X73206151Y-143046001D03*
X73206151Y-141046001D03*
X73206151Y-133046001D03*
X73206151Y-109046001D03*
X71206151Y-145046001D03*
X71206151Y-135046001D03*
X71206151Y-131046001D03*
X71206151Y-127046001D03*
X71206151Y-117046001D03*
X71206151Y-115046001D03*
X71206151Y-109046001D03*
X69206151Y-145046001D03*
X69206151Y-143046001D03*
X69206151Y-135046001D03*
X69206151Y-125046001D03*
X69206151Y-123046001D03*
X69206151Y-119046001D03*
X69206151Y-117046001D03*
X69206151Y-115046001D03*
X69206151Y-111046001D03*
X69206151Y-109046001D03*
X67206151Y-145046001D03*
X67206151Y-143046001D03*
X67206151Y-135046001D03*
X67206151Y-133046001D03*
X67206151Y-131046001D03*
X67206151Y-129046001D03*
X67206151Y-127046001D03*
X67206151Y-125046001D03*
X67206151Y-123046001D03*
X67206151Y-121046001D03*
X67206151Y-119046001D03*
X67206151Y-117046001D03*
X67206151Y-115046001D03*
X67206151Y-113046001D03*
X67206151Y-111046001D03*
X92650000Y-128200000D03*
X94900000Y-128150000D03*
X94850000Y-125850000D03*
X92650000Y-125850000D03*
X93700000Y-125850000D03*
X93700000Y-128200000D03*
X94900000Y-127000000D03*
X92650000Y-127000000D03*
X93700000Y-127000000D03*
X93700000Y-129400000D03*
X93700000Y-124700000D03*
X91600000Y-127000000D03*
X96000000Y-127000000D03*
X81850000Y-116000000D03*
X87450000Y-119300000D03*
X86700000Y-118950000D03*
X97650000Y-122600000D03*
X90750000Y-136700000D03*
X88750000Y-121450000D03*
X72250000Y-126950000D03*
X72050000Y-126300000D03*
X72050000Y-125450000D03*
X75400000Y-126650000D03*
X85700000Y-125900000D03*
X87900000Y-125850000D03*
X85000000Y-126300000D03*
X81650000Y-126150000D03*
X80350000Y-126200000D03*
X78900000Y-126200000D03*
X77550000Y-126250000D03*
X76450000Y-126400000D03*
X88200000Y-124200000D03*
X86900000Y-124200000D03*
X84550000Y-124050000D03*
X83450000Y-124050000D03*
X82150000Y-124000000D03*
X79850000Y-124150000D03*
X78800000Y-124100000D03*
X77700000Y-124100000D03*
X76550000Y-124000000D03*
X75250000Y-116650000D03*
X77050000Y-118000000D03*
X75400000Y-117600000D03*
X78050000Y-122100000D03*
X85250000Y-121900000D03*
X85100000Y-120500000D03*
X101421358Y-126867267D03*
X101800000Y-127300000D03*
X102200000Y-127700000D03*
X102650000Y-128050000D03*
X103100000Y-128450000D03*
X103550000Y-128850000D03*
X103450000Y-129400000D03*
X103050000Y-129850000D03*
X103500000Y-131700000D03*
X103500000Y-131100000D03*
X103100000Y-130650000D03*
X102650000Y-130250000D03*
X102500000Y-132150000D03*
X101400000Y-132250000D03*
X100850000Y-132700000D03*
X100400000Y-133050000D03*
X100150000Y-133550000D03*
X99566469Y-133824556D03*
X99800000Y-134350000D03*
X99250000Y-134600000D03*
X98800000Y-135000000D03*
X98400000Y-135450000D03*
X97950000Y-134900000D03*
X97400000Y-134800000D03*
X97200000Y-134250000D03*
X97450000Y-131250000D03*
X96806588Y-131143412D03*
X96900000Y-129900000D03*
X96500000Y-130350000D03*
X96229797Y-130843600D03*
X96400000Y-131550000D03*
X96600000Y-132200000D03*
X97006588Y-131793412D03*
X97850000Y-131650000D03*
X98100000Y-131100000D03*
X97600000Y-130600000D03*
X97050000Y-130600000D03*
X98050000Y-129650000D03*
X98800000Y-130500000D03*
X98400000Y-130100000D03*
X83250000Y-113050000D03*
X97000000Y-118650000D03*
X97900000Y-121550000D03*
X100300000Y-127200000D03*
X94650000Y-132700000D03*
X88700000Y-122400000D03*
X76350000Y-116800000D03*
X79150000Y-122100000D03*
X83600000Y-128650000D03*
X81550000Y-114100000D03*
X82700000Y-114250000D03*
X80450000Y-114907000D03*
X80400000Y-113800000D03*
X92150000Y-121400000D03*
X80950000Y-117000000D03*
X80650000Y-116150000D03*
X91522587Y-122377413D03*
X90200000Y-133450000D03*
X88450000Y-132700000D03*
X89550000Y-132350000D03*
X90950000Y-132450000D03*
X93100000Y-132700000D03*
X90900000Y-130950000D03*
X91600000Y-131850000D03*
D21*
X75150000Y-132250000D03*
X75450000Y-111250000D03*
X72399999Y-111250000D03*
X100200000Y-136250000D03*
X81850000Y-121250000D03*
X102050000Y-133800000D03*
X100200000Y-139300000D03*
X78500000Y-111250000D03*
X68150000Y-141250000D03*
X87350000Y-130600000D03*
X68250000Y-138050000D03*
X70300000Y-113450000D03*
X72354121Y-123300076D03*
X72354121Y-129099924D03*
D22*
X72854248Y-121874879D03*
D23*
X72854248Y-130525121D03*
D24*
X68674416Y-130525121D03*
X68674416Y-121874879D03*
D21*
X90350000Y-139250000D03*
X81550000Y-111300000D03*
X84300000Y-139250000D03*
X71100000Y-141900000D03*
X100200000Y-145400000D03*
X87350000Y-139250000D03*
X93400000Y-139250000D03*
X77900000Y-134650000D03*
X78150000Y-128500000D03*
X100200000Y-142350001D03*
X95200000Y-115550000D03*
X70500000Y-132700000D03*
X84200000Y-109400000D03*
M02*
