M48
; DRILL file {KiCad 8.0.5} date 2024-11-10T01:34:36-0500
; FORMAT={-:-/ absolute / metric / decimal}
; #@! TF.CreationDate,2024-11-10T01:34:36-05:00
; #@! TF.GenerationSoftware,Kicad,Pcbnew,8.0.5
; #@! TF.FileFunction,Plated,1,4,PTH
FMAT,2
METRIC
; #@! TA.AperFunction,Plated,PTH,ViaDrill
T1C0.300
; #@! TA.AperFunction,Plated,PTH,ComponentDrill
T2C0.800
; #@! TA.AperFunction,Plated,PTH,ComponentDrill
T3C1.000
%
G90
G05
T1
X67.206Y-111.046
X67.206Y-113.046
X67.206Y-115.046
X67.206Y-117.046
X67.206Y-119.046
X67.206Y-121.046
X67.206Y-123.046
X67.206Y-125.046
X67.206Y-127.046
X67.206Y-129.046
X67.206Y-131.046
X67.206Y-133.046
X67.206Y-135.046
X67.206Y-143.046
X67.206Y-145.046
X69.206Y-109.046
X69.206Y-111.046
X69.206Y-115.046
X69.206Y-117.046
X69.206Y-119.046
X69.206Y-123.046
X69.206Y-125.046
X69.206Y-135.046
X69.206Y-143.046
X69.206Y-145.046
X71.206Y-109.046
X71.206Y-115.046
X71.206Y-117.046
X71.206Y-127.046
X71.206Y-131.046
X71.206Y-135.046
X71.206Y-145.046
X72.05Y-125.45
X72.05Y-126.3
X72.25Y-126.95
X73.206Y-109.046
X73.206Y-133.046
X73.206Y-141.046
X73.206Y-143.046
X73.206Y-145.046
X75.206Y-109.046
X75.206Y-113.046
X75.206Y-143.046
X75.206Y-145.046
X75.25Y-116.65
X75.4Y-117.6
X75.4Y-126.65
X76.35Y-116.8
X76.45Y-126.4
X76.55Y-124.0
X77.05Y-118.0
X77.206Y-109.046
X77.206Y-131.046
X77.206Y-139.046
X77.206Y-141.046
X77.206Y-143.046
X77.55Y-126.25
X77.7Y-124.1
X78.05Y-122.1
X78.8Y-124.1
X78.9Y-126.2
X79.15Y-122.1
X79.206Y-109.046
X79.206Y-127.046
X79.206Y-137.046
X79.206Y-139.046
X79.206Y-141.046
X79.206Y-143.046
X79.206Y-145.046
X79.85Y-124.15
X80.35Y-126.2
X80.4Y-113.8
X80.45Y-114.907
X80.65Y-116.15
X80.95Y-117.0
X81.206Y-109.046
X81.206Y-123.046
X81.206Y-127.046
X81.206Y-139.046
X81.206Y-141.046
X81.206Y-143.046
X81.206Y-145.046
X81.55Y-114.1
X81.65Y-126.15
X81.85Y-116.0
X82.15Y-124.0
X82.7Y-114.25
X83.206Y-111.046
X83.206Y-123.046
X83.206Y-141.046
X83.206Y-143.046
X83.25Y-113.05
X83.45Y-124.05
X83.6Y-128.65
X84.55Y-124.05
X85.0Y-126.3
X85.1Y-120.5
X85.206Y-123.046
X85.206Y-129.046
X85.206Y-133.046
X85.206Y-135.046
X85.206Y-145.046
X85.25Y-121.9
X85.7Y-125.9
X86.7Y-118.95
X86.9Y-124.2
X87.206Y-113.046
X87.206Y-115.046
X87.206Y-129.046
X87.206Y-133.046
X87.206Y-135.046
X87.206Y-141.046
X87.206Y-143.046
X87.45Y-119.3
X87.9Y-125.85
X88.2Y-124.2
X88.45Y-132.7
X88.7Y-122.4
X88.75Y-121.45
X89.206Y-111.046
X89.206Y-113.046
X89.206Y-115.046
X89.206Y-117.046
X89.206Y-141.046
X89.206Y-143.046
X89.55Y-132.35
X90.2Y-133.45
X90.75Y-136.7
X90.9Y-130.95
X90.95Y-132.45
X91.206Y-109.046
X91.206Y-111.046
X91.206Y-113.046
X91.206Y-115.046
X91.206Y-117.046
X91.206Y-119.046
X91.206Y-145.046
X91.523Y-122.377
X91.6Y-127.0
X91.6Y-131.85
X92.15Y-121.4
X92.65Y-125.85
X92.65Y-127.0
X92.65Y-128.2
X93.1Y-132.7
X93.206Y-109.046
X93.206Y-111.046
X93.206Y-113.046
X93.206Y-115.046
X93.206Y-117.046
X93.206Y-119.046
X93.206Y-121.046
X93.206Y-137.046
X93.206Y-141.046
X93.206Y-143.046
X93.7Y-124.7
X93.7Y-125.85
X93.7Y-127.0
X93.7Y-128.2
X93.7Y-129.4
X94.65Y-132.7
X94.85Y-125.85
X94.9Y-127.0
X94.9Y-128.15
X95.206Y-111.046
X95.206Y-113.046
X95.206Y-117.046
X95.206Y-139.046
X95.206Y-141.046
X95.206Y-143.046
X95.206Y-145.046
X96.0Y-127.0
X96.23Y-130.844
X96.4Y-131.55
X96.5Y-130.35
X96.6Y-132.2
X96.807Y-131.143
X96.9Y-129.9
X97.0Y-118.65
X97.007Y-131.793
X97.05Y-130.6
X97.2Y-134.25
X97.206Y-111.046
X97.206Y-113.046
X97.206Y-117.046
X97.206Y-141.046
X97.206Y-143.046
X97.206Y-145.046
X97.4Y-134.8
X97.45Y-131.25
X97.6Y-130.6
X97.65Y-122.6
X97.85Y-131.65
X97.9Y-121.55
X97.95Y-134.9
X98.05Y-129.65
X98.1Y-131.1
X98.4Y-130.1
X98.4Y-135.45
X98.8Y-130.5
X98.8Y-135.0
X99.206Y-109.046
X99.206Y-111.046
X99.206Y-113.046
X99.25Y-134.6
X99.566Y-133.825
X99.8Y-134.35
X100.15Y-133.55
X100.3Y-127.2
X100.4Y-133.05
X100.85Y-132.7
X101.206Y-111.046
X101.206Y-113.046
X101.206Y-117.046
X101.206Y-119.046
X101.206Y-123.046
X101.206Y-135.046
X101.206Y-141.046
X101.4Y-132.25
X101.421Y-126.867
X101.8Y-127.3
X102.2Y-127.7
X102.5Y-132.15
X102.65Y-128.05
X102.65Y-130.25
X103.05Y-129.85
X103.1Y-128.45
X103.1Y-130.65
X103.206Y-109.046
X103.206Y-111.046
X103.206Y-113.046
X103.206Y-115.046
X103.206Y-117.046
X103.206Y-119.046
X103.206Y-121.046
X103.206Y-123.046
X103.206Y-127.046
X103.206Y-135.046
X103.206Y-137.046
X103.206Y-139.046
X103.206Y-141.046
X103.206Y-143.046
X103.206Y-145.046
X103.45Y-129.4
X103.5Y-131.1
X103.5Y-131.7
X103.55Y-128.85
T3
X68.15Y-141.25
X68.25Y-138.05
X70.3Y-113.45
X70.5Y-132.7
X71.1Y-141.9
X72.4Y-111.25
X75.15Y-132.25
X75.45Y-111.25
X77.9Y-134.65
X78.15Y-128.5
X78.5Y-111.25
X81.55Y-111.3
X81.85Y-121.25
X84.2Y-109.4
X84.3Y-139.25
X87.35Y-130.6
X87.35Y-139.25
X90.35Y-139.25
X93.4Y-139.25
X95.2Y-115.55
X100.2Y-136.25
X100.2Y-139.3
X100.2Y-142.35
X100.2Y-145.4
X102.05Y-133.8
T2
G00X68.974Y-121.875
M15
G01X68.374Y-121.875
M16
G05
G00X68.974Y-130.525
M15
G01X68.374Y-130.525
M16
G05
G00X73.254Y-121.875
M15
G01X72.454Y-121.875
M16
G05
G00X73.254Y-130.525
M15
G01X72.454Y-130.525
M16
G05
M30
